<?xml version="1.0" encoding="utf-8"?>
<!-- Generator: Adobe Illustrator 21.1.0, SVG Export Plug-In . SVG Version: 6.00 Build 0)  -->
<svg version="1.1" id="Layer_1" xmlns="http://www.w3.org/2000/svg" xmlns:xlink="http://www.w3.org/1999/xlink" x="0px" y="0px"
	 viewBox="0 0 199.3 196.7" style="enable-background:new 0 0 199.3 196.7;" xml:space="preserve">
<style type="text/css">
	.st0{fill:#828282;}
</style>
<title>hamburger</title>
<g id="Layer_1-2">
	<path class="st0" d="M145.7,115h-92c-6.7,0-12.2-5.5-12.2-12.2v-0.3c0-6.7,5.5-12.2,12.2-12.2h92c6.7,0,12.2,5.5,12.2,12.2v0.3
		C157.9,109.5,152.4,115,145.7,115z M53.6,97.3c-2.8,0-5.1,2.3-5.1,5.1v0.3c0,2.8,2.3,5.1,5.1,5.1h92c2.8,0,5.1-2.3,5.1-5.1v-0.3
		c0-2.8-2.3-5.1-5.1-5.1H53.6z"/>
	<path class="st0" d="M140.1,83.5C140.1,83.5,140,83.5,140.1,83.5H59.2c0,0,0,0-0.1,0c-6.1,0-11.2-5-11.2-11.2l0-3.7
		c0-15.8,22.7-28.1,51.7-28.1c29,0,51.7,12.3,51.7,28.1v3.6c0,3-1.2,5.8-3.4,7.9C145.9,82.3,143.1,83.5,140.1,83.5z M99.6,47.6
		c-12.2,0-23.7,2.4-32.4,6.9c-7.8,4-12.2,9.1-12.2,14.2v3.6c0,1.1,0.4,2.1,1.2,2.9c0.8,0.8,1.8,1.2,3,1.2l80.8,0c0,0,0,0,0,0
		c1.1,0,2.2-0.4,3-1.2c0.8-0.8,1.2-1.8,1.2-2.9v-3.6c0-5-4.5-10.2-12.3-14.2C123.4,50.1,111.9,47.6,99.6,47.6z"/>
	<path class="st0" d="M129.5,155.6H69.8c-12.6,0-22.9-10.3-22.9-22.9v-0.5c0-5.8,4.8-10.6,10.6-10.6h84.4c5.8,0,10.6,4.8,10.6,10.6
		v0.5C152.4,145.3,142.1,155.6,129.5,155.6z M57.4,128.7c-1.9,0-3.4,1.5-3.4,3.4v0.5c0,8.7,7.1,15.8,15.8,15.8h59.7
		c8.7,0,15.8-7.1,15.8-15.8v-0.5c0-1.9-1.5-3.4-3.4-3.4H57.4z"/>
	<path class="st0" d="M59.1,128.7c5.1,0,5.1,6.2,10.1,6.2c5.1,0,5.1-6.2,10.1-6.2c5.1,0,5.1,6.2,10.1,6.2c5.1,0,5.1-6.2,10.1-6.2
		s5.1,6.2,10.1,6.2s5.1-6.2,10.1-6.2c5.1,0,5.1,6.2,10.1,6.2c5.1,0,5.1-6.2,10.1-6.2"/>
	<path class="st0" d="M83.4,50.8c-0.5-2.1-1.8-5.5-3.5-5.5s-3.1,3.4-3.5,5.5c-1.4,6.1,1.3,14.4,3.5,14.4
		C82.1,65.2,84.8,56.9,83.4,50.8z"/>
	<path class="st0" d="M103.2,48.7c-0.5-2.1-1.8-5.5-3.5-5.5s-3.1,3.4-3.5,5.5c-1.4,6.1,1.3,14.4,3.5,14.4S104.5,54.8,103.2,48.7z"/>
	<path class="st0" d="M122.9,50.8c-0.5-2.1-1.8-5.5-3.5-5.5c-1.8,0-3.1,3.4-3.5,5.5c-1.4,6.1,1.3,14.4,3.5,14.4
		C121.6,65.2,124.3,56.9,122.9,50.8z"/>
</g>
</svg>
