<?xml version="1.0" encoding="utf-8"?>
<!-- Generator: Adobe Illustrator 21.1.0, SVG Export Plug-In . SVG Version: 6.00 Build 0)  -->
<svg version="1.1" id="Layer_1" xmlns="http://www.w3.org/2000/svg" xmlns:xlink="http://www.w3.org/1999/xlink" x="0px" y="0px"
	 viewBox="0 0 56.7 56.7" style="enable-background:new 0 0 56.7 56.7;" xml:space="preserve">
<style type="text/css">
	.st0{fill:#828282;}
</style>
<path class="st0" d="M28.3,0C12.7,0,0,12.7,0,28.3C0,44,12.7,56.7,28.3,56.7C44,56.7,56.7,44,56.7,28.3S44,0,28.3,0z M22,41.9
	C22,41.9,22,41.9,22,41.9C21.9,41.9,21.9,41.9,22,41.9L12.1,37c-0.1-0.1-0.3-0.3-0.3-0.5l0-22.5L22,19.1V41.9z M23.2,31.2V20.9
	l9.1,14.8L23.2,31.2z M27.2,25.1l7-11.3L44.5,19L34,36L27.2,25.1z M44.7,41.9C44.7,41.9,44.7,41.9,44.7,41.9
	C44.7,41.9,44.7,41.9,44.7,41.9L34.8,37l9.9-16.1V41.9z"/>
</svg>
