<?xml version="1.0" encoding="utf-8"?>
<!-- Generator: Adobe Illustrator 21.1.0, SVG Export Plug-In . SVG Version: 6.00 Build 0)  -->
<svg version="1.1" id="Layer_1" xmlns="http://www.w3.org/2000/svg" xmlns:xlink="http://www.w3.org/1999/xlink" x="0px" y="0px"
	 viewBox="0 0 56.7 56.7" style="enable-background:new 0 0 56.7 56.7;" xml:space="preserve">
<style type="text/css">
	.st0{fill:#828282;}
</style>
<g>
	<path class="st0" d="M28.3,0C12.7,0,0,12.7,0,28.4C0,44,12.7,56.7,28.3,56.7C44,56.7,56.7,44,56.7,28.4C56.7,12.7,44,0,28.3,0z
		 M42.6,43c0,1.9-1.5,3.4-3.4,3.4H17.5c-1.9,0-3.4-1.5-3.4-3.4V15c0-1.9,1.5-3.4,3.4-3.4h21.7c1.9,0,3.4,1.5,3.4,3.4V43z"/>
</g>
<rect x="19.9" y="18.7" class="st0" width="16.9" height="3.3"/>
<rect x="19.9" y="26.7" class="st0" width="16.9" height="3.3"/>
<rect x="19.9" y="34.7" class="st0" width="10.5" height="3.3"/>
</svg>
