<?xml version="1.0" encoding="utf-8"?>
<!-- Generator: Adobe Illustrator 21.1.0, SVG Export Plug-In . SVG Version: 6.00 Build 0)  -->
<svg version="1.1" id="Layer_1" xmlns="http://www.w3.org/2000/svg" xmlns:xlink="http://www.w3.org/1999/xlink" x="0px" y="0px"
	 viewBox="0 0 1440 956.1" style="enable-background:new 0 0 1440 956.1;" xml:space="preserve">
<style type="text/css">
	.st0{opacity:0.4;fill:#1E2825;enable-background:new    ;}
	.st1{opacity:0.8;fill:#1E2825;enable-background:new    ;}
	.st2{fill:#374945;}
</style>
<title>koi</title>
<g id="Layer_3">
	<circle class="st0" cx="1047.9" cy="386" r="364.5"/>
	<circle class="st0" cx="1047.9" cy="386" r="292.6"/>
	<circle class="st1" cx="1047.9" cy="386" r="223"/>
	<circle class="st2" cx="584.5" cy="81.9" r="5.3"/>
	<circle class="st2" cx="600.3" cy="98.1" r="3.8"/>
	<circle class="st2" cx="579.2" cy="101.9" r="2.7"/>
	<circle class="st2" cx="1376.4" cy="105.6" r="5.3"/>
	<circle class="st2" cx="1051.8" cy="168.3" r="5.3"/>
	<g>
		<circle class="st2" cx="1149.9" cy="768.8" r="3.1"/>
		<circle class="st2" cx="1166.2" cy="761.7" r="2.2"/>
		<circle class="st2" cx="1171.5" cy="776.9" r="5.3"/>
	</g>
	<circle class="st2" cx="803.8" cy="366.3" r="5.3"/>
	<circle class="st2" cx="789.7" cy="348.3" r="2.7"/>
	<circle class="st2" cx="743.8" cy="612.8" r="5.3"/>
	<circle class="st2" cx="766" cy="593.5" r="3.8"/>
	
		<ellipse transform="matrix(0.5246 -0.8514 0.8514 0.5246 157.5365 1098.8873)" class="st2" cx="1062.7" cy="408.4" rx="5.3" ry="5.3"/>
	
		<ellipse transform="matrix(0.5246 -0.8514 0.8514 0.5246 142.9894 1082.3385)" class="st2" cx="1040.6" cy="413.1" rx="3.8" ry="3.8"/>
	
		<ellipse transform="matrix(0.5246 -0.8514 0.8514 0.5246 163.6121 1079.5266)" class="st2" cx="1048.4" cy="393.3" rx="2.7" ry="2.7"/>
	
		<ellipse transform="matrix(0.9648 -0.2629 0.2629 0.9648 -59.0316 131.3993)" class="st2" cx="461.5" cy="286.3" rx="5.3" ry="5.3"/>
	<ellipse transform="matrix(0.9648 -0.2629 0.2629 0.9648 -53.7424 134.3304)" class="st2" cx="475.1" cy="268" rx="2.7" ry="2.7"/>
	<circle class="st1" cx="1047.9" cy="386" r="144.3"/>
</g>
</svg>
