<?xml version="1.0" encoding="utf-8"?>
<!-- Generator: Adobe Illustrator 21.1.0, SVG Export Plug-In . SVG Version: 6.00 Build 0)  -->
<svg version="1.1" id="Layer_1" xmlns="http://www.w3.org/2000/svg" xmlns:xlink="http://www.w3.org/1999/xlink" x="0px" y="0px"
	 viewBox="0 0 1440 956.1" style="enable-background:new 0 0 1440 956.1;" xml:space="preserve">
<style type="text/css">
	.st0{fill:#FFFFFF;}
	.st1{fill:#D3C5BA;}
	.st2{fill:#BB2026;}
	.st3{fill:#261E24;}
	.st4{fill:#C18711;}
	.st5{fill:#F3B51B;}
	.st6{fill:#EAD29D;}
	.st7{fill:#2B2425;}
	.st8{fill:none;}
	.st9{fill:#EAE3DF;}
</style>
<title>koi</title>
<g id="Layer_2">
	<g>
		<path class="st0" d="M1067.9,608c5.9-9.9-1.8-24.2-7.2-34.2c-13.5-25.1-35.6-39-50.4-48.5c-22.6-14.5-27-12.6-54.4-26.9
			c-23-12-55.7-29.3-85.8-60.5c-20.8-21.5-30.4-35.8-35.9-47.5c-3.6-7.7-7-14.9-8.8-25.3c-5.2-31,10.1-56.6,16.4-65.8
			c15.4-22.3,36.6-30.7,35.3-32.8c-1-1.6-13.6,3-24.7,11.2c-10.3,7.6-14.5,14.8-15.7,14c-3-1.8,21-44.3,19.7-45
			c-0.8-0.5-37,39.4-50.9,101.1c-4,17.8-9.2,41-4.2,69.5c6.9,39.5,28.9,63.6,68.7,107.1c46.5,50.9,80.9,70,92.4,76.1
			c6.3,3.3,38.5,19.8,77.8,17.7C1057.6,617.4,1064.7,613.4,1067.9,608z"/>
		<path class="st1" d="M993.5,517.3c-5,2.2-11.7-1.7-15.4-4.8c-4.7-4.2-5.3-8-11.6-22.1c-2.3-5.1-4.3-9.2-5.5-11.8
			c7.1,8.5,9.8,9.8,11,9.2c0.3-0.2,1.1-0.8,0.7-6.9c-0.3-4.4-1.1-8.8-2.3-13c2.3,1.5,4.2,3.4,5.8,5.7c2.7,3.9,3.1,7,3.9,6.9
			c1.1-0.1,1.7-6.2,1-12.1c-0.5-3.9-1.7-7.7-3.6-11.1c1.4,1.1,2.7,2.4,3.9,3.8c3.9,4.9,4.5,10,5,9.9s-0.8-4.9-0.4-11.1
			c0.1-2.5,0.5-5.1,1.2-7.5c0.3,1.3,0.6,3,1,5.2c1,5.7,1.5,10.1,1.8,13.5c0.7,6.6,0.6,8.7,0.8,8.7c0.5,0,1.6-12.2,0.3-26.2
			c-0.1-1.5-0.6-3.5-0.4-3.6c0.4-0.1,2.7,4.7,3.7,10.4c0.6,3.3,0.3,4.9,0.6,5c0.8,0.1,3.6-9.8,3.4-21c0-6.9-1.4-13.7-4-20.1
			c-2.2-5.3-4.7-8.6-4.4-8.8c0.5-0.3,6.4,6.8,11.8,14.9c9.5,14.1,14.9,22.5,14.3,33c-0.4,5.9-2.6,10.6-1.9,10.9c0.2,0.1,1-3.1,3.5-7
			c0.7-1.2,2-3.1,2.4-2.9c0.7,0.3-0.3,5.4-2.6,10.2c-2.5,5.2-6.1,9.6-9.4,15.2c-0.9,1.6-0.6,1.3-7.6,16.5
			C996.4,514.7,995.6,516.3,993.5,517.3z"/>
		<path class="st1" d="M960.2,586.3c2.8,10.5-4.9,20.3-13.2,30.9c-4.9,6.2-10.6,11.6-17,16.2c1.4-2.6,2.8-5.6,2.1-6.1
			c-1-0.8-4.5,3.9-9.8,6.5c-4.7,2.2-9.7,2.2-23.9-0.9c-2.7-0.6-9.8-2.2-23.2-6.1c-12.8-3.7-19.4-6.1-29.8-6.3
			c-3.1-0.1-5.7,0-7.4,0.2c0.9-2.7,2.6-5.1,4.9-6.8c4-2.8,8.7-2.4,10.6-2.3c5.7,0.3,14.7-0.3,29.4-4.3c-2.5,0.2-5.1,0.2-7.6,0.1
			c-6.7-0.4-13.4-2-19.5-4.8c5,1.2,10.1,1.8,15.2,1.9c7.8,0.1,13.1-1.1,13.1-1.4c0-0.3-6.9,1-13.9-2.5c-1-0.5-1.9-1-2.8-1.7
			c4.8,0.9,9.6,1.1,14.5,0.7c2.2-0.2,4.4-0.6,6.6-1c-5.3-1.2-9.8-4.6-12.5-9.3c4.5,1.6,9.2,2.5,14,2.7c4.5,0.2,11.5-0.1,11.5-0.1
			c-5-0.9-9.7-2.5-14.2-4.8c-2-1-3.9-2.3-3.9-2.3c-1.6-1-3.2-2.2-4.7-3.4c5,1,10.1,1.7,15.2,2c7.3,0.4,10.6-0.1,10.6-0.5
			s-5.8-0.1-10.1-4c-0.9-0.8-1.6-1.7-2.2-2.7c3.1,1.6,6.6,2.4,10.1,2.3c5.2-0.3,8.2-2.7,12.4-4.9c6.4-3.1,13.4-4.8,20.6-5
			C945.2,568,957.4,576,960.2,586.3z"/>
		<path class="st1" d="M887.8,525.5c-1.6,5.4-12.9,6.4-24,7.3c-16.4,1.4-32.8-0.2-48.6-4.5l-2-0.6c-12.5-3.7-30-11.3-51.1-28
			c8.4,3.1,10.7,3.5,10.9,3.1s-2.9-1.8-4.7-5.5c-0.4-0.8-0.7-1.7-0.9-2.6c7.9,6.6,17,11.6,26.8,14.7c0.2,0.1,0.4,0.2,0.4,0.1
			c0,0-5.1-2.8-9.5-6.5c-2.3-2-4.3-4.3-6.1-6.8c9.8,5.9,20.9,9.1,32.3,9.2c-3.8-1.7-7.2-4.1-10.2-7c-1.6-1.6-3-3.5-4.2-5.4
			c4.6,3.3,9.9,5.7,15.4,7s10.1,1.2,19.2,1c8.7-0.2,10.3-0.8,16.8-0.5c4.5,0.2,9,0.8,13.4,1.8C875.5,506,889.9,518.5,887.8,525.5z"
			/>
		<path class="st1" d="M811.8,410.7c-5.7,1-13.1-16.8-21.5-37.3c-15.2-36.9-12.2-50.7-11-55.2c2.1-7.8,5.9-14.4,9-19.6
			c5.2-9,11.7-17.1,19.2-24.3c-4,8.7-6.8,17.9-8.4,27.3c-2,11.7-1.5,21.3-1.3,21.3c0.3,0,0.1-4.7,2.6-10.7c0.8-2,1.9-4,3.1-5.8
			c-0.9,6.4-0.5,13,1.2,19.3c1.3-2.7,3.1-5.2,5.2-7.4c0.7-0.7,1.5-1.4,2.3-2.1c-0.7,4.6-1.1,9.2-1.1,13.8c0,0,0,2.9,0.1,5.7
			c0.6,11,6.4,28.3,7.3,31C824.3,385.6,818.1,409.6,811.8,410.7z"/>
		<path class="st1" d="M922.8,499.4c-14.5-19.8-26.9-40.9-37.2-63.2c-3.4-7.5-6.1-18.2-14.6-31.1c-7.1-10.9-10.5-12.1-15.7-22.6
			c-4.6-9.2-7.4-19.2-8.1-29.5c-0.4-6.3,0.1-12.7,1.4-18.9c-1.8,3.3-3.2,6.7-4.2,10.3c-7,25.8,9.9,49.7,14.6,56
			c-6-6.5-10.8-14-14-22.2c-2.3-5.8-8.9-22.7-2.4-41.9c2.7-7.9,7.2-15,13.1-20.9c-4.2,1.6-17.8,7.3-24.3,21.3
			c-4.4,9.6-3.5,18.7-2.7,25.9c1,9,3.8,17.8,8.1,25.8c-9.3-11.2-13.5-25.7-11.5-40.1c-2.1,6.6-2.9,13.6-2.2,20.5
			c1.5,14.2,9,24,14.2,30.7s7.2,7.2,14,14.2c12.3,12.7,18.4,24,22.7,30.9C881.3,456.7,895.1,474.7,922.8,499.4z"/>
		<path id="_Path_" class="st2" d="M930.6,504.5c0.4-4.7-3.7-8.3-14.1-16.8c-23.2-19-36-28.3-42.9-34c-28.2-23.1-32.9-45.7-39-43.5
			c-7.8,2.8-1.5,38.8,4.5,59.7c1.6,5.7,3.5,11.2,5.8,16.7c7.7,9.2,16.6,19.1,26.8,30.2c4.7,2.4,9.9,4.1,15.1,4.9
			C906.6,524.6,929.6,515,930.6,504.5z"/>
		<path class="st1" d="M1066.8,587.1c-1.6,0-2.2-5.4-3.6-5.4s-1.4,5-3.7,11.6c-2.3,6.7-5.4,10.9-4.3,12c0.9,0.8,3.1-1.4,4.5-0.5
			c1,0.6,0.9,2.3,0.6,4.1c3.3-1.2,6.1-3.5,7.9-6.5c3.1-5.2,2.3-11.5,0.2-17.8C1068.1,586,1067.5,587.1,1066.8,587.1z"/>
		<path class="st2" d="M1000.1,525.1c-4.9,0-11.4,2-12.2,5.5c-1.1,5,10.2,10,8.8,14.6c-0.9,2.9-5.5,1.8-7.9,5.7s0.9,7.3-0.2,13.1
			c-1.6,8.7-11.1,9.8-10.7,14.8c0.5,6.3,15.8,4.8,24.5,17.3c3.4,4.9,3.4,8.5,7,9.6c5.3,1.6,8.9-5.3,16.3-4.4
			c5.1,0.6,5.9,4.2,10.5,4.7c7.4,0.8,13.5-7,14.4-8.1c5.6-7.1,4.7-18.5,4.6-21.1c-0.6-8.4-3.4-16.5-8.1-23.5
			c-2.8-4.1-7.9-11.8-13.6-11.4c-1.6,0.3-3.3,0.3-4.9-0.1c-2.2-0.8-4.1-2.3-5.3-4.3C1019.1,531.5,1008.8,525.1,1000.1,525.1z"/>
		<path class="st1" d="M1050.4,613c-0.1,0.1-2.4,1.3-6.9,3.8c-5.4,3-8.5,4.7-12.9,5.9c-1.3,0.3-2.5,0.6-3.8,0.8
			c-2.4,0.3-4.8,0.5-7.2,0.4c-6.8,0.1-13.4,2.1-19,5.7c-3.5,2.3-5.8,5-5.5,5.3c0.2,0.3,4.8-3.2,12.9-5.2c0.8-0.2,1.3-0.3,2.4-0.5
			c4.4-0.8,7.5-0.5,14.5-1.9c6.3-1.2,12.4-3.1,18.3-5.8c4.9-2.3,8.6-4,12.6-7.8c6.1-5.8,9.3-13,8.9-13.3c-0.1-0.1-0.7,0.5-2.1,2
			C1058.9,606.3,1054.8,609.9,1050.4,613z"/>
		<path class="st1" d="M1066.6,595.9c0.6,0.4,5.6-4.2,6.7-10.6c0.1-0.3,0.1-1.1,0.2-2.7c0.4-7.4,0.2-9.4,0.6-12.7
			c0.3-3.7,0.9-4.4,1.7-8.8c1-5.4,2.1-16,1.3-16.1c-0.4-0.1-0.9,2.7-4,13.5c-2.2,7.8-2.4,7.9-2.6,9.7c-0.3,3.4,0.1,5.6-0.3,12.2
			c-0.1,2.1-0.3,3-0.3,3.4c-0.5,2.8-1.2,5.6-2.1,8.3C1066.9,595,1066.4,595.8,1066.6,595.9z"/>
		<path class="st3" d="M916.3,528c3.7,3.7,4.7,7.3,8.7,7.9c3.2,0.5,6.6-1.3,8.7-3.6c3.1-3.5,1.1-6.5,3.9-12.7c2.7-6,5.2-6,6.1-9.9
			c1.5-6.9-4.2-16.8-10.5-17.6c-6.8-0.9-8.4,9.2-19.3,11.6c-9.3,2-15.1-3.7-19.3,0c-2.9,2.6-3.6,8.2-1.7,12.1
			C896.6,523.2,907.2,518.7,916.3,528z"/>
		<path class="st3" d="M960.7,581.9c-1,2.6,2.9,8.1,7.3,8.5c5.7,0.6,8.9-7.4,13.2-6.2c3.8,1,3.2,7.7,6.2,8.3
			c4.5,0.9,12.7-12.6,9.6-16.7c-1.3-1.7-3.6-0.2-10.5-2.2c-5.1-1.5-5.9-2.9-8.3-2.3c-3.4,0.7-3.4,3.7-7.7,6.7
			C965.7,581.5,961.6,579.6,960.7,581.9z"/>
	</g>
	<path class="st4" d="M1355.5,472.2c0.5-0.1,0.4-5.6-2.8-9.6c-0.2-0.2-0.6-0.6-1.5-1.5c-4.2-4.1-5.6-5.1-7.4-7
		c-2.1-2.2-2.2-2.9-4.4-5.6c-2.7-3.4-8.6-9.6-9-9.2c-0.2,0.2,1.2,1.9,6,9.5c3.5,5.5,3.5,5.6,4.5,6.6c1.9,2,3.4,2.9,7.2,6.6
		c1.2,1.2,1.7,1.7,1.9,2c1.4,1.8,2.8,3.7,4,5.6C1355.2,471.5,1355.4,472.2,1355.5,472.2z"/>
	<path class="st4" d="M1339.7,497.3c-1.3,4.2-7.2,6.2-11,6.7c-5,0.7-7.6-1-19.4-4.7c-4.3-1.3-7.8-2.3-10-2.9
		c8.8,0.2,11-0.8,11.3-1.8c0.1-0.3,0.1-1.1-3.8-4c-2.8-2.1-5.8-3.9-9-5.5c2.1-0.6,4.3-0.7,6.5-0.5c3.8,0.4,5.8,1.9,6.2,1.3
		c0.5-0.8-2.9-4.3-6.8-6.9c-2.6-1.7-5.5-3-8.6-3.7c1.4-0.3,2.9-0.4,4.3-0.3c5,0.2,8.4,2.5,8.6,2.2s-3.3-2.1-6.9-5.6
		c-1.5-1.4-2.8-3-3.9-4.7c0.9,0.5,2.1,1.2,3.6,2.1c4,2.4,6.9,4.5,9.1,6c4.3,3,5.5,4.2,5.6,4.1c0.2-0.3-6.5-7.3-15.6-14
		c-1-0.7-2.5-1.5-2.4-1.7s4.2,0.9,8.2,3.2c2.3,1.4,3.1,2.4,3.3,2.2c0.4-0.4-4-7.4-10.9-13c-4.2-3.6-9-6.4-14.2-8.2
		c-4.3-1.4-7.7-1.7-7.6-2c0.1-0.5,7.5-0.2,15.2,0.7c13.5,1.7,21.4,2.9,27.4,8.8c3.4,3.3,5,7.2,5.6,6.9c0.2-0.1-1.3-2.2-2.3-5.8
		c-0.3-1-0.8-2.8-0.5-3c0.5-0.2,3.1,3,4.8,6.9c1.8,4.2,2.5,8.7,4.2,13.7c0.5,1.4,0.4,1,5.9,13.2
		C1339.7,494.2,1340.2,495.5,1339.7,497.3z"/>
	<g>
		<path class="st5" d="M1362.2,475.5c-2.8-8.6-15.1-11.4-23.8-13.3c-21.7-4.9-41.2,0.9-54.3,4.7c-20.1,5.8-21.3,9.4-43.7,18.2
			c-18.8,7.4-45.8,17.7-79.6,19.4c-23.3,1.2-36.6-0.5-46.3-3.2c-6.4-1.8-12.4-3.5-19.4-7.8c-20.9-12.9-28.1-35-30.2-43.4
			c-5.2-20.5,0.7-37.3-1.2-37.6c-1.5-0.2-5.2,9.5-6.1,20.3c-0.8,10,1.3,16.1,0.2,16.4c-2.6,0.8-15.2-35-16.3-34.7
			c-0.7,0.2,4.2,41.9,33.3,81.8c8.4,11.5,19.3,26.5,38.7,38.2c26.8,16.2,52.2,15.6,98.2,14.6c53.7-1.2,82.6-11.6,92.1-15.2
			c5.2-2,31.4-12.4,50.3-36.6C1362.4,486.3,1363.7,480.2,1362.2,475.5z"/>
		<path class="st4" d="M1352,468.2c-0.8,1-4.4-1.5-5.2-0.7s2.2,3.4,5.1,8.3s3.7,9,5,8.9c1-0.1,0.8-2.6,2.1-3
			c0.9-0.2,1.8,0.7,2.8,1.8c1-2.6,1.1-5.5,0.3-8.2c-1.5-4.6-5.7-7.5-10.6-9.5C1352,466.9,1352.4,467.8,1352,468.2z"/>
		<path class="st4" d="M1358,487.8c-0.8,4.5,0.2,5.2-0.4,10.1c-0.5,3.8-1.6,7.5-3.3,10.9c-2,3.9-4,5.8-5.5,7.7
			c-2.8,3.6-5.8,9.6-5.9,20.2c0.6-3.1,1.6-6,2.9-8.9c2.6-5.7,4.5-6.6,8.3-13.1c2.6-4.4,4.7-9.1,6.1-14c1.1-3.8,1.7-7.7,1.9-11.7
			c0.1-1.1,0.4-8.8-0.8-9C1360.5,479.7,1358.8,483.9,1358,487.8z"/>
		<path class="st4" d="M1295.5,532.1c7.8,3.8,9.7,13.6,11.6,24.2c1.1,6.2,1.4,12.5,0.8,18.7c-0.8-2.3-1.9-4.6-2.6-4.5
			c-1,0.2,0,4.8-1.3,9.3c-1.1,4-3.8,7-13.1,13.9c-1.8,1.3-6.5,4.7-15.9,10.8c-9,5.8-13.9,8.5-19.5,14.6c-1.7,1.8-3,3.5-3.8,4.5
			c-1.2-2-1.7-4.2-1.5-6.5c0.4-3.9,3.1-6.5,4.2-7.6c3.2-3.3,7.6-9,12.9-20c-1.2,1.6-2.6,3.2-4,4.6c-3.8,3.8-8.3,7-13.2,9.2
			c3.4-2.4,6.4-5.1,9.2-8.2c4.2-4.7,6.2-8.5,6-8.6s-3,4.7-8.8,7.1c-0.8,0.3-1.6,0.6-2.5,0.8c3-2.4,5.7-5.2,8-8.4
			c1-1.4,2-2.9,2.8-4.5c-3.5,2.5-8,3.5-12.2,2.6c3.3-1.9,6.3-4.3,9-7c2.5-2.6,6-7,6-7c-3.1,2.5-6.6,4.5-10.4,6
			c-1.7,0.7-3.4,1.2-3.4,1.2c-1.5,0.4-3,0.8-4.5,1c3.2-2.5,6.3-5.2,9.2-8.1c4.1-4.2,5.5-6.4,5.3-6.6s-3.1,3.5-7.7,4
			c-0.9,0.1-1.9,0.1-2.8-0.1c2.6-1,4.9-2.7,6.7-4.9c2.5-3.3,2.7-6.4,3.6-10c1.5-5.5,4.2-10.6,7.8-15
			C1276.5,531.5,1287.8,528.3,1295.5,532.1z"/>
		<path class="st4" d="M1220.7,543.6c2.4,3.8-3,11.1-8.2,18.3c-7.8,10.6-17.4,19.7-28.3,26.9l-1.4,0.9c-8.8,5.5-22.6,12.1-43.8,16
			c6.2-3.4,7.7-4.6,7.6-4.9s-2.6,0.8-5.7-0.1c-0.7-0.2-1.4-0.5-2-0.8c8.2-1.2,16-4.1,23-8.4c0.2-0.1,0.3-0.2,0.3-0.2
			s-4.4,1.6-8.9,2.3c-2.4,0.3-4.9,0.4-7.3,0.1c8.7-2.8,16.5-7.8,22.5-14.6c-3,1.4-6.3,2.2-9.6,2.4c-1.8,0.1-3.7,0-5.5-0.3
			c4.4-1.1,8.6-2.9,12.3-5.6c3.7-2.6,6-5.4,10.8-11c4.5-5.3,4.9-6.6,8.5-10.3c2.5-2.6,5.2-5,8.2-7.1
			C1202.6,540.8,1217.7,538.7,1220.7,543.6z"/>
		<path class="st4" d="M1111.7,529c-2.4,4-17-0.9-33.8-6.6c-30.2-10.2-37-19.3-39-22.4c-3.6-5.4-5.5-11.1-7.1-15.7
			c-2.6-7.9-4.1-16-4.5-24.3c3.1,7,7.2,13.5,12,19.4c6,7.3,12,12.1,12.2,12s-2.8-2.5-5.1-7.2c-0.8-1.6-1.4-3.2-1.9-4.9
			c3.4,3.9,7.6,7.1,12.2,9.4c-1-2.2-1.5-4.6-1.7-7c0-0.8,0-1.6,0-2.5c2.4,2.8,5,5.5,7.7,7.9c0,0,1.7,1.5,3.5,2.9
			c6.9,5.5,20.4,11,22.4,11.9C1103.2,508.3,1114.3,524.7,1111.7,529z"/>
		<path class="st4" d="M1223.5,508.9c-19.5-1.7-38.8-5.3-57.6-10.8c-6.3-1.9-14.2-5.9-26.5-7.6c-10.3-1.4-12.8,0-21.8-2.5
			c-8-2-15.4-5.6-22-10.6c-4-3.1-7.6-6.7-10.7-10.8c1,2.8,2.4,5.4,4,7.9c11.8,17.8,35.1,20.2,41.4,20.6c-7.1,0.2-14.1-0.8-20.8-3.2
			c-4.7-1.7-18.4-6.6-26.5-20.6c-3.3-5.8-5.3-12.2-5.7-18.9c-1.3,3.4-5,14.5,0,25.8c3.4,7.7,9.4,11.9,14.2,15.2
			c6,4.1,12.7,7.1,19.8,8.7c-11.6-0.3-22.6-5.4-30.2-14.2c2.9,4.8,6.7,8.9,11.2,12.1c9.3,6.5,19.2,7.2,26,7.6s8.1-0.5,15.9-0.9
			c14.1-0.7,24.2,1.5,30.5,2.6C1176,511.4,1194,512.5,1223.5,508.9z"/>
		<path class="st6" d="M1202.4,511.6c18.3-5.2,36.2-11.6,53.5-19.3c17.2-8,21.1-11.6,33.5-14.8c21.5-5.4,48.8-4.3,52,5.2
			c2.1,6.2-6.7,14.2-16.8,23.4c-20.6,18.8-46.7,26.3-48.6,23c-2.2-4,29.5-20.7,25.9-30.5c-2-5.4-14.9-6.6-25.1-4.4
			c-22.1,4.7-26.3,24.1-42.9,36.5c-37.2,27.9-107.3-1.8-106.8-6.7c0.2-1.8,9.7-1,37.2-4.5C1177.3,517.9,1190,515.2,1202.4,511.6z"/>
		<path class="st7" d="M1281.3,511.3c-0.4-1-3.3-1.1-9.2-1.3c-4.1-0.1-6.2-0.2-6.9,0.8c-0.9,1.4,0.6,3-0.4,4.4
			c-0.8,1.1-2.5,0.8-4.9,1c-3.4,0.4-8.5,2-8.9,4.4c-0.3,1.9,2.3,4.3,4.6,5.3s3.9,0.2,4.7,1.3c1.3,1.7-1.8,4.6-0.7,6.9
			s5.3,2.9,8.5,1.7c4.3-1.7,6.4-7.3,5-9.9c-1.2-2.1-4.4-1.6-4.9-3.6c-0.3-1.3,0.8-2.9,1.8-3.6c1.3-1,2.1-0.4,4.5-1
			c2.2-0.5,4.2-1.7,5.6-3.5C1280.9,513.2,1281.7,512.2,1281.3,511.3z"/>
		<path class="st7" d="M1232.2,500c-0.4-1-3.3-1.1-9.2-1.3c-4.1-0.1-6.2-0.2-6.9,0.8c-0.9,1.4,0.6,3-0.4,4.4c-0.8,1.1-2.5,0.8-4.9,1
			c-3.4,0.4-8.5,2-8.9,4.4c-0.3,1.9,2.3,4.3,4.6,5.3s3.9,0.2,4.7,1.3c1.3,1.7-1.8,4.6-0.7,6.9c1.1,2.3,5.3,2.9,8.5,1.7
			c4.3-1.7,6.4-7.3,5-9.9c-1.2-2.1-4.4-1.6-4.9-3.6c-0.3-1.3,0.8-2.9,1.8-3.6c1.3-1,2.1-0.4,4.5-1c2.2-0.5,4.2-1.7,5.6-3.5
			C1231.7,501.9,1232.6,500.8,1232.2,500z"/>
	</g>
	<g>
		<path class="st0" d="M1022.1,153.9c-5.4,9,1.6,21.9,6.4,30.9c12.2,22.7,32.2,35.2,45.5,43.9c20.4,13.2,24.4,11.4,49.2,24.3
			c20.8,10.8,50.4,26.5,77.6,54.7c18.8,19.5,27.5,32.3,32.5,42.9c3.2,7,6.4,13.5,7.9,22.9c4.7,28.1-9.1,51.2-14.9,59.5
			c-14,20.2-33.1,27.8-31.9,29.7c0.9,1.5,12.3-2.7,22.4-10.1c9.3-6.9,13.1-13.4,14.2-12.7c2.7,1.6-19,40-17.9,40.7
			c0.7,0.4,33.4-35.6,46-91.4c3.6-16.1,8.4-37,3.8-62.9c-6.3-35.8-26.2-57.5-62.1-96.8c-42-45.9-73.1-63.3-83.5-68.8
			c-5.7-3-34.8-17.9-70.3-16C1031.4,145.5,1025,149.1,1022.1,153.9z"/>
		<path class="st1" d="M1089.3,236.1c4.5-2,10.6,1.5,13.9,4.4c4.3,3.7,4.8,7.2,10.5,20c2.1,4.6,3.9,8.4,5,10.6
			c-6.4-7.7-8.9-8.8-9.9-8.3c-0.3,0.2-1.1,0.7-0.6,6.2c0.3,4,1,7.9,2.1,11.8c-2-1.4-3.8-3.1-5.2-5.1c-2.5-3.5-2.8-6.4-3.5-6.3
			c-1,0.1-1.5,5.6-0.9,10.9c0.5,3.5,1.6,6.9,3.3,10.1c-1.3-1-2.5-2.2-3.5-3.5c-3.5-4.4-4.1-9-4.5-8.9s0.7,4.4,0.4,10.1
			c-0.1,2.3-0.5,4.6-1.1,6.8c-0.2-1.1-0.5-2.7-0.9-4.7c-0.9-5.1-1.3-9.2-1.6-12.2c-0.6-5.9-0.5-7.9-0.7-7.9c-0.4,0-1.4,11-0.3,23.7
			c0.1,1.4,0.6,3.2,0.3,3.2s-2.4-4.3-3.3-9.4c-0.5-3-0.3-4.5-0.6-4.5c-0.7-0.1-3.2,8.9-3,19c0,6.2,1.2,12.4,3.6,18.2
			c2,4.8,4.2,7.8,3.9,8s-5.8-6.2-10.7-13.5c-8.6-12.7-13.5-20.3-12.9-29.8c0.3-5.4,2.3-9.6,1.7-9.9c-0.2-0.1-0.9,2.8-3.2,6.3
			c-0.7,1.1-1.8,2.8-2.1,2.6c-0.6-0.3,0.3-4.9,2.3-9.2c2.2-4.7,5.6-8.6,8.5-13.7c0.8-1.5,0.6-1.2,6.8-14.9
			C1086.7,238.4,1087.4,236.9,1089.3,236.1z"/>
		<path class="st1" d="M1119.5,173.6c-2.6-9.5,4.4-18.4,11.9-27.9c4.4-5.6,9.6-10.5,15.3-14.6c-1.3,2.4-2.5,5-1.9,5.5
			c0.9,0.7,4.1-3.6,8.9-5.8c4.3-2,8.8-2,21.6,0.8c2.4,0.5,8.8,2,21,5.5c11.6,3.4,17.6,5.5,27,5.7c2.8,0.1,5.1,0,6.7-0.2
			c-0.8,2.4-2.4,4.6-4.4,6.1c-3.6,2.5-7.9,2.1-9.6,2.1c-5.2-0.3-13.3,0.2-26.6,3.9c2.3-0.2,4.6-0.2,6.9-0.1
			c6.1,0.4,12.1,1.8,17.7,4.4c-4.5-1.1-9.1-1.7-13.8-1.8c-7.1-0.1-11.8,1-11.8,1.3s6.3-0.9,12.6,2.2c0.9,0.4,1.7,0.9,2.5,1.5
			c-4.3-0.8-8.7-1-13.1-0.6c-2,0.2-4,0.5-5.9,0.9c4.8,1.1,8.9,4.2,11.3,8.5c-4.1-1.4-8.4-2.2-12.7-2.5c-4-0.2-10.4,0.1-10.4,0.1
			c4.5,0.8,8.8,2.2,12.9,4.3c1.8,0.9,3.5,2,3.5,2c1.5,0.9,2.9,2,4.3,3.1c-4.5-0.9-9.1-1.5-13.7-1.8c-6.6-0.4-9.6,0.1-9.6,0.4
			s5.3,0,9.1,3.6c0.8,0.7,1.5,1.6,2,2.5c-2.8-1.5-6-2.2-9.2-2.1c-4.7,0.3-7.4,2.5-11.2,4.4c-5.8,2.8-12.2,4.3-18.6,4.5
			C1133.1,190.2,1122,183,1119.5,173.6z"/>
		<path class="st1" d="M1185,228.6c1.5-4.9,11.7-5.8,21.7-6.6c14.8-1.2,29.7,0.2,44,4.1l1.8,0.5c11.3,3.4,27.1,10.2,46.2,25.4
			c-7.5-2.8-9.7-3.2-9.8-2.8c-0.2,0.4,2.6,1.6,4.2,4.9c0.4,0.7,0.6,1.5,0.8,2.3c-7.1-6-15.4-10.5-24.3-13.3
			c-0.2-0.1-0.4-0.2-0.4-0.1c0,0,4.6,2.5,8.6,5.9c2.1,1.8,3.9,3.9,5.5,6.1c-8.8-5.3-18.9-8.2-29.2-8.3c3.4,1.5,6.6,3.7,9.2,6.4
			c1.4,1.5,2.7,3.1,3.8,4.9c-4.2-3-8.9-5.1-13.9-6.4c-5-1.2-9.1-1.1-17.4-1c-7.9,0.1-9.3,0.8-15.2,0.4c-4.1-0.2-8.1-0.7-12.1-1.7
			C1196,246.3,1183.1,234.9,1185,228.6z"/>
		<path class="st1" d="M1253.7,332.4c5.2-0.9,11.8,15.2,19.5,33.7c13.8,33.3,11.1,45.9,10,49.9c-1.9,7.1-5.4,13-8.1,17.7
			c-4.7,8.1-10.6,15.5-17.4,22c3.6-7.9,6.2-16.2,7.6-24.7c1.8-10.6,1.4-19.3,1.2-19.3c-0.2,0-0.1,4.3-2.3,9.7
			c-0.8,1.8-1.7,3.6-2.8,5.2c0.8-5.8,0.4-11.7-1.1-17.4c-1.2,2.5-2.8,4.7-4.7,6.7c-0.7,0.7-1.3,1.3-2.1,1.9c0.6-4.1,1-8.3,1-12.5
			c0,0,0-2.6-0.1-5.1c-0.5-10-5.8-25.6-6.5-27.9C1242.3,355.1,1248,333.4,1253.7,332.4z"/>
		<path class="st1" d="M1153.3,252.2c13.1,17.9,24.4,37,33.7,57.1c3.1,6.8,5.5,16.4,13.2,28.2c6.4,9.8,9.4,10.9,14.2,20.4
			c4.2,8.3,6.7,17.3,7.4,26.6c0.3,5.7-0.1,11.5-1.2,17.1c1.6-3,2.8-6.1,3.7-9.3c6.3-23.3-8.9-44.9-13.2-50.6
			c5.5,5.8,9.8,12.6,12.7,20.1c2.1,5.3,8,20.6,2.1,37.9c-2.5,7.1-6.5,13.6-11.8,18.9c3.8-1.4,16.1-6.5,22-19.2
			c4-8.7,3.2-16.9,2.4-23.4c-0.9-8.2-3.4-16.1-7.3-23.3c8.4,10.1,12.2,23.2,10.4,36.3c1.9-6,2.6-12.3,2-18.5
			c-1.4-12.8-8.2-21.7-12.9-27.8c-4.7-6-6.5-6.5-12.6-12.9c-11.1-11.5-16.7-21.7-20.5-27.9C1190.8,290.8,1178.4,274.6,1153.3,252.2z
			"/>
		<path id="_Path_2" class="st2" d="M1146.3,247.6c-0.4,4.2,3.4,7.5,12.8,15.2c21,17.2,32.5,25.6,38.8,30.7
			c25.5,20.9,29.7,41.3,35.3,39.3c7-2.5,1.3-35-4.1-54c-1.4-5.1-3.2-10.1-5.3-15c-7-8.3-15-17.2-24.2-27.3
			c-4.3-2.2-8.9-3.7-13.7-4.4C1167.9,229.5,1147.1,238.2,1146.3,247.6z"/>
		<path class="st1" d="M1023.1,172.9c1.5,0,2,4.9,3.2,4.9s1.3-4.5,3.3-10.5c2.1-6,4.9-9.9,3.9-10.8c-0.8-0.7-2.8,1.2-4.1,0.4
			c-0.9-0.6-0.8-2.1-0.6-3.7c-3,1.1-5.5,3.2-7.2,5.8c-2.8,4.7-2.1,10.4-0.2,16.1C1021.9,173.9,1022.4,172.9,1023.1,172.9z"/>
		<path class="st2" d="M1083.4,229c4.4,0,10.3-1.8,11-5c1-4.5-9.2-9-7.9-13.2c0.8-2.6,4.9-1.6,7.2-5.1c2.2-3.5-0.8-6.6,0.2-11.8
			c1.5-7.9,10-8.8,9.7-13.3c-0.5-5.7-14.3-4.3-22.2-15.6c-3.1-4.4-3.1-7.7-6.4-8.7c-4.8-1.4-8,4.8-14.7,4c-4.6-0.6-5.3-3.8-9.5-4.3
			c-6.7-0.7-12.2,6.3-13,7.4c-5.1,6.4-4.3,16.7-4.1,19.1c0.6,7.6,3.1,14.9,7.4,21.2c2.5,3.7,7.2,10.6,12.3,10.3
			c1.5-0.3,3-0.3,4.4,0.1c2,0.7,3.7,2.1,4.8,3.9C1066.2,223.2,1075.6,228.9,1083.4,229z"/>
		<path class="st1" d="M1037.9,149.5c0.1-0.1,2.2-1.2,6.2-3.4c4.9-2.7,7.7-4.3,11.7-5.3c1.1-0.3,2.3-0.5,3.4-0.7
			c2.1-0.3,4.3-0.4,6.4-0.4c6.1-0.1,12.1-1.9,17.2-5.2c3.2-2.1,5.2-4.5,5-4.8s-4.3,2.9-11.7,4.7c-0.7,0.2-1.2,0.3-2.2,0.5
			c-4,0.7-6.8,0.4-13.2,1.7c-5.7,1.1-11.2,2.8-16.5,5.2c-4.5,2.1-7.8,3.6-11.4,7.1c-5.5,5.2-8.5,11.8-8.1,12.1
			c0.1,0.1,0.6-0.5,1.9-1.8C1030.2,155.6,1033.9,152.3,1037.9,149.5z"/>
		<path class="st1" d="M1023.2,164.9c-0.5-0.3-5,3.8-6,9.6c0,0.3-0.1,1-0.2,2.5c-0.4,6.7-0.2,8.5-0.5,11.5c-0.3,3.4-0.8,4-1.5,7.9
			c-0.9,4.8-1.8,14.4-1.2,14.6c0.4,0.1,0.8-2.4,3.6-12.2c2-7.1,2.1-7.1,2.3-8.8c0.3-3.1-0.1-5,0.3-11.1c0.1-1.9,0.2-2.7,0.3-3.1
			c0.5-2.5,1.1-5.1,1.8-7.5C1023,165.8,1023.4,165.1,1023.2,164.9z"/>
		<path class="st3" d="M1159.1,226.3c-3.3-3.4-4.3-6.6-7.8-7.1c-3-0.2-5.9,1-7.8,3.2c-2.8,3.2-1,5.8-3.5,11.5
			c-2.4,5.5-4.7,5.4-5.5,9c-1.4,6.2,3.7,15.2,9.5,16c6.1,0.8,7.5-8.3,17.4-10.5c8.4-1.8,13.7,3.4,17.4,0c2.6-2.3,3.2-7.4,1.5-11
			C1177,230.7,1167.4,234.7,1159.1,226.3z"/>
		<path class="st3" d="M1119,177.6c0.9-2.3-2.6-7.3-6.6-7.7c-5.1-0.6-8.1,6.7-12,5.6c-3.4-0.9-2.9-6.9-5.6-7.5
			c-4.1-0.8-11.5,11.4-8.7,15c1.2,1.6,3.2,0.2,9.5,2c4.6,1.3,5.4,2.6,7.5,2.1c3-0.7,3.1-3.4,6.9-6.1
			C1114.5,178,1118.2,179.7,1119,177.6z"/>
	</g>
	<g>
		<path class="st8" d="M990.2-6.1c3.5-2.6,8-3.5,12.2-2.6c-3.3,1.9-6.3,4.3-9,7c-2.5,2.6-6,7-6,7c3.1-2.5,6.6-4.5,10.4-6
			c1.7-0.7,3.4-1.2,3.4-1.2c1.5-0.4,3-0.8,4.5-1c-3.2,2.5-6.3,5.2-9.2,8.1c-4.1,4.2-5.5,6.4-5.3,6.6c0.2,0.2,3.1-3.5,7.7-4
			c0.9-0.1,1.9-0.1,2.8,0.1c-2.6,1-4.9,2.7-6.7,4.9c-2.5,3.3-2.7,6.4-3.6,10c-0.8,3.2-2.1,6.3-3.8,9.2c15.4-2.8,31-4.5,46.7-5.1
			c1.3-3.8,4.8-8.6,8.3-13.4c6.5-8.9,14.3-16.7,23.1-23.3h-73.4C991.6-8.6,990.9-7.4,990.2-6.1z"/>
		<path class="st5" d="M1034.5,31.8c-0.8-1.3-0.7-3-0.1-4.9c-15.7,0.6-31.3,2.3-46.7,5.1c-1.2,2.1-2.5,4-4,5.8
			c-5,6.1-16.2,9.3-24,5.5c-1.5-0.8-2.9-1.8-4.1-3.1c-1.7,0.6-3,1.1-4.1,1.5c-5.2,2-31.4,12.4-50.3,36.6c-1.4,1.8-2.6,3.5-3.6,5
			c0.1,1.4,0,2.8-0.3,4.2c-0.4,2-1,4-1.8,5.9c0.3,0.1,0.6,0.1,0.8,0.1c1.3-0.4,1.1-2.8,2.1-3c1.2-0.2,2.1,3.9,5,8.9s5.7,7.5,5,8.3
			s-4.3-1.7-5.2-0.7c-0.4,0.4,0,1.3,0.5,2.3c4.2,1.6,8.6,2.9,13,3.8c21.7,4.9,41.2-0.9,54.3-4.7c4.5-1.3,9-2.8,13.3-4.5
			c-0.9-2.2-1-3.2-0.6-4.3c1.3-4.2,7.2-6.2,11-6.7c3.2-0.4,5.5,0.1,9.9,1.6c2.9-1.3,6.2-2.7,10.2-4.2c14.8-5.8,34.6-13.4,58.8-17.2
			c-7-1.6-14.9-3.2-23.8-4.5c-0.5,1.3,0.6,2.8-0.2,4c-0.7,1-2.8,1-6.9,0.8c-5.9-0.2-8.9-0.3-9.2-1.3c-0.4-1,0.5-1.9,1.3-2.9l0,0
			c-12.1,4-23.9,8.5-35.5,13.7c-17.2,8-21.1,11.6-33.5,14.8c-21.5,5.4-48.8,4.3-52-5.2c-2.1-6.1,6.7-14.1,16.9-23.4
			c19-17.3,45-27.8,48.6-23s-19.1,21.3-14.9,29c5.5,10.1,54.2,0.4,56.6-15.6c0.3-2-0.1-4-1.1-5.8c-1.4,1.8-5.5,3.1-8.3,3.3
			c-2.4,0.3-4.1-0.1-4.9,1c-1,1.3,0.5,3-0.4,4.4c-0.7,1-2.8,1-6.9,0.8c-5.9-0.2-8.9-0.3-9.2-1.3s0.5-1.9,1.3-2.9
			c1.5-1.7,3.4-2.9,5.6-3.5c2.4-0.7,3.2-0.1,4.5-1c1-0.8,2.1-2.3,1.8-3.6c-0.5-2-3.7-1.5-4.9-3.6c-1.5-2.6,0.7-8.1,5-9.9
			c2-0.8,4.3-0.8,6.4-0.1c10.6-9.6,119.5,6.1,118.4,13.9c-0.7,4.9-22.8-0.6-64.5,9.5c0.4,0.6,0.6,1.3,0.5,1.9
			c-0.1,0.5-0.3,0.9-0.7,1.3c9.1-0.3,18.3,0.3,27.3,1.8c6.3,1.1,16.4,3.3,30.5,2.6c7.8-0.4,9.2-1.3,15.9-0.9s16.6,1,26,7.6
			c4.5,3.2,8.3,7.3,11.2,12.1c-7.6-8.8-18.6-13.9-30.2-14.2c7.1,1.6,13.8,4.6,19.8,8.7c4.8,3.3,10.7,7.6,14.2,15.2
			c0.5,1.1,0.9,2.2,1.2,3.3c5.2,7.7,9,16.2,11.3,25.1c5.2,20.5-0.7,37.3,1.2,37.6c1.5,0.2,5.2-9.5,6.1-20.3
			c0.8-10-1.3-16.1-0.2-16.4c2.6-0.8,15.2,35,16.3,34.7c0.7-0.2-4.1-41.2-32.5-80.7c-6.4-3.5-13.2-6.3-14.7-7
			c-14.5-6.3-25.7-22.7-23-27c0.6-1,2-1.5,4-1.5c-1.8-1.3-3.8-2.5-5.8-3.8c-22.4-13.5-43.8-15.4-77-15c-0.9,0.8-1.8,1.5-2.8,2.1
			C1052.6,34.7,1037.5,36.7,1034.5,31.8z"/>
		<path class="st5" d="M1010.9,46.2c0.6,0.8,1.6,0.6,3,0.8c-1.1-1.1-2.2-2.1-3.1-3.1C1010.5,44.6,1010.5,45.5,1010.9,46.2z"/>
		<path class="st5" d="M898.1,106.5l-0.2-0.1L898.1,106.5z"/>
		<path class="st5" d="M893.1,100.1c-0.7-2.1-0.7-4.4-0.1-6.6c0-0.2,0-0.4,0-0.6c-0.7,2.3-0.6,4.7,0.1,7c0.8,2.2,2.2,4.2,4,5.7
			C895.2,104.2,893.9,102.3,893.1,100.1z"/>
		<path class="st4" d="M903.2,107.2c0.8-1,4.4,1.5,5.2,0.7s-2.2-3.4-5-8.3s-3.7-9-5-8.9c-1,0.1-0.8,2.6-2.1,3
			c-0.3,0.1-0.6,0-0.8-0.1c-0.6,1.3-1.2,2.1-1.6,2.1s-0.6-1-0.8-2.2c-0.6,2.2-0.5,4.5,0.1,6.6c0.7,2.2,2.1,4.1,3.9,5.6
			c0.3,0.3,0.6,0.5,1,0.8l0.2,0.1l0,0c-0.5-2.2-0.5-4-0.2-4.1s0.4,0.6,1.7,2.7c0,0,1,1.7,2.5,3.7c0.5,0.3,1.1,0.5,1.6,0.7v-0.1
			C903.2,108.5,902.8,107.7,903.2,107.2z"/>
		<path class="st4" d="M893.8,95.7c0.4,0.1,1-0.8,1.6-2.1c0.8-1.9,1.4-3.9,1.8-5.9c0.3-1.4,0.4-2.8,0.3-4.2c-0.2-2-0.2-4,0-5.9
			c0.5-3.8,1.6-7.5,3.3-10.9c2-3.9,4-5.8,5.5-7.7c2.8-3.6,5.8-9.6,5.9-20.1c-0.6,3.1-1.6,6-2.9,8.9c-2.6,5.7-4.5,6.6-8.3,13.1
			c-2.6,4.4-4.7,9.1-6.1,14c-1.1,3.8-1.7,7.7-1.9,11.7c-0.1,2.1-0.1,4.2,0,6.3c0,0.2,0,0.4,0,0.6C893.1,94.7,893.4,95.6,893.8,95.7z
			"/>
		<path class="st4" d="M899.7,105.2c-1.3-2.1-1.5-2.7-1.7-2.7s-0.4,1.8,0.2,4.1c0.5,2,1.4,3.9,2.7,5.5c0.2,0.2,0.6,0.6,1.5,1.5
			c4.2,4.1,5.6,5.1,7.4,7c2.1,2.2,2.2,2.9,4.4,5.6c2.7,3.4,8.5,9.6,9,9.2c0.2-0.2-1.2-1.9-6-9.5c-3.5-5.5-3.5-5.6-4.5-6.6
			c-1.9-2-3.4-2.9-7.2-6.6c-1.2-1.2-1.7-1.7-1.9-2c-0.5-0.6-1-1.3-1.5-1.9C900.7,106.9,899.7,105.2,899.7,105.2z"/>
		<path class="st4" d="M994.8,93.1c-3.8,0.5-9.7,2.6-11,6.7c-0.3,1.1-0.2,2,0.6,4.3c0.5,1.3,1.4,3.2,2.6,5.8
			c5.5,12.2,5.5,11.8,5.9,13.2c1.7,4.9,2.3,9.4,4.2,13.7c1.7,3.9,4.3,7.1,4.8,6.9c0.3-0.2-0.2-1.9-0.5-3c-1-3.5-2.5-5.7-2.3-5.8
			c0.5-0.3,2.2,3.5,5.6,6.9c6,5.9,13.9,7.1,27.4,8.8c7.7,1,15.1,1.2,15.2,0.7c0-0.3-3.3-0.6-7.6-2c-5.2-1.8-10-4.6-14.2-8.2
			c-6.8-5.7-11.3-12.6-10.9-13c0.2-0.2,1,0.9,3.3,2.2c3.9,2.4,8,3.6,8.2,3.2s-1.4-1-2.4-1.7c-9.1-6.7-15.9-13.7-15.6-14
			c0.1-0.1,1.3,1.1,5.6,4.1c2.2,1.6,5.1,3.6,9.1,6c1.5,0.9,2.7,1.6,3.6,2.1c-1.1-1.7-2.5-3.2-3.9-4.7c-3.6-3.5-7.1-5.3-6.9-5.6
			s3.6,1.9,8.6,2.2c1.5,0.1,2.9,0,4.3-0.3c-3.1-0.7-6-1.9-8.6-3.7c-3.9-2.6-7.3-6.2-6.8-6.9c0.4-0.5,2.5,0.9,6.2,1.3
			c2.2,0.2,4.4,0,6.5-0.5c-3.2-1.5-6.2-3.3-9-5.4c-3.9-2.9-3.9-3.8-3.8-4c0.2-1,2.4-2,11.3-1.8c-2.2-0.6-5.7-1.5-10-2.9
			s-7.2-2.3-9.6-3.1C1000.2,93.2,998,92.7,994.8,93.1z"/>
		<path class="st4" d="M959.7,43.4c7.7,3.8,18.9,0.6,24-5.5c1.5-1.8,2.8-3.8,4-5.8c1.7-2.9,3-6,3.8-9.2c0.9-3.6,1-6.8,3.6-10
			c1.8-2.2,4.1-3.9,6.7-4.9c-0.9-0.2-1.9-0.2-2.8-0.1c-4.6,0.5-7.4,4.2-7.7,4s1.2-2.5,5.3-6.6c2.9-2.9,5.9-5.6,9.2-8.1
			c-1.5,0.2-3,0.6-4.5,1c0,0-1.7,0.5-3.4,1.2c-3.7,1.5-7.2,3.5-10.4,6c0,0,3.5-4.4,6-7c2.7-2.7,5.7-5.1,9-7
			c-4.3-0.9-8.7,0.1-12.2,2.6c0.7-1.2,1.4-2.4,2.2-3.6h-38.2c-1.5,1.5-2.5,3.4-3.1,5.5c-1.3,4.6-0.3,9.1-1.3,9.3
			c-0.7,0.1-1.8-2.3-2.6-4.5c-0.6,6.2-0.3,12.5,0.8,18.7c1.6,8.4,3,16.3,7.5,21.1C956.8,41.6,958.2,42.7,959.7,43.4z"/>
		<path class="st4" d="M1093.3-9.8h-27.4c-8.8,6.6-16.6,14.5-23.2,23.3c-3.5,4.8-7,9.5-8.3,13.4c-0.7,1.9-0.7,3.6,0.1,4.9
			c3.1,4.9,18.2,2.9,27.5-3.5c1-0.7,1.9-1.4,2.8-2.1c1.9-1.6,3.7-3.2,5.3-5c3.6-3.7,4-5,8.5-10.4c4.7-5.6,7.1-8.4,10.8-11
			c3.7-2.6,7.9-4.5,12.3-5.6c-1.8-0.3-3.6-0.4-5.5-0.3c-3.3,0.2-6.6,1-9.6,2.4C1088.7-5.8,1090.9-7.9,1093.3-9.8z"/>
		<path class="st4" d="M1143.5,46.4c-2.6,4.4,8.5,20.8,23,27c1.4,0.6,8.3,3.5,14.7,7c2.7,1.5,5.3,3.1,7.8,5c1.8,1.4,3.5,2.9,3.5,2.9
			c2.8,2.5,5.3,5.1,7.7,7.9c0-0.8,0-1.6,0-2.5c-0.2-2.4-0.7-4.8-1.7-7c4.7,2.2,8.9,5.4,12.2,9.4c-0.5-1.7-1.1-3.3-1.9-4.9
			c-2.3-4.7-5.3-7-5.1-7.2s6.2,4.7,12.2,12c4.8,5.9,8.9,12.4,12,19.4c-0.4-8.3-1.9-16.5-4.5-24.3c-1.5-4.6-3.5-10.3-7.1-15.7
			c-2.1-3.1-8.8-12.1-39-22.4c-12.6-4.2-23.8-8.1-29.8-8.1C1145.5,45,1144.1,45.4,1143.5,46.4z"/>
		<path class="st4" d="M1163.7,81.9c-6-4.1-12.7-7.1-19.8-8.7c11.6,0.3,22.6,5.4,30.2,14.2c-2.9-4.8-6.7-8.9-11.2-12.1
			c-9.3-6.5-19.2-7.2-26-7.6s-8.1,0.5-15.9,0.9c-14.1,0.7-24.2-1.5-30.5-2.6c-9-1.4-18.2-2-27.3-1.7c-1.6,1.7-5.4,2.9-8.2,3.2
			c-2.4,0.3-4.1-0.1-4.9,1c-0.1,0.1-0.1,0.2-0.2,0.4c8.9,1.3,16.8,2.9,23.8,4.5c5.9,1.4,11.2,2.8,15.8,4.2
			c6.3,1.9,14.2,5.9,26.5,7.6c10.3,1.4,12.8,0,21.8,2.4c8,2,15.4,5.6,22,10.6c4,3.1,7.6,6.7,10.7,10.8c-1-2.8-2.4-5.4-4-7.9
			c-11.8-17.8-35.1-20.2-41.4-20.6c7.1-0.2,14.1,0.8,20.8,3.2c4.7,1.7,18.4,6.6,26.5,20.6c3.3,5.8,5.3,12.2,5.7,18.9
			c1.2-3,4.3-12.4,1.2-22.5c-0.3-1.1-0.7-2.2-1.2-3.3C1174.4,89.4,1168.5,85.2,1163.7,81.9z"/>
		<path class="st6" d="M1040.3,66c2.4-0.7,3.2-0.1,4.5-1c1-0.8,2.1-2.3,1.8-3.6c-0.5-2-3.7-1.5-4.9-3.6c-1.5-2.6,0.7-8.1,5-9.9
			c3.1-1.3,7.4-0.5,8.5,1.7s-2,5.2-0.7,6.9c0.8,1.1,2.3,0.3,4.7,1.3c1.6,0.7,3.1,1.9,4.1,3.3c41.7-10.1,63.9-4.6,64.5-9.5
			c1.1-7.8-107.8-23.5-118.4-13.9c0.8,0.3,1.6,0.9,2,1.7c0.7,1.5-0.2,3.1-0.7,4.6c0.9,1,2,2,3.1,3.1c0.6,0.1,1.2,0.3,1.7,0.5
			c2.3,1,4.9,3.4,4.6,5.3c-0.1,0.4-0.3,0.8-0.5,1.1c1,1.7,1.4,3.8,1.1,5.8c-2.5,16-51.1,25.7-56.6,15.6c-4.2-7.7,18.5-24,14.9-28.9
			s-29.5,5.7-48.5,23c-10.2,9.3-19,17.3-16.8,23.5c3.2,9.5,30.6,10.6,52,5.2c12.4-3.1,16.3-6.8,33.5-14.8
			c11.6-5.2,23.5-9.7,35.5-13.7C1036.2,67.7,1038.2,66.5,1040.3,66z"/>
		<path class="st7" d="M1055,67.4c2.8-0.3,6.6-1.4,8.2-3.2c0.3-0.3,0.6-0.8,0.7-1.3c0.1-0.7-0.1-1.4-0.5-1.9c-1-1.5-2.4-2.6-4.1-3.3
			c-2.4-1-3.9-0.2-4.7-1.3c-1.3-1.7,1.8-4.6,0.7-6.9s-5.3-2.9-8.5-1.7c-4.3,1.7-6.4,7.3-5,9.9c1.2,2.1,4.4,1.6,4.9,3.6
			c0.3,1.3-0.8,2.9-1.8,3.6c-1.3,1-2.1,0.4-4.5,1c-2.2,0.5-4.1,1.7-5.6,3.4l0,0c-0.8,1-1.6,2-1.3,2.9c0.3,0.9,3.3,1.1,9.2,1.3
			c4.1,0.1,6.2,0.2,6.9-0.8c0.8-1.2-0.3-2.8,0.2-4c0.1-0.1,0.1-0.2,0.2-0.4C1050.9,67.2,1052.5,67.6,1055,67.4z"/>
		<path class="st7" d="M1015.6,47.5c-0.5-0.2-1.1-0.4-1.7-0.5c-1.4-0.2-2.4,0-3-0.8c-0.4-0.7-0.4-1.6-0.1-2.3
			c0.5-1.5,1.4-3.1,0.7-4.6c-0.5-0.8-1.2-1.4-2.1-1.7c-2.1-0.8-4.3-0.7-6.4,0.1c-4.3,1.7-6.4,7.3-5,9.9c1.2,2.1,4.4,1.6,4.9,3.6
			c0.3,1.3-0.8,2.9-1.8,3.6c-1.3,1-2.1,0.4-4.5,1c-2.2,0.5-4.2,1.7-5.6,3.5c-0.8,1-1.6,2-1.3,2.9s3.3,1.1,9.2,1.3
			c4.1,0.1,6.2,0.2,6.9-0.8c0.9-1.4-0.6-3,0.4-4.4c0.8-1.1,2.5-0.8,4.9-1c2.9-0.3,6.9-1.5,8.3-3.3c0.3-0.3,0.4-0.7,0.5-1.1
			C1020.5,50.9,1017.9,48.5,1015.6,47.5z"/>
	</g>
	<g>
		<path class="st9" d="M1200.9,943.7c24.5-18.2,35.6-44,37.7-49.1c3.9-9.4,14.9-37.9,17.5-91.2c2.2-45.7,3.5-71-12-98.1
			c-11.2-19.6-25.8-30.8-37-39.5c-38.9-30-80.2-35.9-80.5-35.2c-0.4,1,35,14.5,34.1,17.1c-0.4,1.1-6.4-1.2-16.4-0.6
			c-10.7,0.6-20.5,4.1-20.3,5.5c0.3,1.9,17.1-3.6,37.4,2.1c8.3,2.3,30.2,10.1,42.4,31.2c4.1,7.1,5.6,13.1,7.3,19.5
			c2.5,9.7,3.8,23,2,46.2c-2.6,33.6-13.5,60.2-21.3,78.7c-9.3,22.1-12.9,23.2-19.2,43c-4.1,13-10.4,32.2-6.1,53.9
			c1.8,8.6,4.2,21,12.7,24C1183.9,952.9,1190.1,951.7,1200.9,943.7z"/>
		<path class="st1" d="M1169,856.8c-11.7-5.7-11.3-5.6-12.7-6.1c-4.8-1.8-9.1-2.5-13.2-4.4c-3.7-1.7-6.8-4.3-6.6-4.8
			c0.2-0.3,1.8,0.2,2.8,0.5c3.4,1,5.5,2.6,5.6,2.4c0.3-0.5-3.4-2.2-6.5-5.6c-5.6-5.9-6.5-13.7-7.8-26.8c-0.7-7.5-0.6-14.7-0.3-14.8
			s0.5,3.2,1.8,7.4c1.6,5.1,4.2,9.9,7.6,14c5.4,6.8,12,11.3,12.4,10.9c0.2-0.2-0.8-1-2.1-3.3c-2.2-3.8-3.1-7.9-2.9-8
			s0.9,1.3,1.5,2.3c6.2,9,12.9,15.8,13.2,15.5c0.1-0.1-1-1.3-3.9-5.6c-1.5-2.2-3.4-5.1-5.6-9c-0.8-1.5-1.5-2.7-2-3.6
			c1.6,1.2,3.1,2.5,4.4,3.9c3.3,3.5,4.9,7,5.3,6.8c0.3-0.2-1.8-3.6-1.9-8.4c0-1.4,0.1-2.8,0.4-4.2c0.6,3,1.7,5.9,3.4,8.5
			c2.5,3.9,5.8,7.2,6.5,6.7c0.5-0.3-0.8-2.4-1.1-6.1c-0.2-2.1,0.1-4.2,0.7-6.3c1.4,3.1,3.1,6.1,5.1,8.9c2.7,3.9,3.5,3.8,3.8,3.8
			c1-0.2,2-2.3,2-10.9c0.5,2.1,1.3,5.6,2.5,9.8c3.2,11.6,4.8,14.1,4,19c-0.6,3.7-2.7,9.4-6.8,10.5C1177,860.6,1175.8,860,1169,856.8
			z"/>
		<path class="st1" d="M1239,861.7c4.4-3.4,9.4-5.9,14.8-7.2c3.6-0.8,6.6-0.8,9.8-3.2c2.2-1.7,3.9-3.9,4.9-6.4
			c0.1,0.9,0.2,1.8,0,2.7c-0.6,4.5-4.2,7.2-4.1,7.4c0.2,0.2,2.4-1.1,6.6-5c2.9-2.7,5.6-5.6,8.1-8.7c-0.3,1.5-0.7,3-1.1,4.4
			c0,0-0.5,1.7-1.2,3.3c-1.5,3.6-3.6,6.9-6.2,9.9c0,0,4.3-3.3,6.9-5.7c2.7-2.5,5.1-5.4,7-8.6c0.7,4.2-0.3,8.4-2.8,11.8
			c1.5-0.8,3-1.7,4.4-2.6c3.1-2.1,5.9-4.7,8.3-7.6c-0.2,0.8-0.5,1.6-0.8,2.4c-2.5,5.5-7.2,8.2-7.1,8.4s3.9-1.7,8.5-5.6
			c3-2.6,5.8-5.5,8.2-8.7c-2.3,4.7-5.5,9-9.3,12.5c-1.4,1.3-3,2.6-4.6,3.7c10.8-4.9,16.5-9,19.7-12c1.1-0.9,3.7-3.5,7.5-3.8
			c2.2-0.1,4.4,0.4,6.3,1.6c-1.1,0.7-2.7,2-4.5,3.6c-6.1,5.3-8.9,10-14.7,18.6c-6.1,9-9.5,13.5-10.8,15.1
			c-6.9,8.9-9.9,11.4-13.8,12.4c-4.4,1.1-8.9,0.1-9.1,1c-0.1,0.7,2.1,1.7,4.3,2.6c-6.1,0.4-12.2,0-18.1-1.3
			c-10.2-2.2-19.6-4.2-23.2-11.9C1229.5,877.3,1232.8,866.5,1239,861.7z"/>
		<path class="st1" d="M1250.1,786c2.1-2.8,4.5-5.4,7.1-7.7c3.7-3.4,5-3.8,10.3-8c5.5-4.5,8.4-6.7,11-10.2s4.6-7.6,5.7-11.8
			c0.2,1.8,0.3,3.6,0.2,5.3c-0.3,3.2-1.1,6.4-2.6,9.2c6.8-5.7,11.8-13.2,14.8-21.5c0.2,2.4,0.1,4.7-0.3,7.1
			c-0.8,4.4-2.5,8.6-2.5,8.6s0.1-0.1,0.2-0.3c4.4-6.7,7.3-14.2,8.7-22.1c0.3,0.6,0.6,1.3,0.8,2c0.8,3-0.4,5.4-0.1,5.6
			c0.3,0.2,1.5-1.3,4.9-7.3c-4.3,20.5-11,33.7-16.6,42.1l-0.9,1.3c-7.3,10.4-16.4,19.5-26.9,26.8c-7.1,4.9-14.3,9.9-17.9,7.5
			C1241.4,809.5,1243.7,794.9,1250.1,786z"/>
		<path class="st1" d="M1209,683.4c-0.8-2-5.9-15.2-11-22.1c-1.3-1.8-2.7-3.5-2.7-3.5c-2.3-2.7-4.8-5.3-7.5-7.7c0.8,0,1.6,0,2.4,0.1
			c2.3,0.2,4.6,0.8,6.7,1.8c-2.1-4.6-5.1-8.7-8.8-12.1c1.6,0.5,3.2,1.1,4.7,1.9c4.4,2.3,6.7,5.3,6.8,5.1c0.1-0.1-4.4-6.1-11.3-12.1
			c-5.6-4.9-11.9-9-18.6-12.2c8,0.6,15.9,2.2,23.5,5c4.4,1.6,9.9,3.6,15.1,7.3c2.9,2.1,11.6,8.9,20.7,38.5
			c5.1,16.4,9.5,30.7,5.6,32.9C1230.3,708.9,1214.7,697.6,1209,683.4z"/>
		<path class="st1" d="M1214.3,757.5c-0.9-6.2-2.8-16-1.8-29.7c0.6-7.6,1.5-8.9,1.3-15.4c-0.2-6.6-0.6-16.2-6.7-25.4
			c-3-4.5-6.9-8.3-11.5-11.2c8.3,7.6,13,18.4,13,29.7c-1.4-6.9-4.1-13.5-7.9-19.4c-3.1-4.8-7.1-10.6-14.4-14.1
			c-10.8-5.2-21.7-1.9-25.1-0.7c6.4,0.6,12.7,2.7,18.2,6c13.4,8.2,17.8,21.6,19.3,26.2c2.1,6.5,3,13.4,2.6,20.2
			c-0.3-6.1-2-28.7-19-40.7c-2.4-1.7-4.9-3-7.6-4.1c3.8,3.1,7.3,6.6,10.2,10.6c4.6,6.5,7.9,13.8,9.7,21.6c2.1,8.9,0.7,11.2,1.8,21.3
			c1.3,12,5.1,19.7,6.7,25.9c4.9,18.4,7.9,37.2,9,56.2C1216.5,785.9,1215.9,768.4,1214.3,757.5z"/>
		<path id="_Path_2_1_" class="st2" d="M1244.8,809.8c2.8-3.1,5-6.6,6.6-10.4c0.5-11.7,1-22,1.1-31.3c-1.3-4.4-2.9-8.7-4.8-12.8
			c-6.8-15.5-20.9-40.1-26.9-37.9c-4.8,1.7,3.6,17.5-1.8,45.3c-1.3,6.9-4.4,18.7-8.8,41.6c-2,10.2-2.7,14.5-0.1,17.1
			C1215.8,827.1,1234.3,821.4,1244.8,809.8z"/>
		<path class="st1" d="M1167.3,937.6c1.8,4.8,4.6,9,9,10.6c2.6,0.8,5.4,0.8,7.9-0.1c-1-0.9-1.9-1.9-1.6-2.7c0.4-1.2,2.8-1,2.9-2
			c0.2-1.2-3.8-2.2-8.5-5s-7.1-5.8-8-5.1c-0.8,0.7,1.5,4.2,0.5,5C1169.1,938.5,1168.3,938.1,1167.3,937.6z"/>
		<path class="st2" d="M1171,886.9c0.3,1.8-0.1,3.6-1,5.2c-0.8,1-1.7,1.9-2.9,2.5c-3.6,2.6-2.9,9.8-2.5,13.6
			c0.7,6.5,3,12.7,6.8,18.1c1.2,1.7,6.3,8.9,13.2,10.4c1.1,0.2,8.6,1.9,12.6-2.3c2.5-2.6,1.2-5.1,3.9-8c4-4.2,9.5-1.9,11.9-5.4
			c1.6-2.4-0.2-4.6-0.6-9.2c-1-11.8,8.9-18.5,6.1-22.5c-2.2-3.2-8.4,0.9-13.7-3.5c-3.5-2.9-3.2-6.6-6.6-7.7
			c-3.4-1.1-5.6,1.8-7.6,0.6c-3.2-2,1.1-10.6-2-13.1c-2.2-1.7-7.1,0.3-10,2.8C1173.6,872.4,1170.6,881.3,1171,886.9z"/>
		<path class="st1" d="M1179.6,945.2c-1.6-0.2-2.2-0.3-2.2-0.1c-0.1,0.4,5.5,3.1,12,3.6c4.2,0.3,7.3-0.5,11.4-1.6
			c4.8-1.3,9.4-3.2,13.8-5.6c4.9-2.7,6.6-4.4,9.6-6.1c0.7-0.4,1.1-0.6,1.7-0.9c5.9-2.9,10.3-3,10.3-3.3s-2.6-0.7-5.9-0.4
			c-5.2,0.6-10.1,2.7-14.2,6c-1.4,1.2-2.9,2.3-4.5,3.3c-0.9,0.5-1.7,1-2.7,1.4c-3.2,1.5-5.9,2-10.6,2.9c-3.9,0.8-5.9,1.2-6,1.2
			C1188,945.9,1183.8,945.8,1179.6,945.2z"/>
		<path class="st1" d="M1171.5,941.6c-1.9-1.2-3.6-2.5-5.3-4c-0.2-0.2-0.7-0.7-1.9-1.9c-3.6-3.7-4.4-5.3-6.3-7.1
			c-1-1-1.1-0.9-6.3-4.5c-7.2-4.9-8.8-6.3-9-6.1c-0.4,0.4,5.5,6.3,8.7,9c2.6,2.2,3.3,2.3,5.3,4.4c1.8,1.8,2.7,3.1,6.6,7.3
			c0.9,0.9,1.3,1.3,1.5,1.5c3.8,3.2,9.1,3.5,9.2,3C1174.1,943.2,1173.4,942.9,1171.5,941.6z"/>
		<path class="st3" d="M1238.2,809.4c-0.8-3.3-4-6.3-7-6.4c-4.4-0.2-5,6.2-11.5,9.6c-7.7,4-13.7-1.3-17.3,2.6
			c-3.4,3.7-1.9,12.4,2.5,15.7c2.5,1.9,4,0.7,8.5,2.9c4.7,2.3,5,5.1,8.6,5.7c2.5,0.4,5.1-0.4,7-2.2c2.1-2.3,0.9-5,1.3-9
			C1231.1,818.3,1239.6,815.7,1238.2,809.4z"/>
		<path class="st3" d="M1222.6,885.2c-4,0.3-5.5-1.5-7.9-0.2c-1.7,0.9-1.5,2.1-3.8,5.5c-3.1,4.6-5.2,4.8-5.2,6.5
			c0.2,4,11.7,7.9,14,5.2c1.5-1.9-2.1-5.6-0.4-8c2-2.8,7.9,0.3,11-2.8c2.4-2.5,2-7.7,0.1-8.7
			C1228.8,881.6,1227.2,884.8,1222.6,885.2z"/>
	</g>
</g>
<rect y="11" class="st8" width="1440" height="954.1"/>
</svg>
