<?xml version="1.0" encoding="utf-8"?>
<!-- Generator: Adobe Illustrator 21.1.0, SVG Export Plug-In . SVG Version: 6.00 Build 0)  -->
<svg version="1.1" id="Layer_1" xmlns="http://www.w3.org/2000/svg" xmlns:xlink="http://www.w3.org/1999/xlink" x="0px" y="0px"
	 viewBox="0 0 1440 956.1" style="enable-background:new 0 0 1440 956.1;" xml:space="preserve">
<style type="text/css">
	.st0{fill:none;}
	.st1{fill:#374945;}
	.st2{fill:#3B6135;}
</style>
<rect y="2" class="st0" width="1440" height="954.1"/>
<title>koi</title>
<g id="Layer_3">
	<circle class="st1" cx="1376.4" cy="105.6" r="5.3"/>
	<path class="st2" d="M810.9,28c0,18.6,21.7,30.8,27.6,27.6c3.5-1.9,3.2-10,3.1-12.1c-0.3-8.9-4.9-13.8-3.1-15.5s5.8,2.5,13.6,3.3
		c3.8,0.4,12.1,0.3,14-3.3c2.7-5.1-5.4-20.9-19-26h-18C818.2,6,810.9,16.4,810.9,28z"/>
	<path class="st2" d="M901.9,23.1c3.5-1.9,3.2-10,3.1-12.1c-0.1-3.1-0.7-6.1-1.8-9h-28C879.3,16.9,896.7,25.9,901.9,23.1z"/>
	<path class="st2" d="M865.5,104.6c3.8,0.4,12.1,0.3,14-3.3c3.2-6.1-9.1-27.6-27.6-27.6c-15.3,0-27.6,12.4-27.6,27.6
		c0,18.6,21.7,30.8,27.6,27.6c3.5-1.9,3.2-10,3.1-12.1c-0.3-8.9-4.9-13.8-3.1-15.5S857.7,103.8,865.5,104.6z"/>
	<path class="st2" d="M911,35.5c-15.2,0-27.6,12.4-27.6,27.6c0,18.6,21.7,30.9,27.6,27.6c3.5-1.9,3.2-10,3.1-12.1
		c-0.3-8.9-4.9-13.8-3.1-15.5s5.8,2.5,13.6,3.3c3.8,0.4,12.1,0.3,14-3.3C941.9,57.1,929.6,35.5,911,35.5z"/>
	<path class="st2" d="M881.5,183.2c-0.3-8.9-4.9-13.8-3.1-15.5s5.8,2.5,13.6,3.3c3.8,0.4,12.1,0.3,14-3.3
		c3.2-6.1-9.1-27.6-27.6-27.6c-15.3,0-27.6,12.4-27.6,27.6c0,18.6,21.7,30.8,27.6,27.6C881.8,193.5,881.6,185.4,881.5,183.2z"/>
	<path class="st2" d="M931.9,98.6c-15.3,0-27.6,12.4-27.6,27.6c0,18.6,21.7,30.8,27.6,27.6c3.5-1.9,3.2-10,3.1-12.1
		c-0.3-8.9-4.9-13.8-3.1-15.5s5.8,2.5,13.6,3.3c3.8,0.4,12.1,0.3,14-3.3C962.8,120.1,950.5,98.6,931.9,98.6z"/>
	<path class="st2" d="M952.7,204.2c3.8,0.4,12.1,0.3,14-3.3c3.2-6.1-9.1-27.6-27.6-27.6c-15.3,0-27.6,12.4-27.6,27.6
		c0,18.6,21.7,30.8,27.6,27.6c3.5-1.9,3.2-10,3.1-12.1c-0.3-8.9-4.9-13.8-3.1-15.5S944.9,203.5,952.7,204.2z"/>
	<path class="st2" d="M788.5,60.5c-15.3,0-27.6,12.4-27.6,27.6c0,18.6,21.7,30.8,27.6,27.6c3.5-1.9,3.2-10,3.1-12.1
		c-0.3-8.9-4.9-13.8-3.1-15.5s5.8,2.5,13.6,3.3c3.8,0.4,12.1,0.3,14-3.3C819.3,82,807,60.5,788.5,60.5z"/>
	<path class="st2" d="M785.8,163.6c0,18.6,21.7,30.8,27.6,27.6c3.5-1.9,3.2-10,3.1-12.1c-0.3-8.9-4.9-13.8-3.1-15.5
		s5.8,2.5,13.6,3.3c3.8,0.4,12.1,0.3,14-3.3c3.2-6.1-9.1-27.6-27.6-27.6C798.1,136,785.8,148.3,785.8,163.6z"/>
	<path class="st2" d="M843.4,195.9c-15.3,0-27.6,12.4-27.6,27.6c0,18.6,21.7,30.8,27.6,27.6c3.5-1.9,3.2-10,3.1-12.1
		c-0.3-8.9-4.9-13.8-3.1-15.5s5.8,2.5,13.6,3.3c3.8,0.4,12.1,0.3,14-3.3C874.2,217.4,861.9,195.9,843.4,195.9z"/>
	<path class="st2" d="M753,186.4c3.5-1.9,3.2-10,3.1-12.1c-0.3-8.9-4.9-13.8-3.1-15.5s5.8,2.5,13.6,3.3c3.8,0.4,12.1,0.3,14-3.3
		c3.2-6.1-9.1-27.6-27.6-27.6c-15.3,0-27.6,12.4-27.6,27.6C725.4,177.3,747.1,189.6,753,186.4z"/>
	<path class="st2" d="M770.9,193.8c-15.3,0-27.6,12.4-27.6,27.6c0,18.6,21.7,30.8,27.6,27.6c3.5-1.9,3.2-10,3.1-12.1
		c-0.3-8.9-4.9-13.8-3.1-15.5s5.8,2.5,13.6,3.3c3.8,0.4,12.1,0.3,14-3.3C801.7,215.3,789.4,193.8,770.9,193.8z"/>
	<path class="st2" d="M906.2,281.8c3.5-1.9,3.2-10,3.1-12.1c-0.3-8.9-4.9-13.8-3.1-15.5s5.8,2.5,13.6,3.3c3.8,0.4,12.1,0.3,14-3.3
		c3.2-6.1-9.1-27.6-27.6-27.6c-15.3,0-27.6,12.4-27.6,27.6C878.6,272.7,900.3,285,906.2,281.8z"/>
	<path class="st2" d="M972.4,237.9c-15.3,0-27.6,12.4-27.6,27.6c0,18.6,21.7,30.8,27.6,27.6c3.5-1.9,3.2-10,3.1-12.1
		c-0.3-8.9-4.9-13.8-3.1-15.5s5.8,2.5,13.6,3.3c3.8,0.4,12.1,0.3,14-3.3C1003.2,259.4,990.9,237.9,972.4,237.9z"/>
	<path class="st2" d="M838.9,259.9c-15.3,0-27.6,12.4-27.6,27.6c0,18.6,21.7,30.8,27.6,27.6c3.5-1.9,3.2-10,3.1-12.1
		c-0.3-8.9-4.9-13.8-3.1-15.5s5.8,2.5,13.6,3.3c3.8,0.4,12.1,0.3,14-3.3C869.8,281.5,857.5,259.9,838.9,259.9z"/>
	<path class="st2" d="M915.8,293.9c-15.3,0-27.6,12.4-27.6,27.6c0,18.6,21.7,30.8,27.6,27.6c3.5-1.9,3.2-10,3.1-12.1
		c-0.3-8.9-4.9-13.8-3.1-15.5s5.8,2.5,13.6,3.3c3.8,0.4,12.1,0.3,14-3.3C946.7,315.5,934.4,293.9,915.8,293.9z"/>
	<path class="st2" d="M1366.9,5.6c-15.3,0-27.6,12.4-27.6,27.6c0,18.6,21.7,30.8,27.6,27.6c3.5-1.9,3.2-10,3.1-12.1
		c-0.3-8.9-4.9-13.8-3.1-15.5s5.8,2.5,13.6,3.3c3.8,0.4,12.1,0.3,14-3.3C1397.8,27.2,1385.5,5.6,1366.9,5.6z"/>
	<path class="st2" d="M1430.3,28.3c3.5-1.9,3.2-10,3.1-12.1c-0.2-7.2-3.4-11.8-3.5-14.2h-27.2C1403.7,19.9,1424.5,31.5,1430.3,28.3z
		"/>
	<path class="st2" d="M1439.7,3.2V2h-3.7C1437.3,2.5,1438.5,2.9,1439.7,3.2z"/>
	<path class="st2" d="M1380.3,78.9c-15.3,0-27.6,12.4-27.6,27.6c0,18.6,21.7,30.8,27.6,27.6c3.5-1.9,3.2-10,3.1-12.1
		c-0.3-8.9-4.9-13.8-3.1-15.5s5.8,2.5,13.6,3.3c3.8,0.4,12.1,0.3,14-3.3C1411.2,100.5,1398.9,78.9,1380.3,78.9z"/>
	<path class="st2" d="M1420.3,176.2c3.8,0.4,12.1,0.3,14-3.3c3.2-6.1-9.1-27.6-27.6-27.6c-15.3,0-27.6,12.4-27.6,27.6l0,0
		c0,18.6,21.7,30.8,27.6,27.6c3.5-1.9,3.2-10,3.1-12.1c-0.3-8.9-4.9-13.8-3.1-15.5S1412.5,175.5,1420.3,176.2z"/>
	<path class="st2" d="M1316.9,65.7c-15.3,0-27.6,12.4-27.6,27.6c0,18.6,21.7,30.8,27.6,27.6c3.5-1.9,3.2-10,3.1-12.1
		c-0.3-8.9-4.9-13.8-3.1-15.5s5.8,2.5,13.6,3.3c3.8,0.4,12.1,0.3,14-3.3C1347.7,87.3,1335.4,65.7,1316.9,65.7z"/>
	<path class="st2" d="M1341.8,141.2c-15.3,0-27.6,12.4-27.6,27.6c0,18.6,21.7,30.8,27.6,27.6c3.5-1.9,3.2-10,3.1-12.1
		c-0.3-8.9-4.9-13.8-3.1-15.5s5.8,2.5,13.6,3.3c3.8,0.4,12.1,0.3,14-3.3C1372.6,162.8,1360.3,141.2,1341.8,141.2z"/>
	<path class="st2" d="M1399.4,228.7c3.2-6.1-9.1-27.6-27.6-27.6c-15.3,0-27.6,12.4-27.6,27.6c0,18.6,21.7,30.8,27.6,27.6
		c3.5-1.9,3.2-10,3.1-12.1c-0.3-8.9-4.9-13.8-3.1-15.5s5.8,2.5,13.6,3.3C1389.2,232.4,1397.5,232.3,1399.4,228.7z"/>
	<path class="st2" d="M1253.8,164c0,18.6,21.7,30.8,27.6,27.6c3.5-1.9,3.2-10,3.1-12.1c-0.3-8.9-4.9-13.8-3.1-15.5s5.8,2.5,13.6,3.3
		c3.8,0.4,12.1,0.3,14-3.3c3.2-6.1-9.1-27.6-27.6-27.6C1266.2,136.4,1253.8,148.8,1253.8,164z"/>
	<path class="st2" d="M1312.8,229.9c3.8,0.4,12.1,0.3,14-3.3c3.2-6.1-9.1-27.6-27.6-27.6c-15.3,0-27.6,12.4-27.6,27.6
		c0,18.6,21.7,30.8,27.6,27.6c3.5-1.9,3.2-10,3.1-12.1c-0.3-8.9-4.9-13.8-3.1-15.5S1305,229.1,1312.8,229.9z"/>
	<path class="st2" d="M1407,259.4c0,18.6,21.7,30.8,27.6,27.6c3.5-1.9,3.2-10,3.1-12.1c-0.3-8.9-4.9-13.8-3.1-15.5
		c0.9-0.9,2.5,0,5.1,1v-28.1c-1.7-0.4-3.4-0.5-5.1-0.6C1419.4,231.8,1407,244.1,1407,259.4z"/>
	<path class="st2" d="M1380.9,296c3.8,0.4,12.1,0.3,14-3.3c3.2-6.1-9.1-27.6-27.6-27.6c-15.3,0-27.6,12.4-27.6,27.6
		c0,18.6,21.7,30.8,27.6,27.6c3.5-1.9,3.2-10,3.1-12.1c-0.3-8.9-4.9-13.8-3.1-15.5S1373.1,295.2,1380.9,296z"/>
	<path class="st2" d="M1330.6,544.2c3.5-1.9,3.2-10,3.1-12.1c-0.3-8.9-4.9-13.8-3.1-15.5s5.8,2.5,13.6,3.3c3.8,0.4,12.1,0.3,14-3.3
		c3.2-6.1-9.1-27.6-27.6-27.6c-15.2,0-27.5,12.4-27.5,27.6C1303,535.2,1324.6,547.5,1330.6,544.2z"/>
	<path class="st2" d="M1393.9,456.5c-15.3,0-27.6,12.4-27.6,27.6c0,18.6,21.7,30.8,27.6,27.6c3.5-1.9,3.2-10,3.1-12.1
		c-0.3-8.9-4.9-13.8-3.1-15.5s5.8,2.5,13.6,3.3c3.8,0.4,12.1,0.3,14-3.3C1424.8,478,1412.5,456.5,1393.9,456.5z"/>
	<path class="st2" d="M1357.6,593.2c3.8,0.4,12.1,0.3,14-3.3c3.2-6.1-9.1-27.6-27.6-27.6c-15.3,0-27.6,12.4-27.6,27.6
		c0,18.6,21.7,30.8,27.6,27.6c3.5-1.9,3.2-10,3.1-12.1c-0.3-8.9-4.9-13.8-3.1-15.5S1349.7,592.4,1357.6,593.2z"/>
	<path class="st2" d="M1416.7,555c3.8,0.4,12.1,0.3,14-3.3c3.2-6.1-9.1-27.6-27.6-27.6c-15.3,0-27.6,12.4-27.6,27.6
		c0,18.6,21.7,30.8,27.6,27.6c3.5-1.9,3.2-10,3.1-12.1c-0.3-8.9-4.9-13.8-3.1-15.5S1408.8,554.2,1416.7,555z"/>
	<path class="st2" d="M1373.5,671.9c-0.3-8.9-4.9-13.8-3.1-15.5s5.8,2.5,13.6,3.3c3.8,0.4,12.1,0.3,14-3.3
		c3.2-6.1-9.1-27.6-27.6-27.6c-15.3,0-27.6,12.4-27.6,27.6c0,18.6,21.7,30.8,27.6,27.6C1373.9,682.1,1373.6,674,1373.5,671.9z"/>
	<path class="st2" d="M1396.4,614.8c0,18.6,21.7,30.8,27.6,27.6c3.5-1.9,3.2-10,3.1-12.1c-0.3-8.9-4.9-13.8-3.1-15.5
		s5.8,2.5,13.6,3.3c0.6,0.1,1.4,0.1,2.2,0.1v-25.5c-4.5-3.5-10-5.5-15.8-5.5C1408.7,587.2,1396.4,599.5,1396.4,614.8z"/>
	<path class="st2" d="M1403.6,689.6c0,18.6,21.7,30.8,27.6,27.6c3.5-1.9,3.2-10,3.1-12.1c-0.3-8.9-4.9-13.8-3.1-15.5
		c1.3-1.2,3.9,0.8,8.6,2.2v-28.3c-2.7-1-5.6-1.6-8.6-1.6C1415.9,662,1403.6,674.3,1403.6,689.6L1403.6,689.6z"/>
	<path class="st2" d="M1280.5,604.3c3.5-1.9,3.2-10,3.1-12.1c-0.3-8.9-4.9-13.8-3.1-15.5s5.8,2.5,13.6,3.3c3.8,0.4,12.1,0.3,14-3.3
		c3.2-6.1-9.1-27.6-27.6-27.6c-15.3,0-27.6,12.4-27.6,27.6C1252.9,595.3,1274.6,607.6,1280.5,604.3z"/>
	<path class="st2" d="M1319,655.5c3.8,0.4,12.1,0.3,14-3.3c3.2-6.1-9.1-27.6-27.6-27.6c-15.3,0-27.6,12.4-27.6,27.6
		c0,18.6,21.7,30.8,27.6,27.6c3.5-1.9,3.2-10,3.1-12.1c-0.3-8.9-4.9-13.8-3.1-15.5S1311.2,654.7,1319,655.5z"/>
	<path class="st2" d="M1245.1,675c3.5-1.9,3.2-10,3.1-12.1c-0.3-8.9-4.9-13.8-3.1-15.5s5.8,2.5,13.6,3.3c3.8,0.4,12.1,0.3,14-3.3
		c3.2-6.1-9.1-27.6-27.6-27.6c-15.3,0-27.6,12.4-27.6,27.6C1217.5,666,1239.2,678.2,1245.1,675z"/>
	<path class="st2" d="M1262.9,682.4c-15.2,0-27.6,12.4-27.6,27.6c0,18.6,21.7,30.8,27.6,27.6c3.5-1.9,3.2-10,3.1-12.1
		c-0.3-8.9-4.9-13.8-3.1-15.5s5.8,2.5,13.6,3.3c3.8,0.4,12.1,0.3,14-3.3C1293.8,704,1281.5,682.4,1262.9,682.4z"/>
	<path class="st2" d="M1398.3,715.1c-15.3,0-27.6,12.4-27.6,27.6c0,18.6,21.7,30.8,27.6,27.6c3.5-1.9,3.2-10,3.1-12.1
		c-0.3-8.9-4.9-13.8-3.1-15.5s5.8,2.5,13.6,3.3c3.8,0.4,12.1,0.3,14-3.3C1429.1,736.7,1416.8,715.1,1398.3,715.1z"/>
	<path class="st2" d="M1386.7,782.9c-15.3,0-27.6,12.4-27.6,27.6c0,18.6,21.7,30.8,27.6,27.6c3.5-1.9,3.2-10,3.1-12.1
		c-0.3-8.9-4.9-13.8-3.1-15.5s5.8,2.5,13.6,3.3c3.8,0.4,12.1,0.3,14-3.3C1417.6,804.5,1405.3,782.9,1386.7,782.9z"/>
	<path class="st2" d="M1335.4,739.7c3.5-1.9,3.2-10,3.1-12.1c-0.3-8.9-4.9-13.8-3.1-15.5s5.8,2.5,13.6,3.3c3.8,0.4,12.1,0.3,14-3.3
		c3.2-6.1-9.1-27.6-27.6-27.6c-15.3,0-27.6,12.4-27.6,27.6C1307.8,730.7,1329.5,743,1335.4,739.7z"/>
	<path class="st2" d="M1332.9,750.5c-15.3,0-27.6,12.4-27.6,27.6c0,18.6,21.7,30.8,27.6,27.6c3.5-1.9,3.2-10,3.1-12.1
		c-0.3-8.9-4.9-13.8-3.1-15.5s5.8,2.5,13.6,3.3c3.8,0.4,12.1,0.3,14-3.3C1363.8,772,1351.5,750.5,1332.9,750.5z"/>
	<path class="st2" d="M1308.3,816.8c-15.3,0-27.6,12.4-27.6,27.6c0,18.6,21.7,30.8,27.6,27.6c3.5-1.9,3.2-10,3.1-12.1
		c-0.3-8.9-4.9-13.8-3.1-15.5s5.8,2.5,13.6,3.3c3.8,0.4,12.1,0.3,14-3.3C1339.2,838.3,1326.9,816.8,1308.3,816.8z"/>
	<path class="st2" d="M1254.5,784.3c-15.3,0-27.6,12.4-27.6,27.6c0,18.6,21.7,30.8,27.6,27.6c3.5-1.9,3.2-10,3.1-12.1
		c-0.3-8.9-4.9-13.8-3.1-15.5s5.8,2.5,13.6,3.3c3.8,0.4,12.1,0.3,14-3.3C1285.4,805.9,1273.1,784.3,1254.5,784.3z"/>
</g>
</svg>
