<?xml version="1.0" encoding="utf-8"?>
<!-- Generator: Adobe Illustrator 21.1.0, SVG Export Plug-In . SVG Version: 6.00 Build 0)  -->
<svg version="1.1" id="Layer_1" xmlns="http://www.w3.org/2000/svg" xmlns:xlink="http://www.w3.org/1999/xlink" x="0px" y="0px"
	 viewBox="0 0 1440 956.1" style="enable-background:new 0 0 1440 956.1;" xml:space="preserve">
<style type="text/css">
	.st0{opacity:0.4;fill:#1E2825;enable-background:new    ;}
	.st1{opacity:0.8;fill:#1E2825;enable-background:new    ;}
	.st2{fill:#374945;}
	.st3{fill:#3B6135;}
	.st4{fill:#FFFFFF;}
	.st5{fill:#D3C5BA;}
	.st6{fill:#BB2026;}
	.st7{fill:#261E24;}
	.st8{fill:#C18711;}
	.st9{fill:#F3B51B;}
	.st10{fill:#EAD29D;}
	.st11{fill:#2B2425;}
	.st12{fill:none;}
	.st13{fill:#EAE3DF;}
</style>
<title>koi</title>
<g id="Layer_3">
	<circle class="st0" cx="1047.9" cy="386" r="364.5"/>
	<circle class="st0" cx="1047.9" cy="386" r="292.6"/>
	<circle class="st1" cx="1047.9" cy="386" r="192.2"/>
	<circle class="st2" cx="584.5" cy="81.9" r="5.3"/>
	<circle class="st2" cx="600.3" cy="98.1" r="3.8"/>
	<circle class="st2" cx="579.2" cy="101.9" r="2.7"/>
	<circle class="st2" cx="1376.4" cy="105.6" r="5.3"/>
	<circle class="st2" cx="1051.8" cy="168.3" r="5.3"/>
	<circle class="st2" cx="1137.2" cy="786.1" r="3.1"/>
	<circle class="st2" cx="1153.5" cy="779.1" r="2.2"/>
	<circle class="st2" cx="1158.8" cy="794.3" r="5.3"/>
	<circle class="st2" cx="803.8" cy="366.3" r="5.3"/>
	<circle class="st2" cx="789.7" cy="348.3" r="2.7"/>
	<circle class="st2" cx="743.8" cy="612.8" r="5.3"/>
	<circle class="st2" cx="766" cy="593.5" r="3.8"/>
	
		<ellipse transform="matrix(0.5246 -0.8514 0.8514 0.5246 157.5321 1098.8405)" class="st2" cx="1062.6" cy="408.4" rx="5.3" ry="5.3"/>
	
		<ellipse transform="matrix(0.5246 -0.8514 0.8514 0.5246 142.8957 1082.3423)" class="st2" cx="1040.6" cy="413.2" rx="3.8" ry="3.8"/>
	
		<ellipse transform="matrix(0.5246 -0.8514 0.8514 0.5246 163.5403 1079.5519)" class="st2" cx="1048.4" cy="393.3" rx="2.7" ry="2.7"/>
	<path class="st3" d="M810.9,28c0,18.6,21.7,30.8,27.6,27.6c3.5-1.9,3.2-10,3.1-12.1c-0.3-8.9-4.9-13.8-3.1-15.5s5.8,2.5,13.6,3.3
		c3.8,0.4,12.1,0.3,14-3.3c2.7-5.1-5.4-20.9-19-26h-18C818.2,6,810.9,16.4,810.9,28z"/>
	<path class="st3" d="M901.9,23.1c3.5-1.9,3.2-10,3.1-12.1c-0.1-3.1-0.7-6.1-1.8-9h-28C879.3,16.9,896.7,25.9,901.9,23.1z"/>
	<path class="st3" d="M865.5,104.6c3.8,0.4,12.1,0.3,14-3.3c3.2-6.1-9.1-27.6-27.6-27.6c-15.3,0-27.6,12.4-27.6,27.6
		c0,18.6,21.7,30.8,27.6,27.6c3.5-1.9,3.2-10,3.1-12.1c-0.3-8.9-4.9-13.8-3.1-15.5S857.7,103.8,865.5,104.6z"/>
	<path class="st3" d="M911,35.5c-15.2,0-27.6,12.4-27.6,27.6c0,18.6,21.7,30.9,27.6,27.6c3.5-1.9,3.2-10,3.1-12.1
		c-0.3-8.9-4.9-13.8-3.1-15.5s5.8,2.5,13.6,3.3c3.8,0.4,12.1,0.3,14-3.3C941.9,57.1,929.6,35.5,911,35.5z"/>
	<path class="st3" d="M881.5,183.2c-0.3-8.9-4.9-13.8-3.1-15.5s5.8,2.5,13.6,3.3c3.8,0.4,12.1,0.3,14-3.3
		c3.2-6.1-9.1-27.6-27.6-27.6c-15.3,0-27.6,12.4-27.6,27.6c0,18.6,21.7,30.8,27.6,27.6C881.8,193.5,881.6,185.4,881.5,183.2z"/>
	<path class="st3" d="M931.9,98.6c-15.3,0-27.6,12.4-27.6,27.6c0,18.6,21.7,30.8,27.6,27.6c3.5-1.9,3.2-10,3.1-12.1
		c-0.3-8.9-4.9-13.8-3.1-15.5s5.8,2.5,13.6,3.3c3.8,0.4,12.1,0.3,14-3.3C962.8,120.1,950.5,98.6,931.9,98.6z"/>
	<path class="st3" d="M952.7,204.2c3.8,0.4,12.1,0.3,14-3.3c3.2-6.1-9.1-27.6-27.6-27.6c-15.3,0-27.6,12.4-27.6,27.6
		c0,18.6,21.7,30.8,27.6,27.6c3.5-1.9,3.2-10,3.1-12.1c-0.3-8.9-4.9-13.8-3.1-15.5S944.9,203.5,952.7,204.2z"/>
	<path class="st3" d="M788.5,60.5c-15.3,0-27.6,12.4-27.6,27.6c0,18.6,21.7,30.8,27.6,27.6c3.5-1.9,3.2-10,3.1-12.1
		c-0.3-8.9-4.9-13.8-3.1-15.5s5.8,2.5,13.6,3.3c3.8,0.4,12.1,0.3,14-3.3C819.3,82,807,60.5,788.5,60.5z"/>
	<path class="st3" d="M785.8,163.6c0,18.6,21.7,30.8,27.6,27.6c3.5-1.9,3.2-10,3.1-12.1c-0.3-8.9-4.9-13.8-3.1-15.5
		s5.8,2.5,13.6,3.3c3.8,0.4,12.1,0.3,14-3.3c3.2-6.1-9.1-27.6-27.6-27.6C798.1,136,785.8,148.3,785.8,163.6z"/>
	<path class="st3" d="M843.4,195.9c-15.3,0-27.6,12.4-27.6,27.6c0,18.6,21.7,30.8,27.6,27.6c3.5-1.9,3.2-10,3.1-12.1
		c-0.3-8.9-4.9-13.8-3.1-15.5s5.8,2.5,13.6,3.3c3.8,0.4,12.1,0.3,14-3.3C874.2,217.4,861.9,195.9,843.4,195.9z"/>
	<path class="st3" d="M753,186.4c3.5-1.9,3.2-10,3.1-12.1c-0.3-8.9-4.9-13.8-3.1-15.5s5.8,2.5,13.6,3.3c3.8,0.4,12.1,0.3,14-3.3
		c3.2-6.1-9.1-27.6-27.6-27.6c-15.3,0-27.6,12.4-27.6,27.6C725.4,177.3,747.1,189.6,753,186.4z"/>
	<path class="st3" d="M770.9,193.8c-15.3,0-27.6,12.4-27.6,27.6c0,18.6,21.7,30.8,27.6,27.6c3.5-1.9,3.2-10,3.1-12.1
		c-0.3-8.9-4.9-13.8-3.1-15.5s5.8,2.5,13.6,3.3c3.8,0.4,12.1,0.3,14-3.3C801.7,215.3,789.4,193.8,770.9,193.8z"/>
	<path class="st3" d="M906.2,281.8c3.5-1.9,3.2-10,3.1-12.1c-0.3-8.9-4.9-13.8-3.1-15.5s5.8,2.5,13.6,3.3c3.8,0.4,12.1,0.3,14-3.3
		c3.2-6.1-9.1-27.6-27.6-27.6c-15.3,0-27.6,12.4-27.6,27.6C878.6,272.7,900.3,285,906.2,281.8z"/>
	<path class="st3" d="M972.4,237.9c-15.3,0-27.6,12.4-27.6,27.6c0,18.6,21.7,30.8,27.6,27.6c3.5-1.9,3.2-10,3.1-12.1
		c-0.3-8.9-4.9-13.8-3.1-15.5s5.8,2.5,13.6,3.3c3.8,0.4,12.1,0.3,14-3.3C1003.2,259.4,990.9,237.9,972.4,237.9z"/>
	<path class="st3" d="M838.9,259.9c-15.3,0-27.6,12.4-27.6,27.6c0,18.6,21.7,30.8,27.6,27.6c3.5-1.9,3.2-10,3.1-12.1
		c-0.3-8.9-4.9-13.8-3.1-15.5s5.8,2.5,13.6,3.3c3.8,0.4,12.1,0.3,14-3.3C869.8,281.5,857.5,259.9,838.9,259.9z"/>
	<path class="st3" d="M915.8,293.9c-15.3,0-27.6,12.4-27.6,27.6c0,18.6,21.7,30.8,27.6,27.6c3.5-1.9,3.2-10,3.1-12.1
		c-0.3-8.9-4.9-13.8-3.1-15.5s5.8,2.5,13.6,3.3c3.8,0.4,12.1,0.3,14-3.3C946.7,315.5,934.4,293.9,915.8,293.9z"/>
	<path class="st3" d="M1366.9,5.6c-15.3,0-27.6,12.4-27.6,27.6c0,18.6,21.7,30.8,27.6,27.6c3.5-1.9,3.2-10,3.1-12.1
		c-0.3-8.9-4.9-13.8-3.1-15.5s5.8,2.5,13.6,3.3c3.8,0.4,12.1,0.3,14-3.3C1397.8,27.2,1385.5,5.6,1366.9,5.6z"/>
	<path class="st3" d="M1430.3,28.3c3.5-1.9,3.2-10,3.1-12.1c-0.2-7.2-3.4-11.8-3.5-14.2h-27.2C1403.7,19.9,1424.5,31.5,1430.3,28.3z
		"/>
	<path class="st3" d="M1439.7,3.2V2h-3.7C1437.3,2.5,1438.5,2.9,1439.7,3.2z"/>
	<path class="st3" d="M1380.3,78.9c-15.3,0-27.6,12.4-27.6,27.6c0,18.6,21.7,30.8,27.6,27.6c3.5-1.9,3.2-10,3.1-12.1
		c-0.3-8.9-4.9-13.8-3.1-15.5s5.8,2.5,13.6,3.3c3.8,0.4,12.1,0.3,14-3.3C1411.2,100.5,1398.9,78.9,1380.3,78.9z"/>
	<path class="st3" d="M1420.3,176.2c3.8,0.4,12.1,0.3,14-3.3c3.2-6.1-9.1-27.6-27.6-27.6c-15.3,0-27.6,12.4-27.6,27.6c0,0,0,0,0,0
		c0,18.6,21.7,30.8,27.6,27.6c3.5-1.9,3.2-10,3.1-12.1c-0.3-8.9-4.9-13.8-3.1-15.5S1412.5,175.5,1420.3,176.2z"/>
	<path class="st3" d="M1316.9,65.7c-15.3,0-27.6,12.4-27.6,27.6c0,18.6,21.7,30.8,27.6,27.6c3.5-1.9,3.2-10,3.1-12.1
		c-0.3-8.9-4.9-13.8-3.1-15.5s5.8,2.5,13.6,3.3c3.8,0.4,12.1,0.3,14-3.3C1347.7,87.3,1335.4,65.7,1316.9,65.7z"/>
	<path class="st3" d="M1341.8,141.2c-15.3,0-27.6,12.4-27.6,27.6c0,18.6,21.7,30.8,27.6,27.6c3.5-1.9,3.2-10,3.1-12.1
		c-0.3-8.9-4.9-13.8-3.1-15.5s5.8,2.5,13.6,3.3c3.8,0.4,12.1,0.3,14-3.3C1372.6,162.8,1360.3,141.2,1341.8,141.2z"/>
	<path class="st3" d="M1399.4,228.7c3.2-6.1-9.1-27.6-27.6-27.6c-15.3,0-27.6,12.4-27.6,27.6c0,18.6,21.7,30.8,27.6,27.6
		c3.5-1.9,3.2-10,3.1-12.1c-0.3-8.9-4.9-13.8-3.1-15.5s5.8,2.5,13.6,3.3C1389.2,232.4,1397.5,232.3,1399.4,228.7z"/>
	<path class="st3" d="M1253.8,164c0,18.6,21.7,30.8,27.6,27.6c3.5-1.9,3.2-10,3.1-12.1c-0.3-8.9-4.9-13.8-3.1-15.5s5.8,2.5,13.6,3.3
		c3.8,0.4,12.1,0.3,14-3.3c3.2-6.1-9.1-27.6-27.6-27.6C1266.2,136.4,1253.8,148.8,1253.8,164z"/>
	<path class="st3" d="M1312.8,229.9c3.8,0.4,12.1,0.3,14-3.3c3.2-6.1-9.1-27.6-27.6-27.6c-15.3,0-27.6,12.4-27.6,27.6
		c0,18.6,21.7,30.8,27.6,27.6c3.5-1.9,3.2-10,3.1-12.1c-0.3-8.9-4.9-13.8-3.1-15.5S1305,229.1,1312.8,229.9z"/>
	<path class="st3" d="M1407,259.4c0,18.6,21.7,30.8,27.6,27.6c3.5-1.9,3.2-10,3.1-12.1c-0.3-8.9-4.9-13.8-3.1-15.5
		c0.9-0.9,2.5,0,5.1,1v-28.1c-1.7-0.4-3.4-0.5-5.1-0.6C1419.4,231.8,1407,244.1,1407,259.4z"/>
	<path class="st3" d="M1380.9,296c3.8,0.4,12.1,0.3,14-3.3c3.2-6.1-9.1-27.6-27.6-27.6c-15.3,0-27.6,12.4-27.6,27.6
		c0,18.6,21.7,30.8,27.6,27.6c3.5-1.9,3.2-10,3.1-12.1c-0.3-8.9-4.9-13.8-3.1-15.5S1373.1,295.2,1380.9,296z"/>
	<path class="st3" d="M1330.6,544.2c3.5-1.9,3.2-10,3.1-12.1c-0.3-8.9-4.9-13.8-3.1-15.5s5.8,2.5,13.6,3.3c3.8,0.4,12.1,0.3,14-3.3
		c3.2-6.1-9.1-27.6-27.6-27.6c-15.2,0-27.5,12.4-27.5,27.6C1303,535.2,1324.6,547.5,1330.6,544.2z"/>
	<path class="st3" d="M1393.9,456.5c-15.3,0-27.6,12.4-27.6,27.6c0,18.6,21.7,30.8,27.6,27.6c3.5-1.9,3.2-10,3.1-12.1
		c-0.3-8.9-4.9-13.8-3.1-15.5s5.8,2.5,13.6,3.3c3.8,0.4,12.1,0.3,14-3.3C1424.8,478,1412.5,456.5,1393.9,456.5z"/>
	<path class="st3" d="M1357.6,593.2c3.8,0.4,12.1,0.3,14-3.3c3.2-6.1-9.1-27.6-27.6-27.6c-15.3,0-27.6,12.4-27.6,27.6
		c0,18.6,21.7,30.8,27.6,27.6c3.5-1.9,3.2-10,3.1-12.1c-0.3-8.9-4.9-13.8-3.1-15.5S1349.7,592.4,1357.6,593.2z"/>
	<path class="st3" d="M1416.7,555c3.8,0.4,12.1,0.3,14-3.3c3.2-6.1-9.1-27.6-27.6-27.6c-15.3,0-27.6,12.4-27.6,27.6
		c0,18.6,21.7,30.8,27.6,27.6c3.5-1.9,3.2-10,3.1-12.1c-0.3-8.9-4.9-13.8-3.1-15.5S1408.8,554.2,1416.7,555z"/>
	<path class="st3" d="M1373.5,671.9c-0.3-8.9-4.9-13.8-3.1-15.5s5.8,2.5,13.6,3.3c3.8,0.4,12.1,0.3,14-3.3
		c3.2-6.1-9.1-27.6-27.6-27.6c-15.3,0-27.6,12.4-27.6,27.6c0,18.6,21.7,30.8,27.6,27.6C1373.9,682.1,1373.6,674,1373.5,671.9z"/>
	<path class="st3" d="M1396.4,614.8c0,18.6,21.7,30.8,27.6,27.6c3.5-1.9,3.2-10,3.1-12.1c-0.3-8.9-4.9-13.8-3.1-15.5
		s5.8,2.5,13.6,3.3c0.6,0.1,1.4,0.1,2.2,0.1v-25.5c-4.5-3.5-10-5.5-15.8-5.5C1408.7,587.2,1396.4,599.5,1396.4,614.8z"/>
	<path class="st3" d="M1403.6,689.6c0,18.6,21.7,30.8,27.6,27.6c3.5-1.9,3.2-10,3.1-12.1c-0.3-8.9-4.9-13.8-3.1-15.5
		c1.3-1.2,3.9,0.8,8.6,2.2v-28.3c-2.7-1-5.6-1.6-8.6-1.6C1415.9,662,1403.6,674.3,1403.6,689.6
		C1403.6,689.6,1403.6,689.6,1403.6,689.6z"/>
	<path class="st3" d="M1280.5,604.3c3.5-1.9,3.2-10,3.1-12.1c-0.3-8.9-4.9-13.8-3.1-15.5s5.8,2.5,13.6,3.3c3.8,0.4,12.1,0.3,14-3.3
		c3.2-6.1-9.1-27.6-27.6-27.6c-15.3,0-27.6,12.4-27.6,27.6C1252.9,595.3,1274.6,607.6,1280.5,604.3z"/>
	<path class="st3" d="M1319,655.5c3.8,0.4,12.1,0.3,14-3.3c3.2-6.1-9.1-27.6-27.6-27.6c-15.3,0-27.6,12.4-27.6,27.6
		c0,18.6,21.7,30.8,27.6,27.6c3.5-1.9,3.2-10,3.1-12.1c-0.3-8.9-4.9-13.8-3.1-15.5S1311.2,654.7,1319,655.5z"/>
	<path class="st3" d="M1245.1,675c3.5-1.9,3.2-10,3.1-12.1c-0.3-8.9-4.9-13.8-3.1-15.5s5.8,2.5,13.6,3.3c3.8,0.4,12.1,0.3,14-3.3
		c3.2-6.1-9.1-27.6-27.6-27.6c-15.3,0-27.6,12.4-27.6,27.6C1217.5,666,1239.2,678.2,1245.1,675z"/>
	<path class="st3" d="M1262.9,682.4c-15.2,0-27.6,12.4-27.6,27.6c0,18.6,21.7,30.8,27.6,27.6c3.5-1.9,3.2-10,3.1-12.1
		c-0.3-8.9-4.9-13.8-3.1-15.5s5.8,2.5,13.6,3.3c3.8,0.4,12.1,0.3,14-3.3C1293.8,704,1281.5,682.4,1262.9,682.4z"/>
	<path class="st3" d="M1398.3,715.1c-15.3,0-27.6,12.4-27.6,27.6c0,18.6,21.7,30.8,27.6,27.6c3.5-1.9,3.2-10,3.1-12.1
		c-0.3-8.9-4.9-13.8-3.1-15.5s5.8,2.5,13.6,3.3c3.8,0.4,12.1,0.3,14-3.3C1429.1,736.7,1416.8,715.1,1398.3,715.1z"/>
	<path class="st3" d="M1386.7,782.9c-15.3,0-27.6,12.4-27.6,27.6c0,18.6,21.7,30.8,27.6,27.6c3.5-1.9,3.2-10,3.1-12.1
		c-0.3-8.9-4.9-13.8-3.1-15.5s5.8,2.5,13.6,3.3c3.8,0.4,12.1,0.3,14-3.3C1417.6,804.5,1405.3,782.9,1386.7,782.9z"/>
	<path class="st3" d="M1335.4,739.7c3.5-1.9,3.2-10,3.1-12.1c-0.3-8.9-4.9-13.8-3.1-15.5s5.8,2.5,13.6,3.3c3.8,0.4,12.1,0.3,14-3.3
		c3.2-6.1-9.1-27.6-27.6-27.6c-15.3,0-27.6,12.4-27.6,27.6C1307.8,730.7,1329.5,743,1335.4,739.7z"/>
	
		<ellipse transform="matrix(0.9648 -0.2629 0.2629 0.9648 -59.0344 131.3915)" class="st2" cx="461.5" cy="286.3" rx="5.3" ry="5.3"/>
	<ellipse transform="matrix(0.9648 -0.2629 0.2629 0.9648 -53.7471 134.3241)" class="st2" cx="475.1" cy="268" rx="2.7" ry="2.7"/>
	<path class="st3" d="M1332.9,750.5c-15.3,0-27.6,12.4-27.6,27.6c0,18.6,21.7,30.8,27.6,27.6c3.5-1.9,3.2-10,3.1-12.1
		c-0.3-8.9-4.9-13.8-3.1-15.5s5.8,2.5,13.6,3.3c3.8,0.4,12.1,0.3,14-3.3C1363.8,772,1351.5,750.5,1332.9,750.5z"/>
	<path class="st3" d="M1308.3,816.8c-15.3,0-27.6,12.4-27.6,27.6c0,18.6,21.7,30.8,27.6,27.6c3.5-1.9,3.2-10,3.1-12.1
		c-0.3-8.9-4.9-13.8-3.1-15.5s5.8,2.5,13.6,3.3c3.8,0.4,12.1,0.3,14-3.3C1339.2,838.3,1326.9,816.8,1308.3,816.8z"/>
	<path class="st3" d="M1254.5,784.3c-15.3,0-27.6,12.4-27.6,27.6c0,18.6,21.7,30.8,27.6,27.6c3.5-1.9,3.2-10,3.1-12.1
		c-0.3-8.9-4.9-13.8-3.1-15.5s5.8,2.5,13.6,3.3c3.8,0.4,12.1,0.3,14-3.3C1285.4,805.9,1273.1,784.3,1254.5,784.3z"/>
</g>
<g id="Layer_2">
	<g>
		<path class="st4" d="M1067.9,599c5.9-9.9-1.8-24.2-7.2-34.2c-13.5-25.1-35.6-39-50.4-48.5c-22.6-14.5-27-12.6-54.4-26.9
			c-23-12-55.7-29.3-85.8-60.5c-20.8-21.5-30.4-35.8-35.9-47.5c-3.6-7.7-7-14.9-8.8-25.3c-5.2-31,10.1-56.6,16.4-65.8
			c15.4-22.3,36.6-30.7,35.3-32.8c-1-1.6-13.6,3-24.7,11.2c-10.3,7.6-14.5,14.8-15.7,14c-3-1.8,21-44.3,19.7-45
			c-0.8-0.5-37,39.4-50.9,101.1c-4,17.8-9.2,41-4.2,69.5c6.9,39.5,28.9,63.6,68.7,107.1c46.5,50.9,80.9,70,92.4,76.1
			c6.3,3.3,38.5,19.8,77.8,17.7C1057.6,608.4,1064.7,604.4,1067.9,599z"/>
		<path class="st5" d="M993.5,508.3c-5,2.2-11.7-1.7-15.4-4.8c-4.7-4.2-5.3-8-11.6-22.1c-2.3-5.1-4.3-9.2-5.5-11.8
			c7.1,8.5,9.8,9.8,11,9.2c0.3-0.2,1.1-0.8,0.7-6.9c-0.3-4.4-1.1-8.8-2.3-13c2.3,1.5,4.2,3.4,5.8,5.7c2.7,3.9,3.1,7,3.9,6.9
			c1.1-0.1,1.7-6.2,1-12.1c-0.5-3.9-1.7-7.7-3.6-11.1c1.4,1.1,2.7,2.4,3.9,3.8c3.9,4.9,4.5,10,5,9.9s-0.8-4.9-0.4-11.1
			c0.1-2.5,0.5-5.1,1.2-7.5c0.3,1.3,0.6,3,1,5.2c1,5.7,1.5,10.1,1.8,13.5c0.7,6.6,0.6,8.7,0.8,8.7c0.5,0,1.6-12.2,0.3-26.2
			c-0.1-1.5-0.6-3.5-0.4-3.6c0.4-0.1,2.7,4.7,3.7,10.4c0.6,3.3,0.3,4.9,0.6,5c0.8,0.1,3.6-9.8,3.4-21c0-6.9-1.4-13.7-4-20.1
			c-2.2-5.3-4.7-8.6-4.4-8.8c0.5-0.3,6.4,6.8,11.8,14.9c9.5,14.1,14.9,22.5,14.3,33c-0.4,5.9-2.6,10.6-1.9,10.9c0.2,0.1,1-3.1,3.5-7
			c0.7-1.2,2-3.1,2.4-2.9c0.7,0.3-0.3,5.4-2.6,10.2c-2.5,5.2-6.1,9.6-9.4,15.2c-0.9,1.6-0.6,1.3-7.6,16.5
			C996.4,505.7,995.6,507.3,993.5,508.3z"/>
		<path class="st5" d="M960.2,577.3c2.8,10.5-4.9,20.3-13.2,30.9c-4.9,6.2-10.6,11.6-17,16.2c1.4-2.6,2.8-5.6,2.1-6.1
			c-1-0.8-4.5,3.9-9.8,6.5c-4.7,2.2-9.7,2.2-23.9-0.9c-2.7-0.6-9.8-2.2-23.2-6.1c-12.8-3.7-19.4-6.1-29.8-6.3
			c-3.1-0.1-5.7,0-7.4,0.2c0.9-2.7,2.6-5.1,4.9-6.8c4-2.8,8.7-2.4,10.6-2.3c5.7,0.3,14.7-0.3,29.4-4.3c-2.5,0.2-5.1,0.2-7.6,0.1
			c-6.7-0.4-13.4-2-19.5-4.8c5,1.2,10.1,1.8,15.2,1.9c7.8,0.1,13.1-1.1,13.1-1.4c0-0.3-6.9,1-13.9-2.5c-1-0.5-1.9-1-2.8-1.7
			c4.8,0.9,9.6,1.1,14.5,0.7c2.2-0.2,4.4-0.6,6.6-1c-5.3-1.2-9.8-4.6-12.5-9.3c4.5,1.6,9.2,2.5,14,2.7c4.5,0.2,11.5-0.1,11.5-0.1
			c-5-0.9-9.7-2.5-14.2-4.8c-2-1-3.9-2.3-3.9-2.3c-1.6-1-3.2-2.2-4.7-3.4c5,1,10.1,1.7,15.2,2c7.3,0.4,10.6-0.1,10.6-0.5
			c0-0.4-5.8-0.1-10.1-4c-0.9-0.8-1.6-1.7-2.2-2.7c3.1,1.6,6.6,2.4,10.1,2.3c5.2-0.3,8.2-2.7,12.4-4.9c6.4-3.1,13.4-4.8,20.6-5
			C945.2,559,957.4,567,960.2,577.3z"/>
		<path class="st5" d="M887.8,516.5c-1.6,5.4-12.9,6.4-24,7.3c-16.4,1.4-32.8-0.2-48.6-4.5l-2-0.6c-12.5-3.7-30-11.3-51.1-28
			c8.4,3.1,10.7,3.5,10.9,3.1s-2.9-1.8-4.7-5.5c-0.4-0.8-0.7-1.7-0.9-2.6c7.9,6.6,17,11.6,26.8,14.7c0.2,0.1,0.4,0.2,0.4,0.1
			c0,0-5.1-2.8-9.5-6.5c-2.3-2-4.3-4.3-6.1-6.8c9.8,5.9,20.9,9.1,32.3,9.2c-3.8-1.7-7.2-4.1-10.2-7c-1.6-1.6-3-3.5-4.2-5.4
			c4.6,3.3,9.9,5.7,15.4,7c5.5,1.3,10.1,1.2,19.2,1c8.7-0.2,10.3-0.8,16.8-0.5c4.5,0.2,9,0.8,13.4,1.8
			C875.5,497,889.9,509.5,887.8,516.5z"/>
		<path class="st5" d="M811.8,401.7c-5.7,1-13.1-16.8-21.5-37.3c-15.2-36.9-12.2-50.7-11-55.2c2.1-7.8,5.9-14.4,9-19.6
			c5.2-9,11.7-17.1,19.2-24.3c-4,8.7-6.8,17.9-8.4,27.3c-2,11.7-1.5,21.3-1.3,21.3c0.3,0,0.1-4.7,2.6-10.7c0.8-2,1.9-4,3.1-5.8
			c-0.9,6.4-0.5,13,1.2,19.3c1.3-2.7,3.1-5.2,5.2-7.4c0.7-0.7,1.5-1.4,2.3-2.1c-0.7,4.6-1.1,9.2-1.1,13.8c0,0,0,2.9,0.1,5.7
			c0.6,11,6.4,28.3,7.3,31C824.3,376.6,818.1,400.6,811.8,401.7z"/>
		<path class="st5" d="M922.8,490.4c-14.5-19.8-26.9-40.9-37.2-63.2c-3.4-7.5-6.1-18.2-14.6-31.1c-7.1-10.9-10.5-12.1-15.7-22.6
			c-4.6-9.2-7.4-19.2-8.1-29.5c-0.4-6.3,0.1-12.7,1.4-18.9c-1.8,3.3-3.2,6.7-4.2,10.3c-7,25.8,9.9,49.7,14.6,56
			c-6-6.5-10.8-14-14-22.2c-2.3-5.8-8.9-22.7-2.4-41.9c2.7-7.9,7.2-15,13.1-20.9c-4.2,1.6-17.8,7.3-24.3,21.3
			c-4.4,9.6-3.5,18.7-2.7,25.9c1,9,3.8,17.8,8.1,25.8c-9.3-11.2-13.5-25.7-11.5-40.1c-2.1,6.6-2.9,13.6-2.2,20.5
			c1.5,14.2,9,24,14.2,30.7c5.2,6.7,7.2,7.2,14,14.2c12.3,12.7,18.4,24,22.7,30.9C881.3,447.7,895.1,465.7,922.8,490.4z"/>
		<path id="_Path_" class="st6" d="M930.6,495.5c0.4-4.7-3.7-8.3-14.1-16.8c-23.2-19-36-28.3-42.9-34c-28.2-23.1-32.9-45.7-39-43.5
			c-7.8,2.8-1.5,38.8,4.5,59.7c1.6,5.7,3.5,11.2,5.8,16.7c7.7,9.2,16.6,19.1,26.8,30.2c4.7,2.4,9.9,4.1,15.1,4.9
			C906.6,515.6,929.6,506,930.6,495.5z"/>
		<path class="st5" d="M1066.8,578.1c-1.6,0-2.2-5.4-3.6-5.4c-1.4,0-1.4,5-3.7,11.6c-2.3,6.7-5.4,10.9-4.3,12
			c0.9,0.8,3.1-1.4,4.5-0.5c1,0.6,0.9,2.3,0.6,4.1c3.3-1.2,6.1-3.5,7.9-6.5c3.1-5.2,2.3-11.5,0.2-17.8
			C1068.1,577,1067.5,578.1,1066.8,578.1z"/>
		<path class="st6" d="M1000.1,516.1c-4.9,0-11.4,2-12.2,5.5c-1.1,5,10.2,10,8.8,14.6c-0.9,2.9-5.5,1.8-7.9,5.7s0.9,7.3-0.2,13.1
			c-1.6,8.7-11.1,9.8-10.7,14.8c0.5,6.3,15.8,4.8,24.5,17.3c3.4,4.9,3.4,8.5,7,9.6c5.3,1.6,8.9-5.3,16.3-4.4
			c5.1,0.6,5.9,4.2,10.5,4.7c7.4,0.8,13.5-7,14.4-8.1c5.6-7.1,4.7-18.5,4.6-21.1c-0.6-8.4-3.4-16.5-8.1-23.5
			c-2.8-4.1-7.9-11.8-13.6-11.4c-1.6,0.3-3.3,0.3-4.9-0.1c-2.2-0.8-4.1-2.3-5.3-4.3C1019.1,522.5,1008.8,516.1,1000.1,516.1z"/>
		<path class="st5" d="M1050.4,604c-0.1,0.1-2.4,1.3-6.9,3.8c-5.4,3-8.5,4.7-12.9,5.9c-1.3,0.3-2.5,0.6-3.8,0.8
			c-2.4,0.3-4.8,0.5-7.2,0.4c-6.8,0.1-13.4,2.1-19,5.7c-3.5,2.3-5.8,5-5.5,5.3c0.2,0.3,4.8-3.2,12.9-5.2c0.8-0.2,1.3-0.3,2.4-0.5
			c4.4-0.8,7.5-0.5,14.5-1.9c6.3-1.2,12.4-3.1,18.3-5.8c4.9-2.3,8.6-4,12.6-7.8c6.1-5.8,9.3-13,8.9-13.3c-0.1-0.1-0.7,0.5-2.1,2
			C1058.9,597.3,1054.8,600.9,1050.4,604z"/>
		<path class="st5" d="M1066.6,586.9c0.6,0.4,5.6-4.2,6.7-10.6c0.1-0.3,0.1-1.1,0.2-2.7c0.4-7.4,0.2-9.4,0.6-12.7
			c0.3-3.7,0.9-4.4,1.7-8.8c1-5.4,2.1-16,1.3-16.1c-0.4-0.1-0.9,2.7-4,13.5c-2.2,7.8-2.4,7.9-2.6,9.7c-0.3,3.4,0.1,5.6-0.3,12.2
			c-0.1,2.1-0.3,3-0.3,3.4c-0.5,2.8-1.2,5.6-2.1,8.3C1066.9,586,1066.4,586.8,1066.6,586.9z"/>
		<path class="st7" d="M916.3,519c3.7,3.7,4.7,7.3,8.7,7.9c3.2,0.5,6.6-1.3,8.7-3.6c3.1-3.5,1.1-6.5,3.9-12.7c2.7-6,5.2-6,6.1-9.9
			c1.5-6.9-4.2-16.8-10.5-17.6c-6.8-0.9-8.4,9.2-19.3,11.6c-9.3,2-15.1-3.7-19.3,0c-2.9,2.6-3.6,8.2-1.7,12.1
			C896.6,514.2,907.2,509.7,916.3,519z"/>
		<path class="st7" d="M960.7,572.9c-1,2.6,2.9,8.1,7.3,8.5c5.7,0.6,8.9-7.4,13.2-6.2c3.8,1,3.2,7.7,6.2,8.3
			c4.5,0.9,12.7-12.6,9.6-16.7c-1.3-1.7-3.6-0.2-10.5-2.2c-5.1-1.5-5.9-2.9-8.3-2.3c-3.4,0.7-3.4,3.7-7.7,6.7
			C965.7,572.5,961.6,570.6,960.7,572.9z"/>
	</g>
	<path class="st8" d="M1355.5,463.2c0.5-0.1,0.4-5.6-2.8-9.6c-0.2-0.2-0.6-0.6-1.5-1.5c-4.2-4.1-5.6-5.1-7.4-7
		c-2.1-2.2-2.2-2.9-4.4-5.6c-2.7-3.4-8.6-9.6-9-9.2c-0.2,0.2,1.2,1.9,6,9.5c3.5,5.5,3.5,5.6,4.5,6.6c1.9,2,3.4,2.9,7.2,6.6
		c1.2,1.2,1.7,1.7,1.9,2c1.4,1.8,2.8,3.7,4,5.6C1355.2,462.5,1355.4,463.2,1355.5,463.2z"/>
	<path class="st8" d="M1339.7,488.3c-1.3,4.2-7.2,6.2-11,6.7c-5,0.7-7.6-1-19.4-4.7c-4.3-1.3-7.8-2.3-10-2.9
		c8.8,0.2,11-0.8,11.3-1.8c0.1-0.3,0.1-1.1-3.8-4c-2.8-2.1-5.8-3.9-9-5.5c2.1-0.6,4.3-0.7,6.5-0.5c3.8,0.4,5.8,1.9,6.2,1.3
		c0.5-0.8-2.9-4.3-6.8-6.9c-2.6-1.7-5.5-3-8.6-3.7c1.4-0.3,2.9-0.4,4.3-0.3c5,0.2,8.4,2.5,8.6,2.2s-3.3-2.1-6.9-5.6
		c-1.5-1.4-2.8-3-3.9-4.7c0.9,0.5,2.1,1.2,3.6,2.1c4,2.4,6.9,4.5,9.1,6c4.3,3,5.5,4.2,5.6,4.1c0.2-0.3-6.5-7.3-15.6-14
		c-1-0.7-2.5-1.5-2.4-1.7s4.2,0.9,8.2,3.2c2.3,1.4,3.1,2.4,3.3,2.2c0.4-0.4-4-7.4-10.9-13c-4.2-3.6-9-6.4-14.2-8.2
		c-4.3-1.4-7.7-1.7-7.6-2c0.1-0.5,7.5-0.2,15.2,0.7c13.5,1.7,21.4,2.9,27.4,8.8c3.4,3.3,5,7.2,5.6,6.9c0.2-0.1-1.3-2.2-2.3-5.8
		c-0.3-1-0.8-2.8-0.5-3c0.5-0.2,3.1,3,4.8,6.9c1.8,4.2,2.5,8.7,4.2,13.7c0.5,1.4,0.4,1,5.9,13.2
		C1339.7,485.2,1340.2,486.5,1339.7,488.3z"/>
	<g>
		<path class="st9" d="M1362.2,466.5c-2.8-8.6-15.1-11.4-23.8-13.3c-21.7-4.9-41.2,0.9-54.3,4.7c-20.1,5.8-21.3,9.4-43.7,18.2
			c-18.8,7.4-45.8,17.7-79.6,19.4c-23.3,1.2-36.6-0.5-46.3-3.2c-6.4-1.8-12.4-3.5-19.4-7.8c-20.9-12.9-28.1-35-30.2-43.4
			c-5.2-20.5,0.7-37.3-1.2-37.6c-1.5-0.2-5.2,9.5-6.1,20.3c-0.8,10,1.3,16.1,0.2,16.4c-2.6,0.8-15.2-35-16.3-34.7
			c-0.7,0.2,4.2,41.9,33.3,81.8c8.4,11.5,19.3,26.5,38.7,38.2c26.8,16.2,52.2,15.6,98.2,14.6c53.7-1.2,82.6-11.6,92.1-15.2
			c5.2-2,31.4-12.4,50.3-36.6C1362.4,477.3,1363.7,471.2,1362.2,466.5z"/>
		<path class="st8" d="M1352,459.2c-0.8,1-4.4-1.5-5.2-0.7s2.2,3.4,5.1,8.3s3.7,9,5,8.9c1-0.1,0.8-2.6,2.1-3
			c0.9-0.2,1.8,0.7,2.8,1.8c1-2.6,1.1-5.5,0.3-8.2c-1.5-4.6-5.7-7.5-10.6-9.5C1352,457.9,1352.4,458.8,1352,459.2z"/>
		<path class="st8" d="M1358,478.8c-0.8,4.5,0.2,5.2-0.4,10.1c-0.5,3.8-1.6,7.5-3.3,10.9c-2,3.9-4,5.8-5.5,7.7
			c-2.8,3.6-5.8,9.6-5.9,20.2c0.6-3.1,1.6-6,2.9-8.9c2.6-5.7,4.5-6.6,8.3-13.1c2.6-4.4,4.7-9.1,6.1-14c1.1-3.8,1.7-7.7,1.9-11.7
			c0.1-1.1,0.4-8.8-0.8-9C1360.5,470.7,1358.8,474.9,1358,478.8z"/>
		<path class="st8" d="M1295.5,523.1c7.8,3.8,9.7,13.6,11.6,24.2c1.1,6.2,1.4,12.5,0.8,18.7c-0.8-2.3-1.9-4.6-2.6-4.5
			c-1,0.2,0,4.8-1.3,9.3c-1.1,4-3.8,7-13.1,13.9c-1.8,1.3-6.5,4.7-15.9,10.8c-9,5.8-13.9,8.5-19.5,14.6c-1.7,1.8-3,3.5-3.8,4.5
			c-1.2-2-1.7-4.2-1.5-6.5c0.4-3.9,3.1-6.5,4.2-7.6c3.2-3.3,7.6-9,12.9-20c-1.2,1.6-2.6,3.2-4,4.6c-3.8,3.8-8.3,7-13.2,9.2
			c3.4-2.4,6.4-5.1,9.2-8.2c4.2-4.7,6.2-8.5,6-8.6s-3,4.7-8.8,7.1c-0.8,0.3-1.6,0.6-2.5,0.8c3-2.4,5.7-5.2,8-8.4
			c1-1.4,2-2.9,2.8-4.5c-3.5,2.5-8,3.5-12.2,2.6c3.3-1.9,6.3-4.3,9-7c2.5-2.6,6-7,6-7c-3.1,2.5-6.6,4.5-10.4,6
			c-1.7,0.7-3.4,1.2-3.4,1.2c-1.5,0.4-3,0.8-4.5,1c3.2-2.5,6.3-5.2,9.2-8.1c4.1-4.2,5.5-6.4,5.3-6.6s-3.1,3.5-7.7,4
			c-0.9,0.1-1.9,0.1-2.8-0.1c2.6-1,4.9-2.7,6.7-4.9c2.5-3.3,2.7-6.4,3.6-10c1.5-5.5,4.2-10.6,7.8-15
			C1276.5,522.5,1287.8,519.3,1295.5,523.1z"/>
		<path class="st8" d="M1220.7,534.6c2.4,3.8-3,11.1-8.2,18.3c-7.8,10.6-17.4,19.7-28.3,26.9l-1.4,0.9c-8.8,5.5-22.6,12.1-43.8,16
			c6.2-3.4,7.7-4.6,7.6-4.9s-2.6,0.8-5.7-0.1c-0.7-0.2-1.4-0.5-2-0.8c8.2-1.2,16-4.1,23-8.4c0.2-0.1,0.3-0.2,0.3-0.2
			s-4.4,1.6-8.9,2.3c-2.4,0.3-4.9,0.4-7.3,0.1c8.7-2.8,16.5-7.8,22.5-14.6c-3,1.4-6.3,2.2-9.6,2.4c-1.8,0.1-3.7,0-5.5-0.3
			c4.4-1.1,8.6-2.9,12.3-5.6c3.7-2.6,6-5.4,10.8-11c4.5-5.3,4.9-6.6,8.5-10.3c2.5-2.6,5.2-5,8.2-7.1
			C1202.6,531.8,1217.7,529.7,1220.7,534.6z"/>
		<path class="st8" d="M1111.7,520c-2.4,4-17-0.9-33.8-6.6c-30.2-10.2-37-19.3-39-22.4c-3.6-5.4-5.5-11.1-7.1-15.7
			c-2.6-7.9-4.1-16-4.5-24.3c3.1,7,7.2,13.5,12,19.4c6,7.3,12,12.1,12.2,12s-2.8-2.5-5.1-7.2c-0.8-1.6-1.4-3.2-1.9-4.9
			c3.4,3.9,7.6,7.1,12.2,9.4c-1-2.2-1.5-4.6-1.7-7c0-0.8,0-1.6,0-2.5c2.4,2.8,5,5.5,7.7,7.9c0,0,1.7,1.5,3.5,2.9
			c6.9,5.5,20.4,11,22.4,11.9C1103.2,499.3,1114.3,515.7,1111.7,520z"/>
		<path class="st8" d="M1223.5,499.9c-19.5-1.7-38.8-5.3-57.6-10.8c-6.3-1.9-14.2-5.9-26.5-7.6c-10.3-1.4-12.8,0-21.8-2.5
			c-8-2-15.4-5.6-22-10.6c-4-3.1-7.6-6.7-10.7-10.8c1,2.8,2.4,5.4,4,7.9c11.8,17.8,35.1,20.2,41.4,20.6c-7.1,0.2-14.1-0.8-20.8-3.2
			c-4.7-1.7-18.4-6.6-26.5-20.6c-3.3-5.8-5.3-12.2-5.7-18.9c-1.3,3.4-5,14.5,0,25.8c3.4,7.7,9.4,11.9,14.2,15.2
			c6,4.1,12.7,7.1,19.8,8.7c-11.6-0.3-22.6-5.4-30.2-14.2c2.9,4.8,6.7,8.9,11.2,12.1c9.3,6.5,19.2,7.2,26,7.6s8.1-0.5,15.9-0.9
			c14.1-0.7,24.2,1.5,30.5,2.6C1176,502.4,1194,503.5,1223.5,499.9z"/>
		<path class="st10" d="M1202.4,502.6c18.3-5.2,36.2-11.6,53.5-19.3c17.2-8,21.1-11.6,33.5-14.8c21.5-5.4,48.8-4.3,52,5.2
			c2.1,6.2-6.7,14.2-16.8,23.4c-20.6,18.8-46.7,26.3-48.6,23c-2.2-4,29.5-20.7,25.9-30.5c-2-5.4-14.9-6.6-25.1-4.4
			c-22.1,4.7-26.3,24.1-42.9,36.5c-37.2,27.9-107.3-1.8-106.8-6.7c0.2-1.8,9.7-1,37.2-4.5C1177.3,508.9,1190,506.2,1202.4,502.6z"/>
		<path class="st11" d="M1281.3,502.3c-0.4-1-3.3-1.1-9.2-1.3c-4.1-0.1-6.2-0.2-6.9,0.8c-0.9,1.4,0.6,3-0.4,4.4
			c-0.8,1.1-2.5,0.8-4.9,1c-3.4,0.4-8.5,2-8.9,4.4c-0.3,1.9,2.3,4.3,4.6,5.3s3.9,0.2,4.7,1.3c1.3,1.7-1.8,4.6-0.7,6.9
			s5.3,2.9,8.5,1.7c4.3-1.7,6.4-7.3,5-9.9c-1.2-2.1-4.4-1.6-4.9-3.6c-0.3-1.3,0.8-2.9,1.8-3.6c1.3-1,2.1-0.4,4.5-1
			c2.2-0.5,4.2-1.7,5.6-3.5C1280.9,504.2,1281.7,503.2,1281.3,502.3z"/>
		<path class="st11" d="M1232.2,491c-0.4-1-3.3-1.1-9.2-1.3c-4.1-0.1-6.2-0.2-6.9,0.8c-0.9,1.4,0.6,3-0.4,4.4
			c-0.8,1.1-2.5,0.8-4.9,1c-3.4,0.4-8.5,2-8.9,4.4c-0.3,1.9,2.3,4.3,4.6,5.3s3.9,0.2,4.7,1.3c1.3,1.7-1.8,4.6-0.7,6.9
			s5.3,2.9,8.5,1.7c4.3-1.7,6.4-7.3,5-9.9c-1.2-2.1-4.4-1.6-4.9-3.6c-0.3-1.3,0.8-2.9,1.8-3.6c1.3-1,2.1-0.4,4.5-1
			c2.2-0.5,4.2-1.7,5.6-3.5C1231.7,492.9,1232.6,491.8,1232.2,491z"/>
	</g>
	<g>
		<path class="st4" d="M1022.1,144.9c-5.4,9,1.6,21.9,6.4,30.9c12.2,22.7,32.2,35.2,45.5,43.9c20.4,13.2,24.4,11.4,49.2,24.3
			c20.8,10.8,50.4,26.5,77.6,54.7c18.8,19.5,27.5,32.3,32.5,42.9c3.2,7,6.4,13.5,7.9,22.9c4.7,28.1-9.1,51.2-14.9,59.5
			c-14,20.2-33.1,27.8-31.9,29.7c0.9,1.5,12.3-2.7,22.4-10.1c9.3-6.9,13.1-13.4,14.2-12.7c2.7,1.6-19,40-17.9,40.7
			c0.7,0.4,33.4-35.6,46-91.4c3.6-16.1,8.4-37,3.8-62.9c-6.3-35.8-26.2-57.5-62.1-96.8c-42-45.9-73.1-63.3-83.5-68.8
			c-5.7-3-34.8-17.9-70.3-16C1031.4,136.5,1025,140.1,1022.1,144.9z"/>
		<path class="st5" d="M1089.3,227.1c4.5-2,10.6,1.5,13.9,4.4c4.3,3.7,4.8,7.2,10.5,20c2.1,4.6,3.9,8.4,5,10.6
			c-6.4-7.7-8.9-8.8-9.9-8.3c-0.3,0.2-1.1,0.7-0.6,6.2c0.3,4,1,7.9,2.1,11.8c-2-1.4-3.8-3.1-5.2-5.1c-2.5-3.5-2.8-6.4-3.5-6.3
			c-1,0.1-1.5,5.6-0.9,10.9c0.5,3.5,1.6,6.9,3.3,10.1c-1.3-1-2.5-2.2-3.5-3.5c-3.5-4.4-4.1-9-4.5-8.9c-0.4,0.1,0.7,4.4,0.4,10.1
			c-0.1,2.3-0.5,4.6-1.1,6.8c-0.2-1.1-0.5-2.7-0.9-4.7c-0.9-5.1-1.3-9.2-1.6-12.2c-0.6-5.9-0.5-7.9-0.7-7.9c-0.4,0-1.4,11-0.3,23.7
			c0.1,1.4,0.6,3.2,0.3,3.2s-2.4-4.3-3.3-9.4c-0.5-3-0.3-4.5-0.6-4.5c-0.7-0.1-3.2,8.9-3,19c0,6.2,1.2,12.4,3.6,18.2
			c2,4.8,4.2,7.8,3.9,8s-5.8-6.2-10.7-13.5c-8.6-12.7-13.5-20.3-12.9-29.8c0.3-5.4,2.3-9.6,1.7-9.9c-0.2-0.1-0.9,2.8-3.2,6.3
			c-0.7,1.1-1.8,2.8-2.1,2.6c-0.6-0.3,0.3-4.9,2.3-9.2c2.2-4.7,5.6-8.6,8.5-13.7c0.8-1.5,0.6-1.2,6.8-14.9
			C1086.7,229.4,1087.4,227.9,1089.3,227.1z"/>
		<path class="st5" d="M1119.5,164.6c-2.6-9.5,4.4-18.4,11.9-27.9c4.4-5.6,9.6-10.5,15.3-14.6c-1.3,2.4-2.5,5-1.9,5.5
			c0.9,0.7,4.1-3.6,8.9-5.8c4.3-2,8.8-2,21.6,0.8c2.4,0.5,8.8,2,21,5.5c11.6,3.4,17.6,5.5,27,5.7c2.8,0.1,5.1,0,6.7-0.2
			c-0.8,2.4-2.4,4.6-4.4,6.1c-3.6,2.5-7.9,2.1-9.6,2.1c-5.2-0.3-13.3,0.2-26.6,3.9c2.3-0.2,4.6-0.2,6.9-0.1
			c6.1,0.4,12.1,1.8,17.7,4.4c-4.5-1.1-9.1-1.7-13.8-1.8c-7.1-0.1-11.8,1-11.8,1.3s6.3-0.9,12.6,2.2c0.9,0.4,1.7,0.9,2.5,1.5
			c-4.3-0.8-8.7-1-13.1-0.6c-2,0.2-4,0.5-5.9,0.9c4.8,1.1,8.9,4.2,11.3,8.5c-4.1-1.4-8.4-2.2-12.7-2.5c-4-0.2-10.4,0.1-10.4,0.1
			c4.5,0.8,8.8,2.2,12.9,4.3c1.8,0.9,3.5,2,3.5,2c1.5,0.9,2.9,2,4.3,3.1c-4.5-0.9-9.1-1.5-13.7-1.8c-6.6-0.4-9.6,0.1-9.6,0.4
			s5.3,0,9.1,3.6c0.8,0.7,1.5,1.6,2,2.5c-2.8-1.5-6-2.2-9.2-2.1c-4.7,0.3-7.4,2.5-11.2,4.4c-5.8,2.8-12.2,4.3-18.6,4.5
			C1133.1,181.2,1122,174,1119.5,164.6z"/>
		<path class="st5" d="M1185,219.6c1.5-4.9,11.7-5.8,21.7-6.6c14.8-1.2,29.7,0.2,44,4.1l1.8,0.5c11.3,3.4,27.1,10.2,46.2,25.4
			c-7.5-2.8-9.7-3.2-9.8-2.8c-0.2,0.4,2.6,1.6,4.2,4.9c0.4,0.7,0.6,1.5,0.8,2.3c-7.1-6-15.4-10.5-24.3-13.3
			c-0.2-0.1-0.4-0.2-0.4-0.1c0,0,4.6,2.5,8.6,5.9c2.1,1.8,3.9,3.9,5.5,6.1c-8.8-5.3-18.9-8.2-29.2-8.3c3.4,1.5,6.6,3.7,9.2,6.4
			c1.4,1.5,2.7,3.1,3.8,4.9c-4.2-3-8.9-5.1-13.9-6.4c-5-1.2-9.1-1.1-17.4-1c-7.9,0.1-9.3,0.8-15.2,0.4c-4.1-0.2-8.1-0.7-12.1-1.7
			C1196,237.3,1183.1,225.9,1185,219.6z"/>
		<path class="st5" d="M1253.7,323.4c5.2-0.9,11.8,15.2,19.5,33.7c13.8,33.3,11.1,45.9,10,49.9c-1.9,7.1-5.4,13-8.1,17.7
			c-4.7,8.1-10.6,15.5-17.4,22c3.6-7.9,6.2-16.2,7.6-24.7c1.8-10.6,1.4-19.3,1.2-19.3c-0.2,0-0.1,4.3-2.3,9.7
			c-0.8,1.8-1.7,3.6-2.8,5.2c0.8-5.8,0.4-11.7-1.1-17.4c-1.2,2.5-2.8,4.7-4.7,6.7c-0.7,0.7-1.3,1.3-2.1,1.9c0.6-4.1,1-8.3,1-12.5
			c0,0,0-2.6-0.1-5.1c-0.5-10-5.8-25.6-6.5-27.9C1242.3,346.1,1248,324.4,1253.7,323.4z"/>
		<path class="st5" d="M1153.3,243.2c13.1,17.9,24.4,37,33.7,57.1c3.1,6.8,5.5,16.4,13.2,28.2c6.4,9.8,9.4,10.9,14.2,20.4
			c4.2,8.3,6.7,17.3,7.4,26.6c0.3,5.7-0.1,11.5-1.2,17.1c1.6-3,2.8-6.1,3.7-9.3c6.3-23.3-8.9-44.9-13.2-50.6
			c5.5,5.8,9.8,12.6,12.7,20.1c2.1,5.3,8,20.6,2.1,37.9c-2.5,7.1-6.5,13.6-11.8,18.9c3.8-1.4,16.1-6.5,22-19.2
			c4-8.7,3.2-16.9,2.4-23.4c-0.9-8.2-3.4-16.1-7.3-23.3c8.4,10.1,12.2,23.2,10.4,36.3c1.9-6,2.6-12.3,2-18.5
			c-1.4-12.8-8.2-21.7-12.9-27.8c-4.7-6-6.5-6.5-12.6-12.9c-11.1-11.5-16.7-21.7-20.5-27.9C1190.8,281.8,1178.4,265.6,1153.3,243.2z
			"/>
		<path id="_Path_2" class="st6" d="M1146.3,238.6c-0.4,4.2,3.4,7.5,12.8,15.2c21,17.2,32.5,25.6,38.8,30.7
			c25.5,20.9,29.7,41.3,35.3,39.3c7-2.5,1.3-35-4.1-54c-1.4-5.1-3.2-10.1-5.3-15c-7-8.3-15-17.2-24.2-27.3
			c-4.3-2.2-8.9-3.7-13.7-4.4C1167.9,220.5,1147.1,229.2,1146.3,238.6z"/>
		<path class="st5" d="M1023.1,163.9c1.5,0,2,4.9,3.2,4.9c1.2,0,1.3-4.5,3.3-10.5c2.1-6,4.9-9.9,3.9-10.8c-0.8-0.7-2.8,1.2-4.1,0.4
			c-0.9-0.6-0.8-2.1-0.6-3.7c-3,1.1-5.5,3.2-7.2,5.8c-2.8,4.7-2.1,10.4-0.2,16.1C1021.9,164.9,1022.4,163.9,1023.1,163.9z"/>
		<path class="st6" d="M1083.4,220c4.4,0,10.3-1.8,11-5c1-4.5-9.2-9-7.9-13.2c0.8-2.6,4.9-1.6,7.2-5.1c2.2-3.5-0.8-6.6,0.2-11.8
			c1.5-7.9,10-8.8,9.7-13.3c-0.5-5.7-14.3-4.3-22.2-15.6c-3.1-4.4-3.1-7.7-6.4-8.7c-4.8-1.4-8,4.8-14.7,4c-4.6-0.6-5.3-3.8-9.5-4.3
			c-6.7-0.7-12.2,6.3-13,7.4c-5.1,6.4-4.3,16.7-4.1,19.1c0.6,7.6,3.1,14.9,7.4,21.2c2.5,3.7,7.2,10.6,12.3,10.3
			c1.5-0.3,3-0.3,4.4,0.1c2,0.7,3.7,2.1,4.8,3.9C1066.2,214.2,1075.6,219.9,1083.4,220z"/>
		<path class="st5" d="M1037.9,140.5c0.1-0.1,2.2-1.2,6.2-3.4c4.9-2.7,7.7-4.3,11.7-5.3c1.1-0.3,2.3-0.5,3.4-0.7
			c2.1-0.3,4.3-0.4,6.4-0.4c6.1-0.1,12.1-1.9,17.2-5.2c3.2-2.1,5.2-4.5,5-4.8c-0.2-0.3-4.3,2.9-11.7,4.7c-0.7,0.2-1.2,0.3-2.2,0.5
			c-4,0.7-6.8,0.4-13.2,1.7c-5.7,1.1-11.2,2.8-16.5,5.2c-4.5,2.1-7.8,3.6-11.4,7.1c-5.5,5.2-8.5,11.8-8.1,12.1
			c0.1,0.1,0.6-0.5,1.9-1.8C1030.2,146.6,1033.9,143.3,1037.9,140.5z"/>
		<path class="st5" d="M1023.2,155.9c-0.5-0.3-5,3.8-6,9.6c0,0.3-0.1,1-0.2,2.5c-0.4,6.7-0.2,8.5-0.5,11.5c-0.3,3.4-0.8,4-1.5,7.9
			c-0.9,4.8-1.8,14.4-1.2,14.6c0.4,0.1,0.8-2.4,3.6-12.2c2-7.1,2.1-7.1,2.3-8.8c0.3-3.1-0.1-5,0.3-11.1c0.1-1.9,0.2-2.7,0.3-3.1
			c0.5-2.5,1.1-5.1,1.8-7.5C1023,156.8,1023.4,156.1,1023.2,155.9z"/>
		<path class="st7" d="M1159.1,217.3c-3.3-3.4-4.3-6.6-7.8-7.1c-3-0.2-5.9,1-7.8,3.2c-2.8,3.2-1,5.8-3.5,11.5
			c-2.4,5.5-4.7,5.4-5.5,9c-1.4,6.2,3.7,15.2,9.5,16c6.1,0.8,7.5-8.3,17.4-10.5c8.4-1.8,13.7,3.4,17.4,0c2.6-2.3,3.2-7.4,1.5-11
			C1177,221.7,1167.4,225.7,1159.1,217.3z"/>
		<path class="st7" d="M1119,168.6c0.9-2.3-2.6-7.3-6.6-7.7c-5.1-0.6-8.1,6.7-12,5.6c-3.4-0.9-2.9-6.9-5.6-7.5
			c-4.1-0.8-11.5,11.4-8.7,15c1.2,1.6,3.2,0.2,9.5,2c4.6,1.3,5.4,2.6,7.5,2.1c3-0.7,3.1-3.4,6.9-6.1
			C1114.5,169,1118.2,170.7,1119,168.6z"/>
	</g>
	<g>
		<path class="st12" d="M990.2-15.1c3.5-2.6,8-3.5,12.2-2.6c-3.3,1.9-6.3,4.3-9,7c-2.5,2.6-6,7-6,7c3.1-2.5,6.6-4.5,10.4-6
			c1.7-0.7,3.4-1.2,3.4-1.2c1.5-0.4,3-0.8,4.5-1c-3.2,2.5-6.3,5.2-9.2,8.1c-4.1,4.2-5.5,6.4-5.3,6.6s3.1-3.5,7.7-4
			c0.9-0.1,1.9-0.1,2.8,0.1c-2.6,1-4.9,2.7-6.7,4.9c-2.5,3.3-2.7,6.4-3.6,10c-0.8,3.2-2.1,6.3-3.8,9.2c15.4-2.8,31-4.5,46.7-5.1
			c1.3-3.8,4.8-8.6,8.3-13.4c6.5-8.9,14.3-16.7,23.1-23.3h-73.4C991.6-17.6,990.9-16.4,990.2-15.1z"/>
		<path class="st9" d="M1034.5,22.8c-0.8-1.3-0.7-3-0.1-4.9c-15.7,0.6-31.3,2.3-46.7,5.1c-1.2,2.1-2.5,4-4,5.8
			c-5,6.1-16.2,9.3-24,5.5c-1.5-0.8-2.9-1.8-4.1-3.1c-1.7,0.6-3,1.1-4.1,1.5c-5.2,2-31.4,12.4-50.3,36.6c-1.4,1.8-2.6,3.5-3.6,5
			c0.1,1.4,0,2.8-0.3,4.2c-0.4,2-1,4-1.8,5.9c0.3,0.1,0.6,0.1,0.8,0.1c1.3-0.4,1.1-2.8,2.1-3c1.2-0.2,2.1,3.9,5,8.9s5.7,7.5,5,8.3
			s-4.3-1.7-5.2-0.7c-0.4,0.4,0,1.3,0.5,2.3c4.2,1.6,8.6,2.9,13,3.8c21.7,4.9,41.2-0.9,54.3-4.7c4.5-1.3,9-2.8,13.3-4.5
			c-0.9-2.2-1-3.2-0.6-4.3c1.3-4.2,7.2-6.2,11-6.7c3.2-0.4,5.5,0.1,9.9,1.6c2.9-1.3,6.2-2.7,10.2-4.2c14.8-5.8,34.6-13.4,58.8-17.2
			c-7-1.6-14.9-3.2-23.8-4.5c-0.5,1.3,0.6,2.8-0.2,4c-0.7,1-2.8,1-6.9,0.8c-5.9-0.2-8.9-0.3-9.2-1.3c-0.4-1,0.5-1.9,1.3-2.9l0,0
			c-12.1,4-23.9,8.5-35.5,13.7c-17.2,8-21.1,11.6-33.5,14.8c-21.5,5.4-48.8,4.3-52-5.2c-2.1-6.1,6.7-14.1,16.9-23.4
			c19-17.3,45-27.8,48.6-23s-19.1,21.3-14.9,29c5.5,10.1,54.2,0.4,56.6-15.6c0.3-2-0.1-4-1.1-5.8c-1.4,1.8-5.5,3.1-8.3,3.3
			c-2.4,0.3-4.1-0.1-4.9,1c-1,1.3,0.5,3-0.4,4.4c-0.7,1-2.8,1-6.9,0.8c-5.9-0.2-8.9-0.3-9.2-1.3s0.5-1.9,1.3-2.9
			c1.5-1.7,3.4-2.9,5.6-3.5c2.4-0.7,3.2-0.1,4.5-1c1-0.8,2.1-2.3,1.8-3.6c-0.5-2-3.7-1.5-4.9-3.6c-1.5-2.6,0.7-8.1,5-9.9
			c2-0.8,4.3-0.8,6.4-0.1c10.6-9.6,119.5,6.1,118.4,13.9c-0.7,4.9-22.8-0.6-64.5,9.5c0.4,0.6,0.6,1.3,0.5,1.9
			c-0.1,0.5-0.3,0.9-0.7,1.3c9.1-0.3,18.3,0.3,27.3,1.8c6.3,1.1,16.4,3.3,30.5,2.6c7.8-0.4,9.2-1.3,15.9-0.9s16.6,1,26,7.6
			c4.5,3.2,8.3,7.3,11.2,12.1c-7.6-8.8-18.6-13.9-30.2-14.2c7.1,1.6,13.8,4.6,19.8,8.7c4.8,3.3,10.7,7.6,14.2,15.2
			c0.5,1.1,0.9,2.2,1.2,3.3c5.2,7.7,9,16.2,11.3,25.1c5.2,20.5-0.7,37.3,1.2,37.6c1.5,0.2,5.2-9.5,6.1-20.3
			c0.8-10-1.3-16.1-0.2-16.4c2.6-0.8,15.2,35,16.3,34.7c0.7-0.2-4.1-41.2-32.5-80.7c-6.4-3.5-13.2-6.3-14.7-7
			c-14.5-6.3-25.7-22.7-23-27c0.6-1,2-1.5,4-1.5c-1.8-1.3-3.8-2.5-5.8-3.8c-22.4-13.5-43.8-15.4-77-15c-0.9,0.8-1.8,1.5-2.8,2.1
			C1052.6,25.7,1037.5,27.7,1034.5,22.8z"/>
		<path class="st9" d="M1010.9,37.2c0.6,0.8,1.6,0.6,3,0.8c-1.1-1.1-2.2-2.1-3.1-3.1C1010.5,35.6,1010.5,36.5,1010.9,37.2z"/>
		<path class="st9" d="M898.1,97.5l-0.2-0.1L898.1,97.5z"/>
		<path class="st9" d="M893.1,91.1c-0.7-2.1-0.7-4.4-0.1-6.6c0-0.2,0-0.4,0-0.6c-0.7,2.3-0.6,4.7,0.1,7c0.8,2.2,2.2,4.2,4,5.7
			C895.2,95.2,893.9,93.3,893.1,91.1z"/>
		<path class="st8" d="M903.2,98.2c0.8-1,4.4,1.5,5.2,0.7s-2.2-3.4-5-8.3s-3.7-9-5-8.9c-1,0.1-0.8,2.6-2.1,3c-0.3,0.1-0.6,0-0.8-0.1
			c-0.6,1.3-1.2,2.1-1.6,2.1s-0.6-1-0.8-2.2c-0.6,2.2-0.5,4.5,0.1,6.6c0.7,2.2,2.1,4.1,3.9,5.6c0.3,0.3,0.6,0.5,1,0.8l0.2,0.1l0,0
			c-0.5-2.2-0.5-4-0.2-4.1s0.4,0.6,1.7,2.7c0,0,1,1.7,2.5,3.7c0.5,0.3,1.1,0.5,1.6,0.7v-0.1C903.2,99.5,902.8,98.7,903.2,98.2z"/>
		<path class="st8" d="M893.8,86.7c0.4,0.1,1-0.8,1.6-2.1c0.8-1.9,1.4-3.9,1.8-5.9c0.3-1.4,0.4-2.8,0.3-4.2c-0.2-2-0.2-4,0-5.9
			c0.5-3.8,1.6-7.5,3.3-10.9c2-3.9,4-5.8,5.5-7.7c2.8-3.6,5.8-9.6,5.9-20.1c-0.6,3.1-1.6,6-2.9,8.9c-2.6,5.7-4.5,6.6-8.3,13.1
			c-2.6,4.4-4.7,9.1-6.1,14c-1.1,3.8-1.7,7.7-1.9,11.7c-0.1,2.1-0.1,4.2,0,6.3c0,0.2,0,0.4,0,0.6C893.1,85.7,893.4,86.6,893.8,86.7z
			"/>
		<path class="st8" d="M899.7,96.2c-1.3-2.1-1.5-2.7-1.7-2.7s-0.4,1.8,0.2,4.1c0.5,2,1.4,3.9,2.7,5.5c0.2,0.2,0.6,0.6,1.5,1.5
			c4.2,4.1,5.6,5.1,7.4,7c2.1,2.2,2.2,2.9,4.4,5.6c2.7,3.4,8.5,9.6,9,9.2c0.2-0.2-1.2-1.9-6-9.5c-3.5-5.5-3.5-5.6-4.5-6.6
			c-1.9-2-3.4-2.9-7.2-6.6c-1.2-1.2-1.7-1.7-1.9-2c-0.5-0.6-1-1.3-1.5-1.9C900.7,97.9,899.7,96.2,899.7,96.2z"/>
		<path class="st8" d="M994.8,84.1c-3.8,0.5-9.7,2.6-11,6.7c-0.3,1.1-0.2,2,0.6,4.3c0.5,1.3,1.4,3.2,2.6,5.8
			c5.5,12.2,5.5,11.8,5.9,13.2c1.7,4.9,2.3,9.4,4.2,13.7c1.7,3.9,4.3,7.1,4.8,6.9c0.3-0.2-0.2-1.9-0.5-3c-1-3.5-2.5-5.7-2.3-5.8
			c0.5-0.3,2.2,3.5,5.6,6.9c6,5.9,13.9,7.1,27.4,8.8c7.7,1,15.1,1.2,15.2,0.7c0-0.3-3.3-0.6-7.6-2c-5.2-1.8-10-4.6-14.2-8.2
			c-6.8-5.7-11.3-12.6-10.9-13c0.2-0.2,1,0.9,3.3,2.2c3.9,2.4,8,3.6,8.2,3.2s-1.4-1-2.4-1.7c-9.1-6.7-15.9-13.7-15.6-14
			c0.1-0.1,1.3,1.1,5.6,4.1c2.2,1.6,5.1,3.6,9.1,6c1.5,0.9,2.7,1.6,3.6,2.1c-1.1-1.7-2.5-3.2-3.9-4.7c-3.6-3.5-7.1-5.3-6.9-5.6
			s3.6,1.9,8.6,2.2c1.5,0.1,2.9,0,4.3-0.3c-3.1-0.7-6-1.9-8.6-3.7c-3.9-2.6-7.3-6.2-6.8-6.9c0.4-0.5,2.5,0.9,6.2,1.3
			c2.2,0.2,4.4,0,6.5-0.5c-3.2-1.5-6.2-3.3-9-5.4c-3.9-2.9-3.9-3.8-3.8-4c0.2-1,2.4-2,11.3-1.8c-2.2-0.6-5.7-1.5-10-2.9
			s-7.2-2.3-9.6-3.1C1000.2,84.2,998,83.7,994.8,84.1z"/>
		<path class="st8" d="M959.7,34.4c7.7,3.8,18.9,0.6,24-5.5c1.5-1.8,2.8-3.8,4-5.8c1.7-2.9,3-6,3.8-9.2c0.9-3.6,1-6.8,3.6-10
			c1.8-2.2,4.1-3.9,6.7-4.9c-0.9-0.2-1.9-0.2-2.8-0.1c-4.6,0.5-7.4,4.2-7.7,4s1.2-2.5,5.3-6.6c2.9-2.9,5.9-5.6,9.2-8.1
			c-1.5,0.2-3,0.6-4.5,1c0,0-1.7,0.5-3.4,1.2c-3.7,1.5-7.2,3.5-10.4,6c0,0,3.5-4.4,6-7c2.7-2.7,5.7-5.1,9-7
			c-4.3-0.9-8.7,0.1-12.2,2.6c0.7-1.2,1.4-2.4,2.2-3.6h-38.2c-1.5,1.5-2.5,3.4-3.1,5.5c-1.3,4.6-0.3,9.1-1.3,9.3
			c-0.7,0.1-1.8-2.3-2.6-4.5c-0.6,6.2-0.3,12.5,0.8,18.7c1.6,8.4,3,16.3,7.5,21.1C956.8,32.6,958.2,33.7,959.7,34.4z"/>
		<path class="st8" d="M1093.3-18.8h-27.4c-8.8,6.6-16.6,14.5-23.2,23.3c-3.5,4.8-7,9.5-8.3,13.4c-0.7,1.9-0.7,3.6,0.1,4.9
			c3.1,4.9,18.2,2.9,27.5-3.5c1-0.7,1.9-1.4,2.8-2.1c1.9-1.6,3.7-3.2,5.3-5c3.6-3.7,4-5,8.5-10.4c4.7-5.6,7.1-8.4,10.8-11
			c3.7-2.6,7.9-4.5,12.3-5.6c-1.8-0.3-3.6-0.4-5.5-0.3c-3.3,0.2-6.6,1-9.6,2.4C1088.7-14.8,1090.9-16.9,1093.3-18.8z"/>
		<path class="st8" d="M1143.5,37.4c-2.6,4.4,8.5,20.8,23,27c1.4,0.6,8.3,3.5,14.7,7c2.7,1.5,5.3,3.1,7.8,5c1.8,1.4,3.5,2.9,3.5,2.9
			c2.8,2.5,5.3,5.1,7.7,7.9c0-0.8,0-1.6,0-2.5c-0.2-2.4-0.7-4.8-1.7-7c4.7,2.2,8.9,5.4,12.2,9.4c-0.5-1.7-1.1-3.3-1.9-4.9
			c-2.3-4.7-5.3-7-5.1-7.2s6.2,4.7,12.2,12c4.8,5.9,8.9,12.4,12,19.4c-0.4-8.3-1.9-16.5-4.5-24.3c-1.5-4.6-3.5-10.3-7.1-15.7
			c-2.1-3.1-8.8-12.1-39-22.4c-12.6-4.2-23.8-8.1-29.8-8.1C1145.5,36,1144.1,36.4,1143.5,37.4z"/>
		<path class="st8" d="M1163.7,72.9c-6-4.1-12.7-7.1-19.8-8.7c11.6,0.3,22.6,5.4,30.2,14.2c-2.9-4.8-6.7-8.9-11.2-12.1
			c-9.3-6.5-19.2-7.2-26-7.6s-8.1,0.5-15.9,0.9c-14.1,0.7-24.2-1.5-30.5-2.6c-9-1.4-18.2-2-27.3-1.7c-1.6,1.7-5.4,2.9-8.2,3.2
			c-2.4,0.3-4.1-0.1-4.9,1c-0.1,0.1-0.1,0.2-0.2,0.4c8.9,1.3,16.8,2.9,23.8,4.5c5.9,1.4,11.2,2.8,15.8,4.2
			c6.3,1.9,14.2,5.9,26.5,7.6c10.3,1.4,12.8,0,21.8,2.4c8,2,15.4,5.6,22,10.6c4,3.1,7.6,6.7,10.7,10.8c-1-2.8-2.4-5.4-4-7.9
			c-11.8-17.8-35.1-20.2-41.4-20.6c7.1-0.2,14.1,0.8,20.8,3.2c4.7,1.7,18.4,6.6,26.5,20.6c3.3,5.8,5.3,12.2,5.7,18.9
			c1.2-3,4.3-12.4,1.2-22.5c-0.3-1.1-0.7-2.2-1.2-3.3C1174.4,80.4,1168.5,76.2,1163.7,72.9z"/>
		<path class="st10" d="M1040.3,57c2.4-0.7,3.2-0.1,4.5-1c1-0.8,2.1-2.3,1.8-3.6c-0.5-2-3.7-1.5-4.9-3.6c-1.5-2.6,0.7-8.1,5-9.9
			c3.1-1.3,7.4-0.5,8.5,1.7s-2,5.2-0.7,6.9c0.8,1.1,2.3,0.3,4.7,1.3c1.6,0.7,3.1,1.9,4.1,3.3c41.7-10.1,63.9-4.6,64.5-9.5
			c1.1-7.8-107.8-23.5-118.4-13.9c0.8,0.3,1.6,0.9,2,1.7c0.7,1.5-0.2,3.1-0.7,4.6c0.9,1,2,2,3.1,3.1c0.6,0.1,1.2,0.3,1.7,0.5
			c2.3,1,4.9,3.4,4.6,5.3c-0.1,0.4-0.3,0.8-0.5,1.1c1,1.7,1.4,3.8,1.1,5.8c-2.5,16-51.1,25.7-56.6,15.6c-4.2-7.7,18.5-24,14.9-28.9
			s-29.5,5.7-48.5,23c-10.2,9.3-19,17.3-16.8,23.5c3.2,9.5,30.6,10.6,52,5.2c12.4-3.1,16.3-6.8,33.5-14.8
			c11.6-5.2,23.5-9.7,35.5-13.7C1036.2,58.7,1038.2,57.5,1040.3,57z"/>
		<path class="st11" d="M1055,58.4c2.8-0.3,6.6-1.4,8.2-3.2c0.3-0.3,0.6-0.8,0.7-1.3c0.1-0.7-0.1-1.4-0.5-1.9
			c-1-1.5-2.4-2.6-4.1-3.3c-2.4-1-3.9-0.2-4.7-1.3c-1.3-1.7,1.8-4.6,0.7-6.9s-5.3-2.9-8.5-1.7c-4.3,1.7-6.4,7.3-5,9.9
			c1.2,2.1,4.4,1.6,4.9,3.6c0.3,1.3-0.8,2.9-1.8,3.6c-1.3,1-2.1,0.4-4.5,1c-2.2,0.5-4.1,1.7-5.6,3.4l0,0c-0.8,1-1.6,2-1.3,2.9
			c0.3,0.9,3.3,1.1,9.2,1.3c4.1,0.1,6.2,0.2,6.9-0.8c0.8-1.2-0.3-2.8,0.2-4c0.1-0.1,0.1-0.2,0.2-0.4
			C1050.9,58.2,1052.5,58.6,1055,58.4z"/>
		<path class="st11" d="M1015.6,38.5c-0.5-0.2-1.1-0.4-1.7-0.5c-1.4-0.2-2.4,0-3-0.8c-0.4-0.7-0.4-1.6-0.1-2.3
			c0.5-1.5,1.4-3.1,0.7-4.6c-0.5-0.8-1.2-1.4-2.1-1.7c-2.1-0.8-4.3-0.7-6.4,0.1c-4.3,1.7-6.4,7.3-5,9.9c1.2,2.1,4.4,1.6,4.9,3.6
			c0.3,1.3-0.8,2.9-1.8,3.6c-1.3,1-2.1,0.4-4.5,1c-2.2,0.5-4.2,1.7-5.6,3.5c-0.8,1-1.6,2-1.3,2.9s3.3,1.1,9.2,1.3
			c4.1,0.1,6.2,0.2,6.9-0.8c0.9-1.4-0.6-3,0.4-4.4c0.8-1.1,2.5-0.8,4.9-1c2.9-0.3,6.9-1.5,8.3-3.3c0.3-0.3,0.4-0.7,0.5-1.1
			C1020.5,41.9,1017.9,39.5,1015.6,38.5z"/>
	</g>
	<g>
		<path class="st13" d="M1200.9,934.7c24.5-18.2,35.6-44,37.7-49.1c3.9-9.4,14.9-37.9,17.5-91.2c2.2-45.7,3.5-71-12-98.1
			c-11.2-19.6-25.8-30.8-37-39.5c-38.9-30-80.2-35.9-80.5-35.2c-0.4,1,35,14.5,34.1,17.1c-0.4,1.1-6.4-1.2-16.4-0.6
			c-10.7,0.6-20.5,4.1-20.3,5.5c0.3,1.9,17.1-3.6,37.4,2.1c8.3,2.3,30.2,10.1,42.4,31.2c4.1,7.1,5.6,13.1,7.3,19.5
			c2.5,9.7,3.8,23,2,46.2c-2.6,33.6-13.5,60.2-21.3,78.7c-9.3,22.1-12.9,23.2-19.2,43c-4.1,13-10.4,32.2-6.1,53.9
			c1.8,8.6,4.2,21,12.7,24C1183.9,943.9,1190.1,942.7,1200.9,934.7z"/>
		<path class="st5" d="M1169,847.8c-11.7-5.7-11.3-5.6-12.7-6.1c-4.8-1.8-9.1-2.5-13.2-4.4c-3.7-1.7-6.8-4.3-6.6-4.8
			c0.2-0.3,1.8,0.2,2.8,0.5c3.4,1,5.5,2.6,5.6,2.4c0.3-0.5-3.4-2.2-6.5-5.6c-5.6-5.9-6.5-13.7-7.8-26.8c-0.7-7.5-0.6-14.7-0.3-14.8
			s0.5,3.2,1.8,7.4c1.6,5.1,4.2,9.9,7.6,14c5.4,6.8,12,11.3,12.4,10.9c0.2-0.2-0.8-1-2.1-3.3c-2.2-3.8-3.1-7.9-2.9-8
			c0.2-0.1,0.9,1.3,1.5,2.3c6.2,9,12.9,15.8,13.2,15.5c0.1-0.1-1-1.3-3.9-5.6c-1.5-2.2-3.4-5.1-5.6-9c-0.8-1.5-1.5-2.7-2-3.6
			c1.6,1.2,3.1,2.5,4.4,3.9c3.3,3.5,4.9,7,5.3,6.8c0.3-0.2-1.8-3.6-1.9-8.4c0-1.4,0.1-2.8,0.4-4.2c0.6,3,1.7,5.9,3.4,8.5
			c2.5,3.9,5.8,7.2,6.5,6.7c0.5-0.3-0.8-2.4-1.1-6.1c-0.2-2.1,0.1-4.2,0.7-6.3c1.4,3.1,3.1,6.1,5.1,8.9c2.7,3.9,3.5,3.8,3.8,3.8
			c1-0.2,2-2.3,2-10.9c0.5,2.1,1.3,5.6,2.5,9.8c3.2,11.6,4.8,14.1,4,19c-0.6,3.7-2.7,9.4-6.8,10.5C1177,851.6,1175.8,851,1169,847.8
			z"/>
		<path class="st5" d="M1239,852.7c4.4-3.4,9.4-5.9,14.8-7.2c3.6-0.8,6.6-0.8,9.8-3.2c2.2-1.7,3.9-3.9,4.9-6.4
			c0.1,0.9,0.2,1.8,0,2.7c-0.6,4.5-4.2,7.2-4.1,7.4c0.2,0.2,2.4-1.1,6.6-5c2.9-2.7,5.6-5.6,8.1-8.7c-0.3,1.5-0.7,3-1.1,4.4
			c0,0-0.5,1.7-1.2,3.3c-1.5,3.6-3.6,6.9-6.2,9.9c0,0,4.3-3.3,6.9-5.7c2.7-2.5,5.1-5.4,7-8.6c0.7,4.2-0.3,8.4-2.8,11.8
			c1.5-0.8,3-1.7,4.4-2.6c3.1-2.1,5.9-4.7,8.3-7.6c-0.2,0.8-0.5,1.6-0.8,2.4c-2.5,5.5-7.2,8.2-7.1,8.4c0.1,0.2,3.9-1.7,8.5-5.6
			c3-2.6,5.8-5.5,8.2-8.7c-2.3,4.7-5.5,9-9.3,12.5c-1.4,1.3-3,2.6-4.6,3.7c10.8-4.9,16.5-9,19.7-12c1.1-0.9,3.7-3.5,7.5-3.8
			c2.2-0.1,4.4,0.4,6.3,1.6c-1.1,0.7-2.7,2-4.5,3.6c-6.1,5.3-8.9,10-14.7,18.6c-6.1,9-9.5,13.5-10.8,15.1
			c-6.9,8.9-9.9,11.4-13.8,12.4c-4.4,1.1-8.9,0.1-9.1,1c-0.1,0.7,2.1,1.7,4.3,2.6c-6.1,0.4-12.2,0-18.1-1.3
			c-10.2-2.2-19.6-4.2-23.2-11.9C1229.5,868.3,1232.8,857.5,1239,852.7z"/>
		<path class="st5" d="M1250.1,777c2.1-2.8,4.5-5.4,7.1-7.7c3.7-3.4,5-3.8,10.3-8c5.5-4.5,8.4-6.7,11-10.2c2.6-3.5,4.6-7.6,5.7-11.8
			c0.2,1.8,0.3,3.6,0.2,5.3c-0.3,3.2-1.1,6.4-2.6,9.2c6.8-5.7,11.8-13.2,14.8-21.5c0.2,2.4,0.1,4.7-0.3,7.1
			c-0.8,4.4-2.5,8.6-2.5,8.6s0.1-0.1,0.2-0.3c4.4-6.7,7.3-14.2,8.7-22.1c0.3,0.6,0.6,1.3,0.8,2c0.8,3-0.4,5.4-0.1,5.6
			c0.3,0.2,1.5-1.3,4.9-7.3c-4.3,20.5-11,33.7-16.6,42.1l-0.9,1.3c-7.3,10.4-16.4,19.5-26.9,26.8c-7.1,4.9-14.3,9.9-17.9,7.5
			C1241.4,800.5,1243.7,785.9,1250.1,777z"/>
		<path class="st5" d="M1209,674.4c-0.8-2-5.9-15.2-11-22.1c-1.3-1.8-2.7-3.5-2.7-3.5c-2.3-2.7-4.8-5.3-7.5-7.7c0.8,0,1.6,0,2.4,0.1
			c2.3,0.2,4.6,0.8,6.7,1.8c-2.1-4.6-5.1-8.7-8.8-12.1c1.6,0.5,3.2,1.1,4.7,1.9c4.4,2.3,6.7,5.3,6.8,5.1c0.1-0.1-4.4-6.1-11.3-12.1
			c-5.6-4.9-11.9-9-18.6-12.2c8,0.6,15.9,2.2,23.5,5c4.4,1.6,9.9,3.6,15.1,7.3c2.9,2.1,11.6,8.9,20.7,38.5
			c5.1,16.4,9.5,30.7,5.6,32.9C1230.3,699.9,1214.7,688.6,1209,674.4z"/>
		<path class="st5" d="M1214.3,748.5c-0.9-6.2-2.8-16-1.8-29.7c0.6-7.6,1.5-8.9,1.3-15.4c-0.2-6.6-0.6-16.2-6.7-25.4
			c-3-4.5-6.9-8.3-11.5-11.2c8.3,7.6,13,18.4,13,29.7c-1.4-6.9-4.1-13.5-7.9-19.4c-3.1-4.8-7.1-10.6-14.4-14.1
			c-10.8-5.2-21.7-1.9-25.1-0.7c6.4,0.6,12.7,2.7,18.2,6c13.4,8.2,17.8,21.6,19.3,26.2c2.1,6.5,3,13.4,2.6,20.2
			c-0.3-6.1-2-28.7-19-40.7c-2.4-1.7-4.9-3-7.6-4.1c3.8,3.1,7.3,6.6,10.2,10.6c4.6,6.5,7.9,13.8,9.7,21.6c2.1,8.9,0.7,11.2,1.8,21.3
			c1.3,12,5.1,19.7,6.7,25.9c4.9,18.4,7.9,37.2,9,56.2C1216.5,776.9,1215.9,759.4,1214.3,748.5z"/>
		<path id="_Path_2_1_" class="st6" d="M1244.8,800.8c2.8-3.1,5-6.6,6.6-10.4c0.5-11.7,1-22,1.1-31.3c-1.3-4.4-2.9-8.7-4.8-12.8
			c-6.8-15.5-20.9-40.1-26.9-37.9c-4.8,1.7,3.6,17.5-1.8,45.3c-1.3,6.9-4.4,18.7-8.8,41.6c-2,10.2-2.7,14.5-0.1,17.1
			C1215.8,818.1,1234.3,812.4,1244.8,800.8z"/>
		<path class="st5" d="M1167.3,928.6c1.8,4.8,4.6,9,9,10.6c2.6,0.8,5.4,0.8,7.9-0.1c-1-0.9-1.9-1.9-1.6-2.7c0.4-1.2,2.8-1,2.9-2
			c0.2-1.2-3.8-2.2-8.5-5s-7.1-5.8-8-5.1c-0.8,0.7,1.5,4.2,0.5,5C1169.1,929.5,1168.3,929.1,1167.3,928.6z"/>
		<path class="st6" d="M1171,877.9c0.3,1.8-0.1,3.6-1,5.2c-0.8,1-1.7,1.9-2.9,2.5c-3.6,2.6-2.9,9.8-2.5,13.6
			c0.7,6.5,3,12.7,6.8,18.1c1.2,1.7,6.3,8.9,13.2,10.4c1.1,0.2,8.6,1.9,12.6-2.3c2.5-2.6,1.2-5.1,3.9-8c4-4.2,9.5-1.9,11.9-5.4
			c1.6-2.4-0.2-4.6-0.6-9.2c-1-11.8,8.9-18.5,6.1-22.5c-2.2-3.2-8.4,0.9-13.7-3.5c-3.5-2.9-3.2-6.6-6.6-7.7
			c-3.4-1.1-5.6,1.8-7.6,0.6c-3.2-2,1.1-10.6-2-13.1c-2.2-1.7-7.1,0.3-10,2.8C1173.6,863.4,1170.6,872.3,1171,877.9z"/>
		<path class="st5" d="M1179.6,936.2c-1.6-0.2-2.2-0.3-2.2-0.1c-0.1,0.4,5.5,3.1,12,3.6c4.2,0.3,7.3-0.5,11.4-1.6
			c4.8-1.3,9.4-3.2,13.8-5.6c4.9-2.7,6.6-4.4,9.6-6.1c0.7-0.4,1.1-0.6,1.7-0.9c5.9-2.9,10.3-3,10.3-3.3c0-0.3-2.6-0.7-5.9-0.4
			c-5.2,0.6-10.1,2.7-14.2,6c-1.4,1.2-2.9,2.3-4.5,3.3c-0.9,0.5-1.7,1-2.7,1.4c-3.2,1.5-5.9,2-10.6,2.9c-3.9,0.8-5.9,1.2-6,1.2
			C1188,936.9,1183.8,936.8,1179.6,936.2z"/>
		<path class="st5" d="M1171.5,932.6c-1.9-1.2-3.6-2.5-5.3-4c-0.2-0.2-0.7-0.7-1.9-1.9c-3.6-3.7-4.4-5.3-6.3-7.1
			c-1-1-1.1-0.9-6.3-4.5c-7.2-4.9-8.8-6.3-9-6.1c-0.4,0.4,5.5,6.3,8.7,9c2.6,2.2,3.3,2.3,5.3,4.4c1.8,1.8,2.7,3.1,6.6,7.3
			c0.9,0.9,1.3,1.3,1.5,1.5c3.8,3.2,9.1,3.5,9.2,3C1174.1,934.2,1173.4,933.9,1171.5,932.6z"/>
		<path class="st7" d="M1238.2,800.4c-0.8-3.3-4-6.3-7-6.4c-4.4-0.2-5,6.2-11.5,9.6c-7.7,4-13.7-1.3-17.3,2.6
			c-3.4,3.7-1.9,12.4,2.5,15.7c2.5,1.9,4,0.7,8.5,2.9c4.7,2.3,5,5.1,8.6,5.7c2.5,0.4,5.1-0.4,7-2.2c2.1-2.3,0.9-5,1.3-9
			C1231.1,809.3,1239.6,806.7,1238.2,800.4z"/>
		<path class="st7" d="M1222.6,876.2c-4,0.3-5.5-1.5-7.9-0.2c-1.7,0.9-1.5,2.1-3.8,5.5c-3.1,4.6-5.2,4.8-5.2,6.5
			c0.2,4,11.7,7.9,14,5.2c1.5-1.9-2.1-5.6-0.4-8c2-2.8,7.9,0.3,11-2.8c2.4-2.5,2-7.7,0.1-8.7
			C1228.8,872.6,1227.2,875.8,1222.6,876.2z"/>
	</g>
</g>
</svg>
