<?xml version="1.0" encoding="utf-8"?>
<!-- Generator: Adobe Illustrator 21.1.0, SVG Export Plug-In . SVG Version: 6.00 Build 0)  -->
<svg version="1.1" id="Layer_1" xmlns="http://www.w3.org/2000/svg" xmlns:xlink="http://www.w3.org/1999/xlink" x="0px" y="0px"
	 viewBox="0 0 233.8 353.8" style="enable-background:new 0 0 233.8 353.8;" xml:space="preserve">
<style type="text/css">
	.st0{fill:#EAE3DF;}
	.st1{fill:#D3C5BA;}
	.st2{fill:#BB2026;}
	.st3{fill:#261E24;}
</style>
<title>red-koi</title>
<g id="Layer_2">
	<g id="Layer_2-2">
		<path class="st0" d="M144.1,353.4c9.4-2.4,13.3-15.5,16.1-24.6c6.9-23,2-44.3-1.1-58.8c-4.8-22.1-8.5-23.6-16.4-48.4
			c-6.6-20.8-15.7-50.6-15.1-87c0.4-25.2,3.2-39.4,6.9-49.6c2.4-6.7,4.7-13.1,9.8-20.3c15.3-21.6,39.7-27.8,48.9-29.4
			c22.5-4.1,40.1,3.5,40.5,1.5c0.4-1.5-9.9-6.3-21.4-8c-10.7-1.6-17.4,0.2-17.7-1c-0.7-2.9,38.8-13.9,38.5-15
			c-0.2-0.8-45.4,1.4-90.4,29.9c-13,8.2-29.9,18.8-43.9,38.8c-19.4,27.7-20.6,55-22.8,104.6c-2.6,57.9,6.5,89.7,9.7,100.2
			c1.8,5.7,11.1,34.7,35.7,56.8C132.5,352.8,139,354.7,144.1,353.4z"/>
		<path class="st1" d="M153.9,255.2c-4.3-1.6-6-8-6.3-12c-0.4-5.3,1.6-7.9,6.3-20c1.7-4.4,3-8,3.7-10.3c-0.9,9.3,0,11.6,1.1,12
			c0.3,0.1,1.2,0.2,4.5-3.7c2.4-2.8,4.6-5.9,6.4-9.1c0.4,2.3,0.5,4.6,0.1,6.8c-0.7,3.9-2.4,6-1.8,6.4c0.8,0.6,4.7-2.7,7.7-6.6
			c2-2.6,3.5-5.6,4.5-8.8c0.2,1.5,0.2,3,0,4.6c-0.6,5.2-3.2,8.6-2.9,8.9s2.5-3.4,6.4-6.9c1.6-1.4,3.3-2.7,5.2-3.8
			c-0.6,0.9-1.4,2.2-2.5,3.6c-2.8,4-5.2,6.9-6.9,9.1c-3.5,4.3-4.8,5.5-4.7,5.6c0.3,0.3,8.2-6.3,15.8-15.4c0.8-1,1.7-2.5,1.9-2.4
			s-1.2,4.4-4,8.3c-1.6,2.3-2.7,3.1-2.6,3.3c0.4,0.5,8-3.7,14.5-10.5c4.1-4.1,7.4-9,9.6-14.3c1.8-4.4,2.3-7.9,2.7-7.9
			c0.5,0.1-0.3,7.9-1.9,15.9c-2.7,14-4.5,22.2-11.1,28.1c-3.7,3.3-7.9,4.8-7.6,5.4c0.1,0.2,2.4-1.2,6.2-2.1c1.1-0.2,3-0.6,3.1-0.3
			c0.2,0.6-3.4,3-7.6,4.5c-4.6,1.6-9.4,2-14.6,3.4c-1.5,0.4-1.1,0.4-14.3,5.3C157.1,255.4,155.7,255.9,153.9,255.2z"/>
		<path class="st1" d="M93,276.4c-4.6,8-15,9.2-26.2,10.5c-6.6,0.8-13.2,0.6-19.7-0.5c2.4-0.7,5-1.6,4.9-2.4c-0.1-1-5-0.3-9.7-2
			c-4.1-1.5-7.1-4.5-13.7-14.8c-1.2-1.9-4.5-7.1-10.2-17.4c-5.4-9.8-7.9-15.2-14-21.5c-1.8-1.9-3.4-3.4-4.5-4.3
			c2.1-1.1,4.6-1.5,6.9-1.1c4.1,0.7,6.6,3.7,7.7,4.9c3.2,3.6,8.9,8.6,20.1,14.9c-1.6-1.4-3.2-2.9-4.6-4.5c-3.8-4.3-6.7-9.2-8.7-14.5
			c2.3,3.7,4.9,7.1,7.9,10.2c4.6,4.7,8.4,7.1,8.6,6.9s-4.7-3.5-6.8-9.8c-0.3-0.9-0.5-1.7-0.7-2.6c2.3,3.4,5.1,6.4,8.2,9
			c1.4,1.2,3,2.3,4.5,3.3c-2.4-3.9-3.1-8.6-1.9-13c1.8,3.6,4,7,6.7,10c2.5,2.8,6.9,6.8,6.9,6.8c-2.4-3.5-4.3-7.3-5.6-11.3
			c-0.6-1.8-1-3.7-1-3.7c-0.4-1.6-0.6-3.2-0.8-4.8c2.4,3.6,5,7,7.9,10.2c4.1,4.6,6.4,6.2,6.6,6s-3.4-3.5-3.6-8.4c0-1,0.1-2,0.3-2.9
			c0.9,2.8,2.5,5.4,4.7,7.4c3.2,2.9,6.5,3.2,10.3,4.5c5.7,2,10.9,5.1,15.2,9.2C94.9,256.6,97.5,268.6,93,276.4z"/>
		<path class="st1" d="M86.1,197.1c-4.2,2.2-11.4-3.9-18.6-9.9c-10.5-8.9-19.4-19.6-26.3-31.6c-0.1-0.2-0.5-0.8-0.8-1.5
			c-5.2-9.6-11.1-24.6-13.7-47.1c3.2,6.8,4.3,8.4,4.6,8.3s-0.6-2.8,0.5-6c0.3-0.7,0.6-1.4,1-2c0.7,8.6,3.2,17,7.2,24.7
			c0.1,0.2,0.1,0.3,0.2,0.3s-1.4-4.7-1.8-9.5c-0.2-2.6-0.1-5.1,0.4-7.6c2.3,9.3,7.1,17.8,13.8,24.7c-1.3-3.3-1.9-6.7-1.8-10.2
			c0-1.9,0.3-3.9,0.7-5.7c0.8,4.7,2.5,9.2,5,13.3c2.5,4,5.2,6.7,10.8,12.1c5.3,5.1,6.6,5.6,10.3,9.7c2.5,2.8,4.8,5.8,6.8,9
			C90.4,178.3,91.5,194.2,86.1,197.1z"/>
		<path class="st1" d="M109.2,83.7c-4-2.8,2.2-17.7,9.4-35c12.9-31,22.9-37.4,26.3-39.4c5.9-3.4,12.1-5,17-6.3
			c8.4-2.2,17.1-3.2,25.9-3c-7.5,2.8-14.7,6.6-21.2,11.2C158.3,17,152.8,23,153,23.2s2.9-2.7,7.9-4.9c1.7-0.7,3.5-1.2,5.3-1.6
			c-4.4,3.3-8,7.4-10.7,12.2c2.4-0.8,4.9-1.3,7.5-1.3c0.9,0,1.7,0,2.6,0.1c-3.1,2.3-6.1,4.8-8.9,7.5c0,0-1.8,1.7-3.4,3.4
			c-6.2,6.9-13,20.6-14.1,22.7C131.6,76.2,113.6,86.8,109.2,83.7z"/>
		<path class="st1" d="M122.4,202.5c3.1-20.4,8.3-40.4,15.4-59.7c2.4-6.5,7.2-14.4,9.9-27.2c2.2-10.7,1-13.4,4.1-22.8
			c2.7-8.2,7-15.8,12.7-22.4c3.5-4,7.6-7.5,12.1-10.4c-3,0.9-5.8,2.1-8.5,3.7c-19.5,11.2-23.7,35.4-24.6,42
			c0.2-7.4,1.9-14.7,4.9-21.6c2.1-4.8,8.2-18.8,23.5-26.3c6.3-3.1,13.2-4.7,20.2-4.8c-3.5-1.6-14.9-6.3-27.1-1.8
			c-8.3,3.1-13.2,9-17,13.8c-4.8,6-8.3,12.8-10.5,20.2c1.1-12.2,7.3-23.3,17-30.7c-5.2,2.7-9.8,6.4-13.5,10.9
			c-7.5,9.3-8.9,19.7-9.8,26.7s0,8.6-0.2,16.8c-0.3,14.9-3.3,25.3-4.9,31.9C123.2,152.4,120.7,171.3,122.4,202.5z"/>
		<path id="_Path_" class="st2" d="M124.1,210.1c3-2.5,2.7-7.1,1.6-18.4c-2.5-25.1-4.6-38.2-5.3-45.7c-3-30.5,7.6-46.7,2.7-49.1
			c-6.3-3-24,22.1-32.8,38.2c-2.4,4.3-4.6,8.8-6.4,13.4c-0.9,10.1-1.4,21.2-2,33.9c1.4,4.3,3.4,8.3,6.1,11.9
			C97.9,207.8,117.3,215.8,124.1,210.1z"/>
		<path class="st1" d="M156,340.3c-0.9-1,1.9-4.5,1.1-5.4s-3.8,2.1-9.1,4.7s-9.8,3.3-9.7,4.6c0.1,1,2.7,1,3,2.4c0.2,1-0.9,1.9-2,2.8
			c2.7,1.2,5.7,1.5,8.6,0.9c4.9-1.2,8.2-5.5,10.7-10.5C157.4,340.4,156.4,340.7,156,340.3z"/>
		<path class="st2" d="M153.1,263.7c-2.9-2.9-8-5.6-10.5-4c-3.6,2.3,0.1,12-3.5,13.9c-2.2,1.2-4.3-2.2-8.1-1.4s-3.9,4.9-7.9,7.7
			c-6.2,4.2-12.4-0.8-15.1,2.4c-3.5,4.1,6.6,12.2,4.3,24.9c-0.9,5-3,7.1-1.5,9.9c2.2,4.1,8.4,2.1,12.3,7.1c2.6,3.4,1,6,3.4,9
			c3.9,4.9,12.2,3.9,13.4,3.7c7.6-0.9,13.8-8.2,15.3-9.9c4.6-5.4,7.8-11.9,9.1-18.8c0.8-4.1,2.3-11.7-1.3-14.9
			c-1.2-0.8-2.1-1.8-2.8-3c-0.8-1.8-1-3.8-0.6-5.7C160.6,278.8,158.3,268.9,153.1,263.7z"/>
		<path class="st1" d="M130.8,346c-0.1,0-2.2-0.7-6.3-1.9c-5-1.5-7.9-2.2-11.2-4.2c-0.9-0.6-1.8-1.2-2.7-1.8c-1.6-1.2-3.1-2.5-4.5-4
			c-4.1-4-9.2-6.7-14.7-7.9c-3.5-0.7-6.4-0.5-6.4-0.1s4.7,1,10.8,4.6c0.6,0.4,1,0.6,1.8,1.1c3.1,2.2,4.7,4.2,9.8,7.6
			c4.4,3,9.3,5.5,14.3,7.4c4.3,1.5,7.5,2.7,12.1,2.9c7,0.2,13.3-2.2,13.2-2.6c0-0.1-0.7-0.1-2.4-0.1
			C139.9,347,135.3,346.7,130.8,346z"/>
		<path class="st1" d="M150.6,345.4c0.1,0.5,5.8,0.8,10.3-2.3c0.2-0.1,0.7-0.6,1.7-1.5c4.6-4.1,5.8-5.5,7.9-7.2
			c2.4-2,3.1-2.1,6.2-4.2c3.8-2.6,10.7-8.3,10.3-8.8c-0.2-0.3-2.1,1.1-10.4,5.6c-6,3.3-6.1,3.3-7.3,4.2c-2.2,1.8-3.2,3.4-7.5,7.1
			c-1.4,1.2-1.9,1.6-2.2,1.8c-2,1.4-4,2.6-6.2,3.8C151.3,345,150.6,345.2,150.6,345.4z"/>
		<path class="st3" d="M101.6,215.6c0,4.4-1.5,7.1,0.5,9.8c1.8,2.1,4.5,3.2,7.3,3c3.9-0.2,4.5-3.2,9.8-5.2c5.2-2,6.7-0.5,9.5-2.3
			c5-3.2,7.5-12.4,4.3-16.7c-3.5-4.6-10.5,0.5-18.4-4.6c-6.7-4.3-6.8-11.2-11.5-11.5c-3.2-0.2-7,2.8-8.2,6.2
			C92.8,201,101.7,204.7,101.6,215.6z"/>
		<path class="st3" d="M95.9,274.1c-2.1,0.9-3.1,6.5-0.7,9.4c3,3.8,9.7,0.9,11.6,4.2c1.6,2.9-2.7,6.5-1.2,8.6
			c2.2,3.2,15.1,0.1,15.7-4.2c0.2-1.8-2-2.3-4.9-7.5c-2.2-3.9-1.8-5.2-3.6-6.3c-2.4-1.6-4.2,0.2-8.6-0.5
			C99.2,276.8,97.8,273.3,95.9,274.1z"/>
	</g>
</g>
</svg>
