<svg xmlns="http://www.w3.org/2000/svg" viewBox="0 0 211.29 335.45"><defs><style>.cls-1{fill:#f3b51b;}.cls-2{fill:#c18711;}.cls-3{fill:#ead29d;}.cls-4{fill:#2b2425;}</style></defs><title>yellow-koi</title><g id="Layer_2" data-name="Layer 2"><g id="Layer_2-2" data-name="Layer 2"><path class="cls-1" d="M148.09,334.91c8.57-2.81,11.36-15.14,13.32-23.75,4.92-21.69-.9-41.15-4.69-54.34-5.79-20.14-9.37-21.28-18.16-43.74-7.36-18.83-17.68-45.82-19.37-79.6-1.17-23.33.48-36.62,3.25-46.32,1.82-6.38,3.53-12.38,7.82-19.36,12.85-20.91,35-28.1,43.43-30.24,20.53-5.21,37.29.74,37.6-1.16.23-1.46-9.54-5.23-20.28-6.1-10-.81-16.09,1.26-16.44.18-.84-2.61,35-15.24,34.7-16.28-.23-.71-41.92,4.15-81.75,33.26C116,55.84,101.05,66.78,89.32,86.16,73.11,113,73.69,138.36,74.74,184.34,76,238,86.34,267,90,276.43c2,5.18,12.44,31.4,36.61,50.33C137.24,335.09,143.43,336.43,148.09,334.91Z"/><path class="cls-2" d="M155.35,324.72c-1-.85,1.54-4.44.69-5.15s-3.44,2.25-8.33,5.05-9,3.72-8.87,5c.13,1,2.59.81,3,2.1.25.89-.68,1.84-1.76,2.79a12.81,12.81,0,0,0,8.17.29c4.57-1.5,7.46-5.72,9.5-10.62C156.69,324.73,155.78,325.1,155.35,324.72Z"/><path class="cls-2" d="M135.82,330.71c-4.45-.85-5.22.21-10.12-.37a33.89,33.89,0,0,1-10.87-3.27c-3.88-2-5.77-4-7.69-5.46-3.56-2.81-9.57-5.77-20.15-5.86a43.8,43.8,0,0,1,8.9,2.91c5.74,2.59,6.58,4.49,13.1,8.27a63.23,63.23,0,0,0,14,6.12A52,52,0,0,0,134.72,335c1.1.05,8.84.4,9-.84C143.92,333.19,139.71,331.46,135.82,330.71Z"/><path class="cls-2" d="M150.6,329.94c.14.5,5.59.38,9.59-2.85.19-.16.64-.62,1.54-1.53,4.12-4.21,5.11-5.56,7-7.38,2.17-2.06,2.85-2.2,5.63-4.39,3.42-2.71,9.63-8.55,9.23-9-.2-.24-1.94,1.16-9.46,6-5.47,3.54-5.61,3.48-6.64,4.47-2,1.89-2.86,3.42-6.63,7.18-1.2,1.2-1.73,1.67-2,1.87a59.57,59.57,0,0,1-5.63,4C151.21,329.52,150.54,329.73,150.6,329.94Z"/><path class="cls-2" d="M147.95,244.13c-4.16-1.26-6.2-7.18-6.72-11-.68-5,1-7.6,4.67-19.41,1.32-4.3,2.29-7.81,2.86-10-.24,8.85.76,11,1.78,11.27.29.07,1.11.11,4-3.8a52.06,52.06,0,0,0,5.45-9,18.24,18.24,0,0,1,.51,6.47c-.39,3.76-1.86,5.84-1.31,6.22.75.51,4.29-2.86,6.92-6.76a25.5,25.5,0,0,0,3.68-8.62,18,18,0,0,1,.32,4.33c-.24,5-2.52,8.39-2.18,8.58s2.12-3.35,5.61-6.91a31.32,31.32,0,0,1,4.67-3.91c-.5.89-1.22,2.14-2.12,3.61-2.4,4-4.45,6.87-6,9.08-3,4.32-4.23,5.53-4.12,5.64.28.25,7.34-6.52,14-15.63.73-1,1.47-2.46,1.68-2.37s-.87,4.25-3.24,8.16c-1.37,2.27-2.4,3.12-2.24,3.3.42.45,7.35-4,13.05-10.86a42.85,42.85,0,0,0,8.19-14.2c1.44-4.32,1.7-7.65,2-7.61.47.06.23,7.46-.74,15.2-1.68,13.46-2.85,21.39-8.76,27.36-3.34,3.37-7.16,5-6.86,5.58.09.17,2.25-1.33,5.78-2.34,1-.3,2.79-.8,3-.46.24.51-3,3.07-6.9,4.77-4.22,1.84-8.74,2.53-13.66,4.2-1.41.48-1.05.43-13.23,5.95C151,244.11,149.71,244.67,147.95,244.13Z"/><path class="cls-2" d="M91.53,268.19c-3.83,7.84-13.64,9.67-24.17,11.63a67.47,67.47,0,0,1-18.72.83c2.26-.84,4.63-1.88,4.5-2.58-.18-1-4.77,0-9.32-1.28-4-1.14-7-3.77-13.92-13.12-1.29-1.75-4.73-6.47-10.75-15.87-5.75-9-8.51-13.88-14.62-19.5-1.84-1.69-3.46-3-4.54-3.78A11,11,0,0,1,6.51,223c3.89.43,6.52,3.11,7.6,4.17,3.26,3.21,9,7.59,20,12.87a43.7,43.7,0,0,1-4.64-4,44.76,44.76,0,0,1-9.22-13.17,55.7,55.7,0,0,0,8.16,9.19c4.66,4.2,8.47,6.21,8.63,6s-4.71-3-7.08-8.81a17.51,17.51,0,0,1-.81-2.46,42.16,42.16,0,0,0,8.36,8A41.72,41.72,0,0,0,42,237.71a15.58,15.58,0,0,1-2.61-12.23,41,41,0,0,0,7,9c2.57,2.48,7,6,7,6a39.63,39.63,0,0,1-6-10.36c-.66-1.68-1.16-3.41-1.16-3.41a39.51,39.51,0,0,1-1-4.54,87.59,87.59,0,0,0,8.1,9.16c4.17,4.1,6.44,5.51,6.64,5.31s-3.49-3.11-4-7.72a10,10,0,0,1,.11-2.81,16.12,16.12,0,0,0,4.91,6.71c3.26,2.54,6.38,2.66,10,3.57a40.81,40.81,0,0,1,15,7.79C92.12,249.25,95.3,260.47,91.53,268.19Z"/><path class="cls-2" d="M79.95,193.44c-3.82,2.4-11.1-3-18.26-8.22a112.32,112.32,0,0,1-26.93-28.3c-.11-.17-.49-.75-.9-1.41-5.54-8.8-12.11-22.59-16-43.76,3.43,6.25,4.6,7.74,4.9,7.6s-.8-2.63.08-5.74a9,9,0,0,1,.84-2,61.84,61.84,0,0,0,8.41,23c.07.15.15.31.18.3S30.65,130.53,30,126a28.84,28.84,0,0,1-.11-7.28,51.17,51.17,0,0,0,14.64,22.54,26.08,26.08,0,0,1-2.4-9.58,25.71,25.71,0,0,1,.3-5.48A36.22,36.22,0,0,0,48,138.49c2.6,3.67,5.41,6,11,10.76,5.33,4.49,6.62,4.89,10.35,8.53a59.86,59.86,0,0,1,7.11,8.15C82.83,175.27,84.85,190.36,79.95,193.44Z"/><path class="cls-2" d="M94.54,84.39c-4-2.4.94-17,6.64-33.76,10.24-30.23,19.32-37,22.39-39,5.37-3.61,11.11-5.54,15.71-7.08A88.84,88.84,0,0,1,163.61,0a85.9,85.9,0,0,0-19.42,12c-7.33,6-12.14,12-12,12.17s2.53-2.79,7.2-5.12a26.63,26.63,0,0,1,4.89-1.87,37.6,37.6,0,0,0-9.37,12.25,21.61,21.61,0,0,1,7-1.7,21.12,21.12,0,0,1,2.47,0,76.73,76.73,0,0,0-7.93,7.71s-1.52,1.71-2.92,3.49c-5.47,6.94-11,20.37-11.94,22.44C115.32,75.86,98.91,87,94.54,84.39Z"/><path class="cls-2" d="M114.72,196.17a294.8,294.8,0,0,1,10.81-57.62c1.87-6.3,5.89-14.17,7.61-26.46,1.43-10.29,0-12.75,2.45-21.85a62.18,62.18,0,0,1,10.57-22,57.6,57.6,0,0,1,10.77-10.65,38.77,38.77,0,0,0-7.9,4C131.26,73.46,128.84,96.7,128.38,103a55.9,55.9,0,0,1,3.22-20.75c1.7-4.72,6.6-18.37,20.58-26.49A43.9,43.9,0,0,1,171.05,50c-3.38-1.28-14.55-5-25.82,0-7.7,3.45-11.93,9.38-15.24,14.16A57.25,57.25,0,0,0,121.29,84a41.26,41.26,0,0,1,14.17-30.2A40.19,40.19,0,0,0,123.37,65c-6.53,9.34-7.21,19.22-7.58,26s.54,8.13.92,15.92c.7,14.13-1.53,24.17-2.61,30.53C112.21,148.66,111.06,166.7,114.72,196.17Z"/><path class="cls-3" d="M111.94,175.15a407.4,407.4,0,0,0,19.3,53.53c8,17.18,11.64,21.05,14.78,33.49,5.41,21.46,4.27,48.81-5.21,52-6.18,2.11-14.15-6.65-23.43-16.83-18.75-20.59-26.33-46.66-22.95-48.57,4-2.24,20.69,29.53,30.54,25.94,5.43-2,6.59-14.92,4.43-25.09-4.71-22.1-24.14-26.35-36.54-42.88C65,169.59,94.64,99.47,99.61,100c1.81.2,1,9.68,4.49,37.24A249.34,249.34,0,0,0,111.94,175.15Z"/><path class="cls-4" d="M112.29,254c1-.36,1.07-3.33,1.26-9.24.13-4.13.18-6.21-.84-6.89-1.36-.92-3,.57-4.39-.42-1.14-.84-.75-2.51-1-4.95-.36-3.42-2-8.46-4.42-8.86-1.91-.32-4.31,2.26-5.29,4.55s-.2,3.9-1.3,4.73c-1.74,1.31-4.58-1.79-6.9-.66s-2.94,5.35-1.66,8.49c1.74,4.26,7.28,6.42,9.86,5,2.1-1.19,1.62-4.45,3.64-4.92,1.34-.32,2.87.8,3.62,1.83,1,1.31.39,2.09,1,4.53a10.55,10.55,0,0,0,3.47,5.61C110.36,253.56,111.42,254.38,112.29,254Z"/><path class="cls-4" d="M123.61,204.94c1-.36,1.07-3.33,1.26-9.24.13-4.13.18-6.21-.84-6.89-1.36-.92-3,.57-4.39-.42-1.14-.84-.75-2.51-1-4.95-.36-3.42-2-8.46-4.42-8.86-1.91-.32-4.31,2.26-5.29,4.55s-.2,3.9-1.3,4.73c-1.74,1.31-4.58-1.79-6.9-.66s-2.94,5.35-1.66,8.49c1.74,4.26,7.28,6.42,9.86,5,2.1-1.19,1.62-4.45,3.64-4.92,1.34-.32,2.87.8,3.62,1.83,1,1.31.39,2.09,1,4.53a10.55,10.55,0,0,0,3.47,5.61C121.69,204.45,122.74,205.27,123.61,204.94Z"/></g></g></svg>